%FSLAX45Y45*%
G04 Gerber Fmt 4.5, Leading zero omitted, Abs format (unit mm)*
G04 Created by KiCad (PCBNEW (5.1.12)-1) date 2022-01-24 11:21:39*
%MOMM*%
%LPD*%
G01*
G04 APERTURE LIST*
%TA.AperFunction,Profile*%
%ADD10C,0.100000*%
%TD*%
%ADD11C,0.200000*%
%ADD12C,0.300000*%
G04 APERTURE END LIST*
D10*
X21050000Y-8980000D02*
G75*
G02*
X21350000Y-9280000I0J-300000D01*
G01*
X21350000Y-15000000D02*
G75*
G02*
X21050000Y-15300000I-300000J0D01*
G01*
X10550000Y-15300000D02*
G75*
G02*
X10250000Y-15000000I0J300000D01*
G01*
X10250000Y-9280000D02*
G75*
G02*
X10550000Y-8980000I300000J0D01*
G01*
X10550000Y-15300000D02*
X21050000Y-15300000D01*
X21350000Y-9280000D02*
X21350000Y-15000000D01*
X10550000Y-8980000D02*
X21050000Y-8980000D01*
X10250000Y-9280000D02*
X10250000Y-15000000D01*
D11*
X11955000Y-12875000D02*
X12175000Y-13095000D01*
X12175000Y-12875000D02*
X11955000Y-13095000D01*
X11955000Y-13295000D02*
X12175000Y-13515000D01*
X12175000Y-13295000D02*
X11955000Y-13515000D01*
X11955000Y-13715000D02*
X12175000Y-13935000D01*
X12175000Y-13715000D02*
X11955000Y-13935000D01*
X11955000Y-14135000D02*
X12175000Y-14355000D01*
X12175000Y-14135000D02*
X11955000Y-14355000D01*
X12920000Y-9500000D02*
G75*
G03*
X12920000Y-9500000I-160000J0D01*
G01*
X12920000Y-14770000D02*
G75*
G03*
X12920000Y-14770000I-160000J0D01*
G01*
X19000000Y-9600000D02*
G75*
G03*
X19000000Y-9600000I-160000J0D01*
G01*
X19000000Y-14770000D02*
G75*
G03*
X19000000Y-14770000I-160000J0D01*
G01*
X15800000Y-13832500D02*
X15800000Y-14582500D01*
X15425000Y-14207500D02*
X16175000Y-14207500D01*
X13095879Y-11918379D02*
X13095879Y-11246621D01*
X12424121Y-11246621D01*
X12424121Y-11918379D01*
X13095879Y-11918379D01*
X19175879Y-11918379D02*
X19175879Y-11246621D01*
X18504121Y-11246621D01*
X18504121Y-11918379D01*
X19175879Y-11918379D01*
D12*
X10531428Y-15770714D02*
X10531428Y-15470714D01*
X10602857Y-15470714D01*
X10645714Y-15485000D01*
X10674286Y-15513571D01*
X10688571Y-15542143D01*
X10702857Y-15599286D01*
X10702857Y-15642143D01*
X10688571Y-15699286D01*
X10674286Y-15727857D01*
X10645714Y-15756429D01*
X10602857Y-15770714D01*
X10531428Y-15770714D01*
X10831428Y-15770714D02*
X10831428Y-15570714D01*
X10831428Y-15627857D02*
X10845714Y-15599286D01*
X10860000Y-15585000D01*
X10888571Y-15570714D01*
X10917143Y-15570714D01*
X11017143Y-15770714D02*
X11017143Y-15570714D01*
X11017143Y-15470714D02*
X11002857Y-15485000D01*
X11017143Y-15499286D01*
X11031428Y-15485000D01*
X11017143Y-15470714D01*
X11017143Y-15499286D01*
X11202857Y-15770714D02*
X11174286Y-15756429D01*
X11160000Y-15727857D01*
X11160000Y-15470714D01*
X11360000Y-15770714D02*
X11331428Y-15756429D01*
X11317143Y-15727857D01*
X11317143Y-15470714D01*
X11702857Y-15770714D02*
X11702857Y-15470714D01*
X11802857Y-15685000D01*
X11902857Y-15470714D01*
X11902857Y-15770714D01*
X12174286Y-15770714D02*
X12174286Y-15613571D01*
X12160000Y-15585000D01*
X12131428Y-15570714D01*
X12074286Y-15570714D01*
X12045714Y-15585000D01*
X12174286Y-15756429D02*
X12145714Y-15770714D01*
X12074286Y-15770714D01*
X12045714Y-15756429D01*
X12031428Y-15727857D01*
X12031428Y-15699286D01*
X12045714Y-15670714D01*
X12074286Y-15656429D01*
X12145714Y-15656429D01*
X12174286Y-15642143D01*
X12317143Y-15570714D02*
X12317143Y-15870714D01*
X12317143Y-15585000D02*
X12345714Y-15570714D01*
X12402857Y-15570714D01*
X12431428Y-15585000D01*
X12445714Y-15599286D01*
X12460000Y-15627857D01*
X12460000Y-15713571D01*
X12445714Y-15742143D01*
X12431428Y-15756429D01*
X12402857Y-15770714D01*
X12345714Y-15770714D01*
X12317143Y-15756429D01*
X12588571Y-15742143D02*
X12602857Y-15756429D01*
X12588571Y-15770714D01*
X12574286Y-15756429D01*
X12588571Y-15742143D01*
X12588571Y-15770714D01*
X12588571Y-15585000D02*
X12602857Y-15599286D01*
X12588571Y-15613571D01*
X12574286Y-15599286D01*
X12588571Y-15585000D01*
X12588571Y-15613571D01*
X10025000Y-16155000D02*
X10245000Y-16375000D01*
X10245000Y-16155000D02*
X10025000Y-16375000D01*
X10517143Y-16129286D02*
X10531428Y-16115000D01*
X10560000Y-16100714D01*
X10631428Y-16100714D01*
X10660000Y-16115000D01*
X10674286Y-16129286D01*
X10688571Y-16157857D01*
X10688571Y-16186429D01*
X10674286Y-16229286D01*
X10502857Y-16400714D01*
X10688571Y-16400714D01*
X10817143Y-16372143D02*
X10831428Y-16386429D01*
X10817143Y-16400714D01*
X10802857Y-16386429D01*
X10817143Y-16372143D01*
X10817143Y-16400714D01*
X10945714Y-16129286D02*
X10960000Y-16115000D01*
X10988571Y-16100714D01*
X11060000Y-16100714D01*
X11088571Y-16115000D01*
X11102857Y-16129286D01*
X11117143Y-16157857D01*
X11117143Y-16186429D01*
X11102857Y-16229286D01*
X10931428Y-16400714D01*
X11117143Y-16400714D01*
X11302857Y-16100714D02*
X11331428Y-16100714D01*
X11360000Y-16115000D01*
X11374286Y-16129286D01*
X11388571Y-16157857D01*
X11402857Y-16215000D01*
X11402857Y-16286429D01*
X11388571Y-16343571D01*
X11374286Y-16372143D01*
X11360000Y-16386429D01*
X11331428Y-16400714D01*
X11302857Y-16400714D01*
X11274286Y-16386429D01*
X11260000Y-16372143D01*
X11245714Y-16343571D01*
X11231428Y-16286429D01*
X11231428Y-16215000D01*
X11245714Y-16157857D01*
X11260000Y-16129286D01*
X11274286Y-16115000D01*
X11302857Y-16100714D01*
X11588571Y-16100714D02*
X11617143Y-16100714D01*
X11645714Y-16115000D01*
X11660000Y-16129286D01*
X11674286Y-16157857D01*
X11688571Y-16215000D01*
X11688571Y-16286429D01*
X11674286Y-16343571D01*
X11660000Y-16372143D01*
X11645714Y-16386429D01*
X11617143Y-16400714D01*
X11588571Y-16400714D01*
X11560000Y-16386429D01*
X11545714Y-16372143D01*
X11531428Y-16343571D01*
X11517143Y-16286429D01*
X11517143Y-16215000D01*
X11531428Y-16157857D01*
X11545714Y-16129286D01*
X11560000Y-16115000D01*
X11588571Y-16100714D01*
X11817143Y-16400714D02*
X11817143Y-16200714D01*
X11817143Y-16229286D02*
X11831428Y-16215000D01*
X11860000Y-16200714D01*
X11902857Y-16200714D01*
X11931428Y-16215000D01*
X11945714Y-16243571D01*
X11945714Y-16400714D01*
X11945714Y-16243571D02*
X11960000Y-16215000D01*
X11988571Y-16200714D01*
X12031428Y-16200714D01*
X12060000Y-16215000D01*
X12074286Y-16243571D01*
X12074286Y-16400714D01*
X12217143Y-16400714D02*
X12217143Y-16200714D01*
X12217143Y-16229286D02*
X12231428Y-16215000D01*
X12260000Y-16200714D01*
X12302857Y-16200714D01*
X12331428Y-16215000D01*
X12345714Y-16243571D01*
X12345714Y-16400714D01*
X12345714Y-16243571D02*
X12360000Y-16215000D01*
X12388571Y-16200714D01*
X12431428Y-16200714D01*
X12460000Y-16215000D01*
X12474286Y-16243571D01*
X12474286Y-16400714D01*
X13060000Y-16086429D02*
X12802857Y-16472143D01*
X13445714Y-16100714D02*
X13474286Y-16100714D01*
X13502857Y-16115000D01*
X13517143Y-16129286D01*
X13531428Y-16157857D01*
X13545714Y-16215000D01*
X13545714Y-16286429D01*
X13531428Y-16343571D01*
X13517143Y-16372143D01*
X13502857Y-16386429D01*
X13474286Y-16400714D01*
X13445714Y-16400714D01*
X13417143Y-16386429D01*
X13402857Y-16372143D01*
X13388571Y-16343571D01*
X13374286Y-16286429D01*
X13374286Y-16215000D01*
X13388571Y-16157857D01*
X13402857Y-16129286D01*
X13417143Y-16115000D01*
X13445714Y-16100714D01*
X13674286Y-16372143D02*
X13688571Y-16386429D01*
X13674286Y-16400714D01*
X13660000Y-16386429D01*
X13674286Y-16372143D01*
X13674286Y-16400714D01*
X13874286Y-16100714D02*
X13902857Y-16100714D01*
X13931428Y-16115000D01*
X13945714Y-16129286D01*
X13960000Y-16157857D01*
X13974286Y-16215000D01*
X13974286Y-16286429D01*
X13960000Y-16343571D01*
X13945714Y-16372143D01*
X13931428Y-16386429D01*
X13902857Y-16400714D01*
X13874286Y-16400714D01*
X13845714Y-16386429D01*
X13831428Y-16372143D01*
X13817143Y-16343571D01*
X13802857Y-16286429D01*
X13802857Y-16215000D01*
X13817143Y-16157857D01*
X13831428Y-16129286D01*
X13845714Y-16115000D01*
X13874286Y-16100714D01*
X14145714Y-16229286D02*
X14117143Y-16215000D01*
X14102857Y-16200714D01*
X14088571Y-16172143D01*
X14088571Y-16157857D01*
X14102857Y-16129286D01*
X14117143Y-16115000D01*
X14145714Y-16100714D01*
X14202857Y-16100714D01*
X14231428Y-16115000D01*
X14245714Y-16129286D01*
X14260000Y-16157857D01*
X14260000Y-16172143D01*
X14245714Y-16200714D01*
X14231428Y-16215000D01*
X14202857Y-16229286D01*
X14145714Y-16229286D01*
X14117143Y-16243571D01*
X14102857Y-16257857D01*
X14088571Y-16286429D01*
X14088571Y-16343571D01*
X14102857Y-16372143D01*
X14117143Y-16386429D01*
X14145714Y-16400714D01*
X14202857Y-16400714D01*
X14231428Y-16386429D01*
X14245714Y-16372143D01*
X14260000Y-16343571D01*
X14260000Y-16286429D01*
X14245714Y-16257857D01*
X14231428Y-16243571D01*
X14202857Y-16229286D01*
X14517143Y-16100714D02*
X14460000Y-16100714D01*
X14431428Y-16115000D01*
X14417143Y-16129286D01*
X14388571Y-16172143D01*
X14374286Y-16229286D01*
X14374286Y-16343571D01*
X14388571Y-16372143D01*
X14402857Y-16386429D01*
X14431428Y-16400714D01*
X14488571Y-16400714D01*
X14517143Y-16386429D01*
X14531428Y-16372143D01*
X14545714Y-16343571D01*
X14545714Y-16272143D01*
X14531428Y-16243571D01*
X14517143Y-16229286D01*
X14488571Y-16215000D01*
X14431428Y-16215000D01*
X14402857Y-16229286D01*
X14388571Y-16243571D01*
X14374286Y-16272143D01*
X14802857Y-16100714D02*
X14745714Y-16100714D01*
X14717143Y-16115000D01*
X14702857Y-16129286D01*
X14674286Y-16172143D01*
X14660000Y-16229286D01*
X14660000Y-16343571D01*
X14674286Y-16372143D01*
X14688571Y-16386429D01*
X14717143Y-16400714D01*
X14774286Y-16400714D01*
X14802857Y-16386429D01*
X14817143Y-16372143D01*
X14831428Y-16343571D01*
X14831428Y-16272143D01*
X14817143Y-16243571D01*
X14802857Y-16229286D01*
X14774286Y-16215000D01*
X14717143Y-16215000D01*
X14688571Y-16229286D01*
X14674286Y-16243571D01*
X14660000Y-16272143D01*
X14945714Y-16100714D02*
X14945714Y-16157857D01*
X15060000Y-16100714D02*
X15060000Y-16157857D01*
X15502857Y-16515000D02*
X15488571Y-16500714D01*
X15460000Y-16457857D01*
X15445714Y-16429286D01*
X15431428Y-16386429D01*
X15417143Y-16315000D01*
X15417143Y-16257857D01*
X15431428Y-16186429D01*
X15445714Y-16143571D01*
X15460000Y-16115000D01*
X15488571Y-16072143D01*
X15502857Y-16057857D01*
X15745714Y-16200714D02*
X15745714Y-16400714D01*
X15674286Y-16086429D02*
X15602857Y-16300714D01*
X15788571Y-16300714D01*
X16131428Y-16400714D02*
X16131428Y-16100714D01*
X16260000Y-16400714D02*
X16260000Y-16243571D01*
X16245714Y-16215000D01*
X16217143Y-16200714D01*
X16174286Y-16200714D01*
X16145714Y-16215000D01*
X16131428Y-16229286D01*
X16445714Y-16400714D02*
X16417143Y-16386429D01*
X16402857Y-16372143D01*
X16388571Y-16343571D01*
X16388571Y-16257857D01*
X16402857Y-16229286D01*
X16417143Y-16215000D01*
X16445714Y-16200714D01*
X16488571Y-16200714D01*
X16517143Y-16215000D01*
X16531428Y-16229286D01*
X16545714Y-16257857D01*
X16545714Y-16343571D01*
X16531428Y-16372143D01*
X16517143Y-16386429D01*
X16488571Y-16400714D01*
X16445714Y-16400714D01*
X16717143Y-16400714D02*
X16688571Y-16386429D01*
X16674286Y-16357857D01*
X16674286Y-16100714D01*
X16945714Y-16386429D02*
X16917143Y-16400714D01*
X16860000Y-16400714D01*
X16831428Y-16386429D01*
X16817143Y-16357857D01*
X16817143Y-16243571D01*
X16831428Y-16215000D01*
X16860000Y-16200714D01*
X16917143Y-16200714D01*
X16945714Y-16215000D01*
X16960000Y-16243571D01*
X16960000Y-16272143D01*
X16817143Y-16300714D01*
X17074286Y-16386429D02*
X17102857Y-16400714D01*
X17160000Y-16400714D01*
X17188571Y-16386429D01*
X17202857Y-16357857D01*
X17202857Y-16343571D01*
X17188571Y-16315000D01*
X17160000Y-16300714D01*
X17117143Y-16300714D01*
X17088571Y-16286429D01*
X17074286Y-16257857D01*
X17074286Y-16243571D01*
X17088571Y-16215000D01*
X17117143Y-16200714D01*
X17160000Y-16200714D01*
X17188571Y-16215000D01*
X17302857Y-16515000D02*
X17317143Y-16500714D01*
X17345714Y-16457857D01*
X17360000Y-16429286D01*
X17374286Y-16386429D01*
X17388571Y-16315000D01*
X17388571Y-16257857D01*
X17374286Y-16186429D01*
X17360000Y-16143571D01*
X17345714Y-16115000D01*
X17317143Y-16072143D01*
X17302857Y-16057857D01*
X17845714Y-16515000D02*
X17831428Y-16500714D01*
X17802857Y-16457857D01*
X17788571Y-16429286D01*
X17774286Y-16386429D01*
X17760000Y-16315000D01*
X17760000Y-16257857D01*
X17774286Y-16186429D01*
X17788571Y-16143571D01*
X17802857Y-16115000D01*
X17831428Y-16072143D01*
X17845714Y-16057857D01*
X17960000Y-16200714D02*
X17960000Y-16400714D01*
X17960000Y-16229286D02*
X17974286Y-16215000D01*
X18002857Y-16200714D01*
X18045714Y-16200714D01*
X18074286Y-16215000D01*
X18088571Y-16243571D01*
X18088571Y-16400714D01*
X18274286Y-16400714D02*
X18245714Y-16386429D01*
X18231428Y-16372143D01*
X18217143Y-16343571D01*
X18217143Y-16257857D01*
X18231428Y-16229286D01*
X18245714Y-16215000D01*
X18274286Y-16200714D01*
X18317143Y-16200714D01*
X18345714Y-16215000D01*
X18360000Y-16229286D01*
X18374286Y-16257857D01*
X18374286Y-16343571D01*
X18360000Y-16372143D01*
X18345714Y-16386429D01*
X18317143Y-16400714D01*
X18274286Y-16400714D01*
X18460000Y-16200714D02*
X18574286Y-16200714D01*
X18502857Y-16100714D02*
X18502857Y-16357857D01*
X18517143Y-16386429D01*
X18545714Y-16400714D01*
X18574286Y-16400714D01*
X18902857Y-16200714D02*
X18902857Y-16500714D01*
X18902857Y-16215000D02*
X18931428Y-16200714D01*
X18988571Y-16200714D01*
X19017143Y-16215000D01*
X19031428Y-16229286D01*
X19045714Y-16257857D01*
X19045714Y-16343571D01*
X19031428Y-16372143D01*
X19017143Y-16386429D01*
X18988571Y-16400714D01*
X18931428Y-16400714D01*
X18902857Y-16386429D01*
X19217143Y-16400714D02*
X19188571Y-16386429D01*
X19174286Y-16357857D01*
X19174286Y-16100714D01*
X19460000Y-16400714D02*
X19460000Y-16243571D01*
X19445714Y-16215000D01*
X19417143Y-16200714D01*
X19360000Y-16200714D01*
X19331428Y-16215000D01*
X19460000Y-16386429D02*
X19431428Y-16400714D01*
X19360000Y-16400714D01*
X19331428Y-16386429D01*
X19317143Y-16357857D01*
X19317143Y-16329286D01*
X19331428Y-16300714D01*
X19360000Y-16286429D01*
X19431428Y-16286429D01*
X19460000Y-16272143D01*
X19560000Y-16200714D02*
X19674286Y-16200714D01*
X19602857Y-16100714D02*
X19602857Y-16357857D01*
X19617143Y-16386429D01*
X19645714Y-16400714D01*
X19674286Y-16400714D01*
X19888571Y-16386429D02*
X19860000Y-16400714D01*
X19802857Y-16400714D01*
X19774286Y-16386429D01*
X19760000Y-16357857D01*
X19760000Y-16243571D01*
X19774286Y-16215000D01*
X19802857Y-16200714D01*
X19860000Y-16200714D01*
X19888571Y-16215000D01*
X19902857Y-16243571D01*
X19902857Y-16272143D01*
X19760000Y-16300714D01*
X20160000Y-16400714D02*
X20160000Y-16100714D01*
X20160000Y-16386429D02*
X20131428Y-16400714D01*
X20074286Y-16400714D01*
X20045714Y-16386429D01*
X20031428Y-16372143D01*
X20017143Y-16343571D01*
X20017143Y-16257857D01*
X20031428Y-16229286D01*
X20045714Y-16215000D01*
X20074286Y-16200714D01*
X20131428Y-16200714D01*
X20160000Y-16215000D01*
X20274286Y-16515000D02*
X20288571Y-16500714D01*
X20317143Y-16457857D01*
X20331428Y-16429286D01*
X20345714Y-16386429D01*
X20360000Y-16315000D01*
X20360000Y-16257857D01*
X20345714Y-16186429D01*
X20331428Y-16143571D01*
X20317143Y-16115000D01*
X20288571Y-16072143D01*
X20274286Y-16057857D01*
X10245000Y-16661000D02*
G75*
G03*
X10245000Y-16661000I-160000J0D01*
G01*
X10502857Y-16496714D02*
X10688571Y-16496714D01*
X10588571Y-16611000D01*
X10631428Y-16611000D01*
X10660000Y-16625286D01*
X10674286Y-16639571D01*
X10688571Y-16668143D01*
X10688571Y-16739571D01*
X10674286Y-16768143D01*
X10660000Y-16782429D01*
X10631428Y-16796714D01*
X10545714Y-16796714D01*
X10517143Y-16782429D01*
X10502857Y-16768143D01*
X10817143Y-16768143D02*
X10831428Y-16782429D01*
X10817143Y-16796714D01*
X10802857Y-16782429D01*
X10817143Y-16768143D01*
X10817143Y-16796714D01*
X10945714Y-16525286D02*
X10960000Y-16511000D01*
X10988571Y-16496714D01*
X11060000Y-16496714D01*
X11088571Y-16511000D01*
X11102857Y-16525286D01*
X11117143Y-16553857D01*
X11117143Y-16582429D01*
X11102857Y-16625286D01*
X10931428Y-16796714D01*
X11117143Y-16796714D01*
X11302857Y-16496714D02*
X11331428Y-16496714D01*
X11360000Y-16511000D01*
X11374286Y-16525286D01*
X11388571Y-16553857D01*
X11402857Y-16611000D01*
X11402857Y-16682429D01*
X11388571Y-16739571D01*
X11374286Y-16768143D01*
X11360000Y-16782429D01*
X11331428Y-16796714D01*
X11302857Y-16796714D01*
X11274286Y-16782429D01*
X11260000Y-16768143D01*
X11245714Y-16739571D01*
X11231428Y-16682429D01*
X11231428Y-16611000D01*
X11245714Y-16553857D01*
X11260000Y-16525286D01*
X11274286Y-16511000D01*
X11302857Y-16496714D01*
X11588571Y-16496714D02*
X11617143Y-16496714D01*
X11645714Y-16511000D01*
X11660000Y-16525286D01*
X11674286Y-16553857D01*
X11688571Y-16611000D01*
X11688571Y-16682429D01*
X11674286Y-16739571D01*
X11660000Y-16768143D01*
X11645714Y-16782429D01*
X11617143Y-16796714D01*
X11588571Y-16796714D01*
X11560000Y-16782429D01*
X11545714Y-16768143D01*
X11531428Y-16739571D01*
X11517143Y-16682429D01*
X11517143Y-16611000D01*
X11531428Y-16553857D01*
X11545714Y-16525286D01*
X11560000Y-16511000D01*
X11588571Y-16496714D01*
X11817143Y-16796714D02*
X11817143Y-16596714D01*
X11817143Y-16625286D02*
X11831428Y-16611000D01*
X11860000Y-16596714D01*
X11902857Y-16596714D01*
X11931428Y-16611000D01*
X11945714Y-16639571D01*
X11945714Y-16796714D01*
X11945714Y-16639571D02*
X11960000Y-16611000D01*
X11988571Y-16596714D01*
X12031428Y-16596714D01*
X12060000Y-16611000D01*
X12074286Y-16639571D01*
X12074286Y-16796714D01*
X12217143Y-16796714D02*
X12217143Y-16596714D01*
X12217143Y-16625286D02*
X12231428Y-16611000D01*
X12260000Y-16596714D01*
X12302857Y-16596714D01*
X12331428Y-16611000D01*
X12345714Y-16639571D01*
X12345714Y-16796714D01*
X12345714Y-16639571D02*
X12360000Y-16611000D01*
X12388571Y-16596714D01*
X12431428Y-16596714D01*
X12460000Y-16611000D01*
X12474286Y-16639571D01*
X12474286Y-16796714D01*
X13060000Y-16482429D02*
X12802857Y-16868143D01*
X13445714Y-16496714D02*
X13474286Y-16496714D01*
X13502857Y-16511000D01*
X13517143Y-16525286D01*
X13531428Y-16553857D01*
X13545714Y-16611000D01*
X13545714Y-16682429D01*
X13531428Y-16739571D01*
X13517143Y-16768143D01*
X13502857Y-16782429D01*
X13474286Y-16796714D01*
X13445714Y-16796714D01*
X13417143Y-16782429D01*
X13402857Y-16768143D01*
X13388571Y-16739571D01*
X13374286Y-16682429D01*
X13374286Y-16611000D01*
X13388571Y-16553857D01*
X13402857Y-16525286D01*
X13417143Y-16511000D01*
X13445714Y-16496714D01*
X13674286Y-16768143D02*
X13688571Y-16782429D01*
X13674286Y-16796714D01*
X13660000Y-16782429D01*
X13674286Y-16768143D01*
X13674286Y-16796714D01*
X13974286Y-16796714D02*
X13802857Y-16796714D01*
X13888571Y-16796714D02*
X13888571Y-16496714D01*
X13860000Y-16539571D01*
X13831428Y-16568143D01*
X13802857Y-16582429D01*
X14088571Y-16525286D02*
X14102857Y-16511000D01*
X14131428Y-16496714D01*
X14202857Y-16496714D01*
X14231428Y-16511000D01*
X14245714Y-16525286D01*
X14260000Y-16553857D01*
X14260000Y-16582429D01*
X14245714Y-16625286D01*
X14074286Y-16796714D01*
X14260000Y-16796714D01*
X14517143Y-16496714D02*
X14460000Y-16496714D01*
X14431428Y-16511000D01*
X14417143Y-16525286D01*
X14388571Y-16568143D01*
X14374286Y-16625286D01*
X14374286Y-16739571D01*
X14388571Y-16768143D01*
X14402857Y-16782429D01*
X14431428Y-16796714D01*
X14488571Y-16796714D01*
X14517143Y-16782429D01*
X14531428Y-16768143D01*
X14545714Y-16739571D01*
X14545714Y-16668143D01*
X14531428Y-16639571D01*
X14517143Y-16625286D01*
X14488571Y-16611000D01*
X14431428Y-16611000D01*
X14402857Y-16625286D01*
X14388571Y-16639571D01*
X14374286Y-16668143D01*
X14731428Y-16496714D02*
X14760000Y-16496714D01*
X14788571Y-16511000D01*
X14802857Y-16525286D01*
X14817143Y-16553857D01*
X14831428Y-16611000D01*
X14831428Y-16682429D01*
X14817143Y-16739571D01*
X14802857Y-16768143D01*
X14788571Y-16782429D01*
X14760000Y-16796714D01*
X14731428Y-16796714D01*
X14702857Y-16782429D01*
X14688571Y-16768143D01*
X14674286Y-16739571D01*
X14660000Y-16682429D01*
X14660000Y-16611000D01*
X14674286Y-16553857D01*
X14688571Y-16525286D01*
X14702857Y-16511000D01*
X14731428Y-16496714D01*
X14945714Y-16496714D02*
X14945714Y-16553857D01*
X15060000Y-16496714D02*
X15060000Y-16553857D01*
X15502857Y-16911000D02*
X15488571Y-16896714D01*
X15460000Y-16853857D01*
X15445714Y-16825286D01*
X15431428Y-16782429D01*
X15417143Y-16711000D01*
X15417143Y-16653857D01*
X15431428Y-16582429D01*
X15445714Y-16539571D01*
X15460000Y-16511000D01*
X15488571Y-16468143D01*
X15502857Y-16453857D01*
X15745714Y-16596714D02*
X15745714Y-16796714D01*
X15674286Y-16482429D02*
X15602857Y-16696714D01*
X15788571Y-16696714D01*
X16131428Y-16796714D02*
X16131428Y-16496714D01*
X16260000Y-16796714D02*
X16260000Y-16639571D01*
X16245714Y-16611000D01*
X16217143Y-16596714D01*
X16174286Y-16596714D01*
X16145714Y-16611000D01*
X16131428Y-16625286D01*
X16445714Y-16796714D02*
X16417143Y-16782429D01*
X16402857Y-16768143D01*
X16388571Y-16739571D01*
X16388571Y-16653857D01*
X16402857Y-16625286D01*
X16417143Y-16611000D01*
X16445714Y-16596714D01*
X16488571Y-16596714D01*
X16517143Y-16611000D01*
X16531428Y-16625286D01*
X16545714Y-16653857D01*
X16545714Y-16739571D01*
X16531428Y-16768143D01*
X16517143Y-16782429D01*
X16488571Y-16796714D01*
X16445714Y-16796714D01*
X16717143Y-16796714D02*
X16688571Y-16782429D01*
X16674286Y-16753857D01*
X16674286Y-16496714D01*
X16945714Y-16782429D02*
X16917143Y-16796714D01*
X16860000Y-16796714D01*
X16831428Y-16782429D01*
X16817143Y-16753857D01*
X16817143Y-16639571D01*
X16831428Y-16611000D01*
X16860000Y-16596714D01*
X16917143Y-16596714D01*
X16945714Y-16611000D01*
X16960000Y-16639571D01*
X16960000Y-16668143D01*
X16817143Y-16696714D01*
X17074286Y-16782429D02*
X17102857Y-16796714D01*
X17160000Y-16796714D01*
X17188571Y-16782429D01*
X17202857Y-16753857D01*
X17202857Y-16739571D01*
X17188571Y-16711000D01*
X17160000Y-16696714D01*
X17117143Y-16696714D01*
X17088571Y-16682429D01*
X17074286Y-16653857D01*
X17074286Y-16639571D01*
X17088571Y-16611000D01*
X17117143Y-16596714D01*
X17160000Y-16596714D01*
X17188571Y-16611000D01*
X17302857Y-16911000D02*
X17317143Y-16896714D01*
X17345714Y-16853857D01*
X17360000Y-16825286D01*
X17374286Y-16782429D01*
X17388571Y-16711000D01*
X17388571Y-16653857D01*
X17374286Y-16582429D01*
X17360000Y-16539571D01*
X17345714Y-16511000D01*
X17317143Y-16468143D01*
X17302857Y-16453857D01*
X17845714Y-16911000D02*
X17831428Y-16896714D01*
X17802857Y-16853857D01*
X17788571Y-16825286D01*
X17774286Y-16782429D01*
X17760000Y-16711000D01*
X17760000Y-16653857D01*
X17774286Y-16582429D01*
X17788571Y-16539571D01*
X17802857Y-16511000D01*
X17831428Y-16468143D01*
X17845714Y-16453857D01*
X17960000Y-16596714D02*
X17960000Y-16796714D01*
X17960000Y-16625286D02*
X17974286Y-16611000D01*
X18002857Y-16596714D01*
X18045714Y-16596714D01*
X18074286Y-16611000D01*
X18088571Y-16639571D01*
X18088571Y-16796714D01*
X18274286Y-16796714D02*
X18245714Y-16782429D01*
X18231428Y-16768143D01*
X18217143Y-16739571D01*
X18217143Y-16653857D01*
X18231428Y-16625286D01*
X18245714Y-16611000D01*
X18274286Y-16596714D01*
X18317143Y-16596714D01*
X18345714Y-16611000D01*
X18360000Y-16625286D01*
X18374286Y-16653857D01*
X18374286Y-16739571D01*
X18360000Y-16768143D01*
X18345714Y-16782429D01*
X18317143Y-16796714D01*
X18274286Y-16796714D01*
X18460000Y-16596714D02*
X18574286Y-16596714D01*
X18502857Y-16496714D02*
X18502857Y-16753857D01*
X18517143Y-16782429D01*
X18545714Y-16796714D01*
X18574286Y-16796714D01*
X18902857Y-16596714D02*
X18902857Y-16896714D01*
X18902857Y-16611000D02*
X18931428Y-16596714D01*
X18988571Y-16596714D01*
X19017143Y-16611000D01*
X19031428Y-16625286D01*
X19045714Y-16653857D01*
X19045714Y-16739571D01*
X19031428Y-16768143D01*
X19017143Y-16782429D01*
X18988571Y-16796714D01*
X18931428Y-16796714D01*
X18902857Y-16782429D01*
X19217143Y-16796714D02*
X19188571Y-16782429D01*
X19174286Y-16753857D01*
X19174286Y-16496714D01*
X19460000Y-16796714D02*
X19460000Y-16639571D01*
X19445714Y-16611000D01*
X19417143Y-16596714D01*
X19360000Y-16596714D01*
X19331428Y-16611000D01*
X19460000Y-16782429D02*
X19431428Y-16796714D01*
X19360000Y-16796714D01*
X19331428Y-16782429D01*
X19317143Y-16753857D01*
X19317143Y-16725286D01*
X19331428Y-16696714D01*
X19360000Y-16682429D01*
X19431428Y-16682429D01*
X19460000Y-16668143D01*
X19560000Y-16596714D02*
X19674286Y-16596714D01*
X19602857Y-16496714D02*
X19602857Y-16753857D01*
X19617143Y-16782429D01*
X19645714Y-16796714D01*
X19674286Y-16796714D01*
X19888571Y-16782429D02*
X19860000Y-16796714D01*
X19802857Y-16796714D01*
X19774286Y-16782429D01*
X19760000Y-16753857D01*
X19760000Y-16639571D01*
X19774286Y-16611000D01*
X19802857Y-16596714D01*
X19860000Y-16596714D01*
X19888571Y-16611000D01*
X19902857Y-16639571D01*
X19902857Y-16668143D01*
X19760000Y-16696714D01*
X20160000Y-16796714D02*
X20160000Y-16496714D01*
X20160000Y-16782429D02*
X20131428Y-16796714D01*
X20074286Y-16796714D01*
X20045714Y-16782429D01*
X20031428Y-16768143D01*
X20017143Y-16739571D01*
X20017143Y-16653857D01*
X20031428Y-16625286D01*
X20045714Y-16611000D01*
X20074286Y-16596714D01*
X20131428Y-16596714D01*
X20160000Y-16611000D01*
X20274286Y-16911000D02*
X20288571Y-16896714D01*
X20317143Y-16853857D01*
X20331428Y-16825286D01*
X20345714Y-16782429D01*
X20360000Y-16711000D01*
X20360000Y-16653857D01*
X20345714Y-16582429D01*
X20331428Y-16539571D01*
X20317143Y-16511000D01*
X20288571Y-16468143D01*
X20274286Y-16453857D01*
X9870000Y-16736000D02*
X9870000Y-17486000D01*
X9495000Y-17111000D02*
X10245000Y-17111000D01*
X10502857Y-16946714D02*
X10702857Y-16946714D01*
X10574286Y-17246714D01*
X10817143Y-17218143D02*
X10831428Y-17232429D01*
X10817143Y-17246714D01*
X10802857Y-17232429D01*
X10817143Y-17218143D01*
X10817143Y-17246714D01*
X11102857Y-16946714D02*
X10960000Y-16946714D01*
X10945714Y-17089572D01*
X10960000Y-17075286D01*
X10988571Y-17061000D01*
X11060000Y-17061000D01*
X11088571Y-17075286D01*
X11102857Y-17089572D01*
X11117143Y-17118143D01*
X11117143Y-17189572D01*
X11102857Y-17218143D01*
X11088571Y-17232429D01*
X11060000Y-17246714D01*
X10988571Y-17246714D01*
X10960000Y-17232429D01*
X10945714Y-17218143D01*
X11302857Y-16946714D02*
X11331428Y-16946714D01*
X11360000Y-16961000D01*
X11374286Y-16975286D01*
X11388571Y-17003857D01*
X11402857Y-17061000D01*
X11402857Y-17132429D01*
X11388571Y-17189572D01*
X11374286Y-17218143D01*
X11360000Y-17232429D01*
X11331428Y-17246714D01*
X11302857Y-17246714D01*
X11274286Y-17232429D01*
X11260000Y-17218143D01*
X11245714Y-17189572D01*
X11231428Y-17132429D01*
X11231428Y-17061000D01*
X11245714Y-17003857D01*
X11260000Y-16975286D01*
X11274286Y-16961000D01*
X11302857Y-16946714D01*
X11588571Y-16946714D02*
X11617143Y-16946714D01*
X11645714Y-16961000D01*
X11660000Y-16975286D01*
X11674286Y-17003857D01*
X11688571Y-17061000D01*
X11688571Y-17132429D01*
X11674286Y-17189572D01*
X11660000Y-17218143D01*
X11645714Y-17232429D01*
X11617143Y-17246714D01*
X11588571Y-17246714D01*
X11560000Y-17232429D01*
X11545714Y-17218143D01*
X11531428Y-17189572D01*
X11517143Y-17132429D01*
X11517143Y-17061000D01*
X11531428Y-17003857D01*
X11545714Y-16975286D01*
X11560000Y-16961000D01*
X11588571Y-16946714D01*
X11817143Y-17246714D02*
X11817143Y-17046714D01*
X11817143Y-17075286D02*
X11831428Y-17061000D01*
X11860000Y-17046714D01*
X11902857Y-17046714D01*
X11931428Y-17061000D01*
X11945714Y-17089572D01*
X11945714Y-17246714D01*
X11945714Y-17089572D02*
X11960000Y-17061000D01*
X11988571Y-17046714D01*
X12031428Y-17046714D01*
X12060000Y-17061000D01*
X12074286Y-17089572D01*
X12074286Y-17246714D01*
X12217143Y-17246714D02*
X12217143Y-17046714D01*
X12217143Y-17075286D02*
X12231428Y-17061000D01*
X12260000Y-17046714D01*
X12302857Y-17046714D01*
X12331428Y-17061000D01*
X12345714Y-17089572D01*
X12345714Y-17246714D01*
X12345714Y-17089572D02*
X12360000Y-17061000D01*
X12388571Y-17046714D01*
X12431428Y-17046714D01*
X12460000Y-17061000D01*
X12474286Y-17089572D01*
X12474286Y-17246714D01*
X13060000Y-16932429D02*
X12802857Y-17318143D01*
X13445714Y-16946714D02*
X13474286Y-16946714D01*
X13502857Y-16961000D01*
X13517143Y-16975286D01*
X13531428Y-17003857D01*
X13545714Y-17061000D01*
X13545714Y-17132429D01*
X13531428Y-17189572D01*
X13517143Y-17218143D01*
X13502857Y-17232429D01*
X13474286Y-17246714D01*
X13445714Y-17246714D01*
X13417143Y-17232429D01*
X13402857Y-17218143D01*
X13388571Y-17189572D01*
X13374286Y-17132429D01*
X13374286Y-17061000D01*
X13388571Y-17003857D01*
X13402857Y-16975286D01*
X13417143Y-16961000D01*
X13445714Y-16946714D01*
X13674286Y-17218143D02*
X13688571Y-17232429D01*
X13674286Y-17246714D01*
X13660000Y-17232429D01*
X13674286Y-17218143D01*
X13674286Y-17246714D01*
X13802857Y-16975286D02*
X13817143Y-16961000D01*
X13845714Y-16946714D01*
X13917143Y-16946714D01*
X13945714Y-16961000D01*
X13960000Y-16975286D01*
X13974286Y-17003857D01*
X13974286Y-17032429D01*
X13960000Y-17075286D01*
X13788571Y-17246714D01*
X13974286Y-17246714D01*
X14117143Y-17246714D02*
X14174286Y-17246714D01*
X14202857Y-17232429D01*
X14217143Y-17218143D01*
X14245714Y-17175286D01*
X14260000Y-17118143D01*
X14260000Y-17003857D01*
X14245714Y-16975286D01*
X14231428Y-16961000D01*
X14202857Y-16946714D01*
X14145714Y-16946714D01*
X14117143Y-16961000D01*
X14102857Y-16975286D01*
X14088571Y-17003857D01*
X14088571Y-17075286D01*
X14102857Y-17103857D01*
X14117143Y-17118143D01*
X14145714Y-17132429D01*
X14202857Y-17132429D01*
X14231428Y-17118143D01*
X14245714Y-17103857D01*
X14260000Y-17075286D01*
X14531428Y-16946714D02*
X14388571Y-16946714D01*
X14374286Y-17089572D01*
X14388571Y-17075286D01*
X14417143Y-17061000D01*
X14488571Y-17061000D01*
X14517143Y-17075286D01*
X14531428Y-17089572D01*
X14545714Y-17118143D01*
X14545714Y-17189572D01*
X14531428Y-17218143D01*
X14517143Y-17232429D01*
X14488571Y-17246714D01*
X14417143Y-17246714D01*
X14388571Y-17232429D01*
X14374286Y-17218143D01*
X14645714Y-16946714D02*
X14831428Y-16946714D01*
X14731428Y-17061000D01*
X14774286Y-17061000D01*
X14802857Y-17075286D01*
X14817143Y-17089572D01*
X14831428Y-17118143D01*
X14831428Y-17189572D01*
X14817143Y-17218143D01*
X14802857Y-17232429D01*
X14774286Y-17246714D01*
X14688571Y-17246714D01*
X14660000Y-17232429D01*
X14645714Y-17218143D01*
X14945714Y-16946714D02*
X14945714Y-17003857D01*
X15060000Y-16946714D02*
X15060000Y-17003857D01*
X15502857Y-17361000D02*
X15488571Y-17346714D01*
X15460000Y-17303857D01*
X15445714Y-17275286D01*
X15431428Y-17232429D01*
X15417143Y-17161000D01*
X15417143Y-17103857D01*
X15431428Y-17032429D01*
X15445714Y-16989572D01*
X15460000Y-16961000D01*
X15488571Y-16918143D01*
X15502857Y-16903857D01*
X15774286Y-17246714D02*
X15602857Y-17246714D01*
X15688571Y-17246714D02*
X15688571Y-16946714D01*
X15660000Y-16989572D01*
X15631428Y-17018143D01*
X15602857Y-17032429D01*
X16131428Y-17246714D02*
X16131428Y-16946714D01*
X16260000Y-17246714D02*
X16260000Y-17089572D01*
X16245714Y-17061000D01*
X16217143Y-17046714D01*
X16174286Y-17046714D01*
X16145714Y-17061000D01*
X16131428Y-17075286D01*
X16445714Y-17246714D02*
X16417143Y-17232429D01*
X16402857Y-17218143D01*
X16388571Y-17189572D01*
X16388571Y-17103857D01*
X16402857Y-17075286D01*
X16417143Y-17061000D01*
X16445714Y-17046714D01*
X16488571Y-17046714D01*
X16517143Y-17061000D01*
X16531428Y-17075286D01*
X16545714Y-17103857D01*
X16545714Y-17189572D01*
X16531428Y-17218143D01*
X16517143Y-17232429D01*
X16488571Y-17246714D01*
X16445714Y-17246714D01*
X16717143Y-17246714D02*
X16688571Y-17232429D01*
X16674286Y-17203857D01*
X16674286Y-16946714D01*
X16945714Y-17232429D02*
X16917143Y-17246714D01*
X16860000Y-17246714D01*
X16831428Y-17232429D01*
X16817143Y-17203857D01*
X16817143Y-17089572D01*
X16831428Y-17061000D01*
X16860000Y-17046714D01*
X16917143Y-17046714D01*
X16945714Y-17061000D01*
X16960000Y-17089572D01*
X16960000Y-17118143D01*
X16817143Y-17146714D01*
X17060000Y-17361000D02*
X17074286Y-17346714D01*
X17102857Y-17303857D01*
X17117143Y-17275286D01*
X17131428Y-17232429D01*
X17145714Y-17161000D01*
X17145714Y-17103857D01*
X17131428Y-17032429D01*
X17117143Y-16989572D01*
X17102857Y-16961000D01*
X17074286Y-16918143D01*
X17060000Y-16903857D01*
X17602857Y-17361000D02*
X17588571Y-17346714D01*
X17560000Y-17303857D01*
X17545714Y-17275286D01*
X17531428Y-17232429D01*
X17517143Y-17161000D01*
X17517143Y-17103857D01*
X17531428Y-17032429D01*
X17545714Y-16989572D01*
X17560000Y-16961000D01*
X17588571Y-16918143D01*
X17602857Y-16903857D01*
X17717143Y-17046714D02*
X17717143Y-17246714D01*
X17717143Y-17075286D02*
X17731428Y-17061000D01*
X17760000Y-17046714D01*
X17802857Y-17046714D01*
X17831428Y-17061000D01*
X17845714Y-17089572D01*
X17845714Y-17246714D01*
X18031428Y-17246714D02*
X18002857Y-17232429D01*
X17988571Y-17218143D01*
X17974286Y-17189572D01*
X17974286Y-17103857D01*
X17988571Y-17075286D01*
X18002857Y-17061000D01*
X18031428Y-17046714D01*
X18074286Y-17046714D01*
X18102857Y-17061000D01*
X18117143Y-17075286D01*
X18131428Y-17103857D01*
X18131428Y-17189572D01*
X18117143Y-17218143D01*
X18102857Y-17232429D01*
X18074286Y-17246714D01*
X18031428Y-17246714D01*
X18217143Y-17046714D02*
X18331428Y-17046714D01*
X18260000Y-16946714D02*
X18260000Y-17203857D01*
X18274286Y-17232429D01*
X18302857Y-17246714D01*
X18331428Y-17246714D01*
X18660000Y-17046714D02*
X18660000Y-17346714D01*
X18660000Y-17061000D02*
X18688571Y-17046714D01*
X18745714Y-17046714D01*
X18774286Y-17061000D01*
X18788571Y-17075286D01*
X18802857Y-17103857D01*
X18802857Y-17189572D01*
X18788571Y-17218143D01*
X18774286Y-17232429D01*
X18745714Y-17246714D01*
X18688571Y-17246714D01*
X18660000Y-17232429D01*
X18974286Y-17246714D02*
X18945714Y-17232429D01*
X18931428Y-17203857D01*
X18931428Y-16946714D01*
X19217143Y-17246714D02*
X19217143Y-17089572D01*
X19202857Y-17061000D01*
X19174286Y-17046714D01*
X19117143Y-17046714D01*
X19088571Y-17061000D01*
X19217143Y-17232429D02*
X19188571Y-17246714D01*
X19117143Y-17246714D01*
X19088571Y-17232429D01*
X19074286Y-17203857D01*
X19074286Y-17175286D01*
X19088571Y-17146714D01*
X19117143Y-17132429D01*
X19188571Y-17132429D01*
X19217143Y-17118143D01*
X19317143Y-17046714D02*
X19431428Y-17046714D01*
X19360000Y-16946714D02*
X19360000Y-17203857D01*
X19374286Y-17232429D01*
X19402857Y-17246714D01*
X19431428Y-17246714D01*
X19645714Y-17232429D02*
X19617143Y-17246714D01*
X19560000Y-17246714D01*
X19531428Y-17232429D01*
X19517143Y-17203857D01*
X19517143Y-17089572D01*
X19531428Y-17061000D01*
X19560000Y-17046714D01*
X19617143Y-17046714D01*
X19645714Y-17061000D01*
X19660000Y-17089572D01*
X19660000Y-17118143D01*
X19517143Y-17146714D01*
X19917143Y-17246714D02*
X19917143Y-16946714D01*
X19917143Y-17232429D02*
X19888571Y-17246714D01*
X19831428Y-17246714D01*
X19802857Y-17232429D01*
X19788571Y-17218143D01*
X19774286Y-17189572D01*
X19774286Y-17103857D01*
X19788571Y-17075286D01*
X19802857Y-17061000D01*
X19831428Y-17046714D01*
X19888571Y-17046714D01*
X19917143Y-17061000D01*
X20031428Y-17361000D02*
X20045714Y-17346714D01*
X20074286Y-17303857D01*
X20088571Y-17275286D01*
X20102857Y-17232429D01*
X20117143Y-17161000D01*
X20117143Y-17103857D01*
X20102857Y-17032429D01*
X20088571Y-16989572D01*
X20074286Y-16961000D01*
X20045714Y-16918143D01*
X20031428Y-16903857D01*
X10105879Y-18326879D02*
X10105879Y-17655121D01*
X9434121Y-17655121D01*
X9434121Y-18326879D01*
X10105879Y-18326879D01*
X10545714Y-18126714D02*
X10602857Y-18126714D01*
X10631428Y-18112429D01*
X10645714Y-18098143D01*
X10674286Y-18055286D01*
X10688571Y-17998143D01*
X10688571Y-17883857D01*
X10674286Y-17855286D01*
X10660000Y-17841000D01*
X10631428Y-17826714D01*
X10574286Y-17826714D01*
X10545714Y-17841000D01*
X10531428Y-17855286D01*
X10517143Y-17883857D01*
X10517143Y-17955286D01*
X10531428Y-17983857D01*
X10545714Y-17998143D01*
X10574286Y-18012429D01*
X10631428Y-18012429D01*
X10660000Y-17998143D01*
X10674286Y-17983857D01*
X10688571Y-17955286D01*
X10817143Y-18098143D02*
X10831428Y-18112429D01*
X10817143Y-18126714D01*
X10802857Y-18112429D01*
X10817143Y-18098143D01*
X10817143Y-18126714D01*
X11102857Y-17826714D02*
X10960000Y-17826714D01*
X10945714Y-17969572D01*
X10960000Y-17955286D01*
X10988571Y-17941000D01*
X11060000Y-17941000D01*
X11088571Y-17955286D01*
X11102857Y-17969572D01*
X11117143Y-17998143D01*
X11117143Y-18069572D01*
X11102857Y-18098143D01*
X11088571Y-18112429D01*
X11060000Y-18126714D01*
X10988571Y-18126714D01*
X10960000Y-18112429D01*
X10945714Y-18098143D01*
X11302857Y-17826714D02*
X11331428Y-17826714D01*
X11360000Y-17841000D01*
X11374286Y-17855286D01*
X11388571Y-17883857D01*
X11402857Y-17941000D01*
X11402857Y-18012429D01*
X11388571Y-18069572D01*
X11374286Y-18098143D01*
X11360000Y-18112429D01*
X11331428Y-18126714D01*
X11302857Y-18126714D01*
X11274286Y-18112429D01*
X11260000Y-18098143D01*
X11245714Y-18069572D01*
X11231428Y-18012429D01*
X11231428Y-17941000D01*
X11245714Y-17883857D01*
X11260000Y-17855286D01*
X11274286Y-17841000D01*
X11302857Y-17826714D01*
X11588571Y-17826714D02*
X11617143Y-17826714D01*
X11645714Y-17841000D01*
X11660000Y-17855286D01*
X11674286Y-17883857D01*
X11688571Y-17941000D01*
X11688571Y-18012429D01*
X11674286Y-18069572D01*
X11660000Y-18098143D01*
X11645714Y-18112429D01*
X11617143Y-18126714D01*
X11588571Y-18126714D01*
X11560000Y-18112429D01*
X11545714Y-18098143D01*
X11531428Y-18069572D01*
X11517143Y-18012429D01*
X11517143Y-17941000D01*
X11531428Y-17883857D01*
X11545714Y-17855286D01*
X11560000Y-17841000D01*
X11588571Y-17826714D01*
X11817143Y-18126714D02*
X11817143Y-17926714D01*
X11817143Y-17955286D02*
X11831428Y-17941000D01*
X11860000Y-17926714D01*
X11902857Y-17926714D01*
X11931428Y-17941000D01*
X11945714Y-17969572D01*
X11945714Y-18126714D01*
X11945714Y-17969572D02*
X11960000Y-17941000D01*
X11988571Y-17926714D01*
X12031428Y-17926714D01*
X12060000Y-17941000D01*
X12074286Y-17969572D01*
X12074286Y-18126714D01*
X12217143Y-18126714D02*
X12217143Y-17926714D01*
X12217143Y-17955286D02*
X12231428Y-17941000D01*
X12260000Y-17926714D01*
X12302857Y-17926714D01*
X12331428Y-17941000D01*
X12345714Y-17969572D01*
X12345714Y-18126714D01*
X12345714Y-17969572D02*
X12360000Y-17941000D01*
X12388571Y-17926714D01*
X12431428Y-17926714D01*
X12460000Y-17941000D01*
X12474286Y-17969572D01*
X12474286Y-18126714D01*
X13060000Y-17812429D02*
X12802857Y-18198143D01*
X13445714Y-17826714D02*
X13474286Y-17826714D01*
X13502857Y-17841000D01*
X13517143Y-17855286D01*
X13531428Y-17883857D01*
X13545714Y-17941000D01*
X13545714Y-18012429D01*
X13531428Y-18069572D01*
X13517143Y-18098143D01*
X13502857Y-18112429D01*
X13474286Y-18126714D01*
X13445714Y-18126714D01*
X13417143Y-18112429D01*
X13402857Y-18098143D01*
X13388571Y-18069572D01*
X13374286Y-18012429D01*
X13374286Y-17941000D01*
X13388571Y-17883857D01*
X13402857Y-17855286D01*
X13417143Y-17841000D01*
X13445714Y-17826714D01*
X13674286Y-18098143D02*
X13688571Y-18112429D01*
X13674286Y-18126714D01*
X13660000Y-18112429D01*
X13674286Y-18098143D01*
X13674286Y-18126714D01*
X13788571Y-17826714D02*
X13974286Y-17826714D01*
X13874286Y-17941000D01*
X13917143Y-17941000D01*
X13945714Y-17955286D01*
X13960000Y-17969572D01*
X13974286Y-17998143D01*
X13974286Y-18069572D01*
X13960000Y-18098143D01*
X13945714Y-18112429D01*
X13917143Y-18126714D01*
X13831428Y-18126714D01*
X13802857Y-18112429D01*
X13788571Y-18098143D01*
X14074286Y-17826714D02*
X14274286Y-17826714D01*
X14145714Y-18126714D01*
X14517143Y-17926714D02*
X14517143Y-18126714D01*
X14445714Y-17812429D02*
X14374286Y-18026714D01*
X14560000Y-18026714D01*
X14731428Y-17826714D02*
X14760000Y-17826714D01*
X14788571Y-17841000D01*
X14802857Y-17855286D01*
X14817143Y-17883857D01*
X14831428Y-17941000D01*
X14831428Y-18012429D01*
X14817143Y-18069572D01*
X14802857Y-18098143D01*
X14788571Y-18112429D01*
X14760000Y-18126714D01*
X14731428Y-18126714D01*
X14702857Y-18112429D01*
X14688571Y-18098143D01*
X14674286Y-18069572D01*
X14660000Y-18012429D01*
X14660000Y-17941000D01*
X14674286Y-17883857D01*
X14688571Y-17855286D01*
X14702857Y-17841000D01*
X14731428Y-17826714D01*
X14945714Y-17826714D02*
X14945714Y-17883857D01*
X15060000Y-17826714D02*
X15060000Y-17883857D01*
X15502857Y-18241000D02*
X15488571Y-18226714D01*
X15460000Y-18183857D01*
X15445714Y-18155286D01*
X15431428Y-18112429D01*
X15417143Y-18041000D01*
X15417143Y-17983857D01*
X15431428Y-17912429D01*
X15445714Y-17869572D01*
X15460000Y-17841000D01*
X15488571Y-17798143D01*
X15502857Y-17783857D01*
X15602857Y-17855286D02*
X15617143Y-17841000D01*
X15645714Y-17826714D01*
X15717143Y-17826714D01*
X15745714Y-17841000D01*
X15760000Y-17855286D01*
X15774286Y-17883857D01*
X15774286Y-17912429D01*
X15760000Y-17955286D01*
X15588571Y-18126714D01*
X15774286Y-18126714D01*
X16131428Y-18126714D02*
X16131428Y-17826714D01*
X16260000Y-18126714D02*
X16260000Y-17969572D01*
X16245714Y-17941000D01*
X16217143Y-17926714D01*
X16174286Y-17926714D01*
X16145714Y-17941000D01*
X16131428Y-17955286D01*
X16445714Y-18126714D02*
X16417143Y-18112429D01*
X16402857Y-18098143D01*
X16388571Y-18069572D01*
X16388571Y-17983857D01*
X16402857Y-17955286D01*
X16417143Y-17941000D01*
X16445714Y-17926714D01*
X16488571Y-17926714D01*
X16517143Y-17941000D01*
X16531428Y-17955286D01*
X16545714Y-17983857D01*
X16545714Y-18069572D01*
X16531428Y-18098143D01*
X16517143Y-18112429D01*
X16488571Y-18126714D01*
X16445714Y-18126714D01*
X16717143Y-18126714D02*
X16688571Y-18112429D01*
X16674286Y-18083857D01*
X16674286Y-17826714D01*
X16945714Y-18112429D02*
X16917143Y-18126714D01*
X16860000Y-18126714D01*
X16831428Y-18112429D01*
X16817143Y-18083857D01*
X16817143Y-17969572D01*
X16831428Y-17941000D01*
X16860000Y-17926714D01*
X16917143Y-17926714D01*
X16945714Y-17941000D01*
X16960000Y-17969572D01*
X16960000Y-17998143D01*
X16817143Y-18026714D01*
X17074286Y-18112429D02*
X17102857Y-18126714D01*
X17160000Y-18126714D01*
X17188571Y-18112429D01*
X17202857Y-18083857D01*
X17202857Y-18069572D01*
X17188571Y-18041000D01*
X17160000Y-18026714D01*
X17117143Y-18026714D01*
X17088571Y-18012429D01*
X17074286Y-17983857D01*
X17074286Y-17969572D01*
X17088571Y-17941000D01*
X17117143Y-17926714D01*
X17160000Y-17926714D01*
X17188571Y-17941000D01*
X17302857Y-18241000D02*
X17317143Y-18226714D01*
X17345714Y-18183857D01*
X17360000Y-18155286D01*
X17374286Y-18112429D01*
X17388571Y-18041000D01*
X17388571Y-17983857D01*
X17374286Y-17912429D01*
X17360000Y-17869572D01*
X17345714Y-17841000D01*
X17317143Y-17798143D01*
X17302857Y-17783857D01*
X17845714Y-18241000D02*
X17831428Y-18226714D01*
X17802857Y-18183857D01*
X17788571Y-18155286D01*
X17774286Y-18112429D01*
X17760000Y-18041000D01*
X17760000Y-17983857D01*
X17774286Y-17912429D01*
X17788571Y-17869572D01*
X17802857Y-17841000D01*
X17831428Y-17798143D01*
X17845714Y-17783857D01*
X17960000Y-17926714D02*
X17960000Y-18126714D01*
X17960000Y-17955286D02*
X17974286Y-17941000D01*
X18002857Y-17926714D01*
X18045714Y-17926714D01*
X18074286Y-17941000D01*
X18088571Y-17969572D01*
X18088571Y-18126714D01*
X18274286Y-18126714D02*
X18245714Y-18112429D01*
X18231428Y-18098143D01*
X18217143Y-18069572D01*
X18217143Y-17983857D01*
X18231428Y-17955286D01*
X18245714Y-17941000D01*
X18274286Y-17926714D01*
X18317143Y-17926714D01*
X18345714Y-17941000D01*
X18360000Y-17955286D01*
X18374286Y-17983857D01*
X18374286Y-18069572D01*
X18360000Y-18098143D01*
X18345714Y-18112429D01*
X18317143Y-18126714D01*
X18274286Y-18126714D01*
X18460000Y-17926714D02*
X18574286Y-17926714D01*
X18502857Y-17826714D02*
X18502857Y-18083857D01*
X18517143Y-18112429D01*
X18545714Y-18126714D01*
X18574286Y-18126714D01*
X18902857Y-17926714D02*
X18902857Y-18226714D01*
X18902857Y-17941000D02*
X18931428Y-17926714D01*
X18988571Y-17926714D01*
X19017143Y-17941000D01*
X19031428Y-17955286D01*
X19045714Y-17983857D01*
X19045714Y-18069572D01*
X19031428Y-18098143D01*
X19017143Y-18112429D01*
X18988571Y-18126714D01*
X18931428Y-18126714D01*
X18902857Y-18112429D01*
X19217143Y-18126714D02*
X19188571Y-18112429D01*
X19174286Y-18083857D01*
X19174286Y-17826714D01*
X19460000Y-18126714D02*
X19460000Y-17969572D01*
X19445714Y-17941000D01*
X19417143Y-17926714D01*
X19360000Y-17926714D01*
X19331428Y-17941000D01*
X19460000Y-18112429D02*
X19431428Y-18126714D01*
X19360000Y-18126714D01*
X19331428Y-18112429D01*
X19317143Y-18083857D01*
X19317143Y-18055286D01*
X19331428Y-18026714D01*
X19360000Y-18012429D01*
X19431428Y-18012429D01*
X19460000Y-17998143D01*
X19560000Y-17926714D02*
X19674286Y-17926714D01*
X19602857Y-17826714D02*
X19602857Y-18083857D01*
X19617143Y-18112429D01*
X19645714Y-18126714D01*
X19674286Y-18126714D01*
X19888571Y-18112429D02*
X19860000Y-18126714D01*
X19802857Y-18126714D01*
X19774286Y-18112429D01*
X19760000Y-18083857D01*
X19760000Y-17969572D01*
X19774286Y-17941000D01*
X19802857Y-17926714D01*
X19860000Y-17926714D01*
X19888571Y-17941000D01*
X19902857Y-17969572D01*
X19902857Y-17998143D01*
X19760000Y-18026714D01*
X20160000Y-18126714D02*
X20160000Y-17826714D01*
X20160000Y-18112429D02*
X20131428Y-18126714D01*
X20074286Y-18126714D01*
X20045714Y-18112429D01*
X20031428Y-18098143D01*
X20017143Y-18069572D01*
X20017143Y-17983857D01*
X20031428Y-17955286D01*
X20045714Y-17941000D01*
X20074286Y-17926714D01*
X20131428Y-17926714D01*
X20160000Y-17941000D01*
X20274286Y-18241000D02*
X20288571Y-18226714D01*
X20317143Y-18183857D01*
X20331428Y-18155286D01*
X20345714Y-18112429D01*
X20360000Y-18041000D01*
X20360000Y-17983857D01*
X20345714Y-17912429D01*
X20331428Y-17869572D01*
X20317143Y-17841000D01*
X20288571Y-17798143D01*
X20274286Y-17783857D01*
M02*
