  0
SECTION
  2
HEADER
  9
$ANGBASE
  50
0.0
  9
$ANGDIR
  70
1
  9
$MEASUREMENT
  70
1
  0
ENDSEC
  0
SECTION
  2
TABLES
  0
TABLE
  2
LTYPE
  70
4
  0
LTYPE
  5
40F
  2
CONTINUOUS
  70
0
  3
Solid line
  72
65
  73
0
  40
0.0
  0
LTYPE
  5
410
  2
DASHDOT
 70
0
  3
Dash Dot ____ _ ____ _
 72
65
 73
4
 40
2.0
 49
1.25
 49
-0.25
 49
0.25
 49
-0.25
  0
LTYPE
  5
411
  2
DASHED
 70
0
  3
Dashed __ __ __ __ __
 72
65
 73
2
 40
0.75
 49
0.5
 49
-0.25
  0
LTYPE
  5
43B
  2
DOTTED
 70
0
  3
Dotted .  .  .  .
 72
65
 73
2
 40
0.2
 49
0.0
 49
-0.2
  0
ENDTAB
  0
TABLE
  2
STYLE
  70
4
  0
STYLE
  2
KICAD
  70
0
  40
0
  41
1
  42
1
  50
0
  71
0
  3
isocp.shx
  0
STYLE
  2
KICADB
  70
0
  40
0
  41
1
  42
1
  50
0
  71
0
  3
isocp.shx
  0
STYLE
  2
KICADI
  70
0
  40
0
  41
1
  42
1
  50
15
  71
0
  3
isocp.shx
  0
STYLE
  2
KICADBI
  70
0
  40
0
  41
1
  42
1
  50
15
  71
0
  3
isocp.shx
  0
ENDTAB
  0
TABLE
  2
LAYER
  70
1
  0
LAYER
  2
BLACK
  70
0
  62
7
  6
CONTINUOUS
  0
ENDTAB
  0
ENDSEC
  0
SECTION
  2
ENTITIES
0
LINE
8
BLACK
6
CONTINUOUS
10
120.971
20
-141.392
11
121.171
21
-141.475
0
LINE
8
BLACK
6
CONTINUOUS
10
121.171
20
-141.475
11
121.351
21
-141.596
0
LINE
8
BLACK
6
CONTINUOUS
10
121.351
20
-141.596
11
121.504
21
-141.749
0
LINE
8
BLACK
6
CONTINUOUS
10
121.504
20
-141.749
11
121.625
21
-141.929
0
LINE
8
BLACK
6
CONTINUOUS
10
121.625
20
-141.929
11
121.708
21
-142.129
0
LINE
8
BLACK
6
CONTINUOUS
10
121.708
20
-142.129
11
121.75
21
-142.342
0
LINE
8
BLACK
6
CONTINUOUS
10
121.75
20
-142.342
11
121.75
21
-142.558
0
LINE
8
BLACK
6
CONTINUOUS
10
121.75
20
-142.558
11
121.708
21
-142.771
0
LINE
8
BLACK
6
CONTINUOUS
10
121.708
20
-142.771
11
121.625
21
-142.971
0
LINE
8
BLACK
6
CONTINUOUS
10
121.625
20
-142.971
11
121.504
21
-143.151
0
LINE
8
BLACK
6
CONTINUOUS
10
121.504
20
-143.151
11
121.351
21
-143.304
0
LINE
8
BLACK
6
CONTINUOUS
10
121.351
20
-143.304
11
121.171
21
-143.425
0
LINE
8
BLACK
6
CONTINUOUS
10
121.171
20
-143.425
11
120.971
21
-143.508
0
LINE
8
BLACK
6
CONTINUOUS
10
120.971
20
-143.508
11
120.758
21
-143.55
0
LINE
8
BLACK
6
CONTINUOUS
10
120.758
20
-143.55
11
120.542
21
-143.55
0
LINE
8
BLACK
6
CONTINUOUS
10
120.542
20
-143.55
11
120.329
21
-143.508
0
LINE
8
BLACK
6
CONTINUOUS
10
120.329
20
-143.508
11
120.129
21
-143.425
0
LINE
8
BLACK
6
CONTINUOUS
10
120.129
20
-143.425
11
119.949
21
-143.304
0
LINE
8
BLACK
6
CONTINUOUS
10
119.949
20
-143.304
11
119.796
21
-143.151
0
LINE
8
BLACK
6
CONTINUOUS
10
119.796
20
-143.151
11
119.675
21
-142.971
0
LINE
8
BLACK
6
CONTINUOUS
10
119.675
20
-142.971
11
119.592
21
-142.771
0
LINE
8
BLACK
6
CONTINUOUS
10
119.592
20
-142.771
11
119.55
21
-142.558
0
LINE
8
BLACK
6
CONTINUOUS
10
119.55
20
-142.558
11
119.55
21
-142.342
0
LINE
8
BLACK
6
CONTINUOUS
10
119.55
20
-142.342
11
119.592
21
-142.129
0
LINE
8
BLACK
6
CONTINUOUS
10
119.592
20
-142.129
11
119.675
21
-141.929
0
LINE
8
BLACK
6
CONTINUOUS
10
119.675
20
-141.929
11
119.796
21
-141.749
0
LINE
8
BLACK
6
CONTINUOUS
10
119.796
20
-141.749
11
119.949
21
-141.596
0
LINE
8
BLACK
6
CONTINUOUS
10
119.949
20
-141.596
11
120.129
21
-141.475
0
LINE
8
BLACK
6
CONTINUOUS
10
120.129
20
-141.475
11
120.329
21
-141.392
0
LINE
8
BLACK
6
CONTINUOUS
10
120.329
20
-141.392
11
120.542
21
-141.35
0
LINE
8
BLACK
6
CONTINUOUS
10
120.542
20
-141.35
11
120.758
21
-141.35
0
LINE
8
BLACK
6
CONTINUOUS
10
120.758
20
-141.35
11
120.971
21
-141.392
0
LINE
8
BLACK
6
CONTINUOUS
10
131.12
20
-141.561
11
131.288
21
-141.63
0
LINE
8
BLACK
6
CONTINUOUS
10
131.288
20
-141.63
11
131.44
21
-141.732
0
LINE
8
BLACK
6
CONTINUOUS
10
131.44
20
-141.732
11
131.568
21
-141.86
0
LINE
8
BLACK
6
CONTINUOUS
10
131.568
20
-141.86
11
131.67
21
-142.012
0
LINE
8
BLACK
6
CONTINUOUS
10
131.67
20
-142.012
11
131.739
21
-142.18
0
LINE
8
BLACK
6
CONTINUOUS
10
131.739
20
-142.18
11
131.775
21
-142.359
0
LINE
8
BLACK
6
CONTINUOUS
10
131.775
20
-142.359
11
131.775
21
-142.541
0
LINE
8
BLACK
6
CONTINUOUS
10
131.775
20
-142.541
11
131.739
21
-142.72
0
LINE
8
BLACK
6
CONTINUOUS
10
131.739
20
-142.72
11
131.67
21
-142.888
0
LINE
8
BLACK
6
CONTINUOUS
10
131.67
20
-142.888
11
131.568
21
-143.04
0
LINE
8
BLACK
6
CONTINUOUS
10
131.568
20
-143.04
11
131.44
21
-143.168
0
LINE
8
BLACK
6
CONTINUOUS
10
131.44
20
-143.168
11
131.288
21
-143.27
0
LINE
8
BLACK
6
CONTINUOUS
10
131.288
20
-143.27
11
131.12
21
-143.339
0
LINE
8
BLACK
6
CONTINUOUS
10
131.12
20
-143.339
11
130.941
21
-143.375
0
LINE
8
BLACK
6
CONTINUOUS
10
130.941
20
-143.375
11
130.759
21
-143.375
0
LINE
8
BLACK
6
CONTINUOUS
10
130.759
20
-143.375
11
130.58
21
-143.339
0
LINE
8
BLACK
6
CONTINUOUS
10
130.58
20
-143.339
11
130.412
21
-143.27
0
LINE
8
BLACK
6
CONTINUOUS
10
130.412
20
-143.27
11
130.26
21
-143.168
0
LINE
8
BLACK
6
CONTINUOUS
10
130.26
20
-143.168
11
130.132
21
-143.04
0
LINE
8
BLACK
6
CONTINUOUS
10
130.132
20
-143.04
11
130.03
21
-142.888
0
LINE
8
BLACK
6
CONTINUOUS
10
130.03
20
-142.888
11
129.961
21
-142.72
0
LINE
8
BLACK
6
CONTINUOUS
10
129.961
20
-142.72
11
129.925
21
-142.541
0
LINE
8
BLACK
6
CONTINUOUS
10
129.925
20
-142.541
11
129.925
21
-142.359
0
LINE
8
BLACK
6
CONTINUOUS
10
129.925
20
-142.359
11
129.961
21
-142.18
0
LINE
8
BLACK
6
CONTINUOUS
10
129.961
20
-142.18
11
130.03
21
-142.012
0
LINE
8
BLACK
6
CONTINUOUS
10
130.03
20
-142.012
11
130.132
21
-141.86
0
LINE
8
BLACK
6
CONTINUOUS
10
130.132
20
-141.86
11
130.26
21
-141.732
0
LINE
8
BLACK
6
CONTINUOUS
10
130.26
20
-141.732
11
130.412
21
-141.63
0
LINE
8
BLACK
6
CONTINUOUS
10
130.412
20
-141.63
11
130.58
21
-141.561
0
LINE
8
BLACK
6
CONTINUOUS
10
130.58
20
-141.561
11
130.759
21
-141.525
0
LINE
8
BLACK
6
CONTINUOUS
10
130.759
20
-141.525
11
130.941
21
-141.525
0
LINE
8
BLACK
6
CONTINUOUS
10
130.941
20
-141.525
11
131.12
21
-141.561
0
LINE
8
BLACK
6
CONTINUOUS
10
120.971
20
-137.192
11
121.171
21
-137.275
0
LINE
8
BLACK
6
CONTINUOUS
10
121.171
20
-137.275
11
121.351
21
-137.396
0
LINE
8
BLACK
6
CONTINUOUS
10
121.351
20
-137.396
11
121.504
21
-137.549
0
LINE
8
BLACK
6
CONTINUOUS
10
121.504
20
-137.549
11
121.625
21
-137.729
0
LINE
8
BLACK
6
CONTINUOUS
10
121.625
20
-137.729
11
121.708
21
-137.929
0
LINE
8
BLACK
6
CONTINUOUS
10
121.708
20
-137.929
11
121.75
21
-138.142
0
LINE
8
BLACK
6
CONTINUOUS
10
121.75
20
-138.142
11
121.75
21
-138.358
0
LINE
8
BLACK
6
CONTINUOUS
10
121.75
20
-138.358
11
121.708
21
-138.571
0
LINE
8
BLACK
6
CONTINUOUS
10
121.708
20
-138.571
11
121.625
21
-138.771
0
LINE
8
BLACK
6
CONTINUOUS
10
121.625
20
-138.771
11
121.504
21
-138.951
0
LINE
8
BLACK
6
CONTINUOUS
10
121.504
20
-138.951
11
121.351
21
-139.104
0
LINE
8
BLACK
6
CONTINUOUS
10
121.351
20
-139.104
11
121.171
21
-139.225
0
LINE
8
BLACK
6
CONTINUOUS
10
121.171
20
-139.225
11
120.971
21
-139.308
0
LINE
8
BLACK
6
CONTINUOUS
10
120.971
20
-139.308
11
120.758
21
-139.35
0
LINE
8
BLACK
6
CONTINUOUS
10
120.758
20
-139.35
11
120.542
21
-139.35
0
LINE
8
BLACK
6
CONTINUOUS
10
120.542
20
-139.35
11
120.329
21
-139.308
0
LINE
8
BLACK
6
CONTINUOUS
10
120.329
20
-139.308
11
120.129
21
-139.225
0
LINE
8
BLACK
6
CONTINUOUS
10
120.129
20
-139.225
11
119.949
21
-139.104
0
LINE
8
BLACK
6
CONTINUOUS
10
119.949
20
-139.104
11
119.796
21
-138.951
0
LINE
8
BLACK
6
CONTINUOUS
10
119.796
20
-138.951
11
119.675
21
-138.771
0
LINE
8
BLACK
6
CONTINUOUS
10
119.675
20
-138.771
11
119.592
21
-138.571
0
LINE
8
BLACK
6
CONTINUOUS
10
119.592
20
-138.571
11
119.55
21
-138.358
0
LINE
8
BLACK
6
CONTINUOUS
10
119.55
20
-138.358
11
119.55
21
-138.142
0
LINE
8
BLACK
6
CONTINUOUS
10
119.55
20
-138.142
11
119.592
21
-137.929
0
LINE
8
BLACK
6
CONTINUOUS
10
119.592
20
-137.929
11
119.675
21
-137.729
0
LINE
8
BLACK
6
CONTINUOUS
10
119.675
20
-137.729
11
119.796
21
-137.549
0
LINE
8
BLACK
6
CONTINUOUS
10
119.796
20
-137.549
11
119.949
21
-137.396
0
LINE
8
BLACK
6
CONTINUOUS
10
119.949
20
-137.396
11
120.129
21
-137.275
0
LINE
8
BLACK
6
CONTINUOUS
10
120.129
20
-137.275
11
120.329
21
-137.192
0
LINE
8
BLACK
6
CONTINUOUS
10
120.329
20
-137.192
11
120.542
21
-137.15
0
LINE
8
BLACK
6
CONTINUOUS
10
120.542
20
-137.15
11
120.758
21
-137.15
0
LINE
8
BLACK
6
CONTINUOUS
10
120.758
20
-137.15
11
120.971
21
-137.192
0
LINE
8
BLACK
6
CONTINUOUS
10
131.12
20
-137.361
11
131.288
21
-137.43
0
LINE
8
BLACK
6
CONTINUOUS
10
131.288
20
-137.43
11
131.44
21
-137.532
0
LINE
8
BLACK
6
CONTINUOUS
10
131.44
20
-137.532
11
131.568
21
-137.66
0
LINE
8
BLACK
6
CONTINUOUS
10
131.568
20
-137.66
11
131.67
21
-137.812
0
LINE
8
BLACK
6
CONTINUOUS
10
131.67
20
-137.812
11
131.739
21
-137.98
0
LINE
8
BLACK
6
CONTINUOUS
10
131.739
20
-137.98
11
131.775
21
-138.159
0
LINE
8
BLACK
6
CONTINUOUS
10
131.775
20
-138.159
11
131.775
21
-138.341
0
LINE
8
BLACK
6
CONTINUOUS
10
131.775
20
-138.341
11
131.739
21
-138.52
0
LINE
8
BLACK
6
CONTINUOUS
10
131.739
20
-138.52
11
131.67
21
-138.688
0
LINE
8
BLACK
6
CONTINUOUS
10
131.67
20
-138.688
11
131.568
21
-138.84
0
LINE
8
BLACK
6
CONTINUOUS
10
131.568
20
-138.84
11
131.44
21
-138.968
0
LINE
8
BLACK
6
CONTINUOUS
10
131.44
20
-138.968
11
131.288
21
-139.07
0
LINE
8
BLACK
6
CONTINUOUS
10
131.288
20
-139.07
11
131.12
21
-139.139
0
LINE
8
BLACK
6
CONTINUOUS
10
131.12
20
-139.139
11
130.941
21
-139.175
0
LINE
8
BLACK
6
CONTINUOUS
10
130.941
20
-139.175
11
130.759
21
-139.175
0
LINE
8
BLACK
6
CONTINUOUS
10
130.759
20
-139.175
11
130.58
21
-139.139
0
LINE
8
BLACK
6
CONTINUOUS
10
130.58
20
-139.139
11
130.412
21
-139.07
0
LINE
8
BLACK
6
CONTINUOUS
10
130.412
20
-139.07
11
130.26
21
-138.968
0
LINE
8
BLACK
6
CONTINUOUS
10
130.26
20
-138.968
11
130.132
21
-138.84
0
LINE
8
BLACK
6
CONTINUOUS
10
130.132
20
-138.84
11
130.03
21
-138.688
0
LINE
8
BLACK
6
CONTINUOUS
10
130.03
20
-138.688
11
129.961
21
-138.52
0
LINE
8
BLACK
6
CONTINUOUS
10
129.961
20
-138.52
11
129.925
21
-138.341
0
LINE
8
BLACK
6
CONTINUOUS
10
129.925
20
-138.341
11
129.925
21
-138.159
0
LINE
8
BLACK
6
CONTINUOUS
10
129.925
20
-138.159
11
129.961
21
-137.98
0
LINE
8
BLACK
6
CONTINUOUS
10
129.961
20
-137.98
11
130.03
21
-137.812
0
LINE
8
BLACK
6
CONTINUOUS
10
130.03
20
-137.812
11
130.132
21
-137.66
0
LINE
8
BLACK
6
CONTINUOUS
10
130.132
20
-137.66
11
130.26
21
-137.532
0
LINE
8
BLACK
6
CONTINUOUS
10
130.26
20
-137.532
11
130.412
21
-137.43
0
LINE
8
BLACK
6
CONTINUOUS
10
130.412
20
-137.43
11
130.58
21
-137.361
0
LINE
8
BLACK
6
CONTINUOUS
10
130.58
20
-137.361
11
130.759
21
-137.325
0
LINE
8
BLACK
6
CONTINUOUS
10
130.759
20
-137.325
11
130.941
21
-137.325
0
LINE
8
BLACK
6
CONTINUOUS
10
130.941
20
-137.325
11
131.12
21
-137.361
0
LINE
8
BLACK
6
CONTINUOUS
10
178.173
20
-136.548
11
178.328
21
-136.612
0
LINE
8
BLACK
6
CONTINUOUS
10
178.328
20
-136.612
11
178.467
21
-136.705
0
LINE
8
BLACK
6
CONTINUOUS
10
178.467
20
-136.705
11
178.585
21
-136.823
0
LINE
8
BLACK
6
CONTINUOUS
10
178.585
20
-136.823
11
178.678
21
-136.962
0
LINE
8
BLACK
6
CONTINUOUS
10
178.678
20
-136.962
11
178.742
21
-137.117
0
LINE
8
BLACK
6
CONTINUOUS
10
178.742
20
-137.117
11
178.775
21
-137.281
0
LINE
8
BLACK
6
CONTINUOUS
10
178.775
20
-137.281
11
178.775
21
-137.449
0
LINE
8
BLACK
6
CONTINUOUS
10
178.775
20
-137.449
11
178.742
21
-137.613
0
LINE
8
BLACK
6
CONTINUOUS
10
178.742
20
-137.613
11
178.678
21
-137.768
0
LINE
8
BLACK
6
CONTINUOUS
10
178.678
20
-137.768
11
178.585
21
-137.907
0
LINE
8
BLACK
6
CONTINUOUS
10
178.585
20
-137.907
11
178.467
21
-138.025
0
LINE
8
BLACK
6
CONTINUOUS
10
178.467
20
-138.025
11
178.328
21
-138.118
0
LINE
8
BLACK
6
CONTINUOUS
10
178.328
20
-138.118
11
178.173
21
-138.182
0
LINE
8
BLACK
6
CONTINUOUS
10
178.173
20
-138.182
11
178.009
21
-138.215
0
LINE
8
BLACK
6
CONTINUOUS
10
178.009
20
-138.215
11
177.841
21
-138.215
0
LINE
8
BLACK
6
CONTINUOUS
10
177.841
20
-138.215
11
177.677
21
-138.182
0
LINE
8
BLACK
6
CONTINUOUS
10
177.677
20
-138.182
11
177.522
21
-138.118
0
LINE
8
BLACK
6
CONTINUOUS
10
177.522
20
-138.118
11
177.383
21
-138.025
0
LINE
8
BLACK
6
CONTINUOUS
10
177.383
20
-138.025
11
177.265
21
-137.907
0
LINE
8
BLACK
6
CONTINUOUS
10
177.265
20
-137.907
11
177.172
21
-137.768
0
LINE
8
BLACK
6
CONTINUOUS
10
177.172
20
-137.768
11
177.108
21
-137.613
0
LINE
8
BLACK
6
CONTINUOUS
10
177.108
20
-137.613
11
177.075
21
-137.449
0
LINE
8
BLACK
6
CONTINUOUS
10
177.075
20
-137.449
11
177.075
21
-137.281
0
LINE
8
BLACK
6
CONTINUOUS
10
177.075
20
-137.281
11
177.108
21
-137.117
0
LINE
8
BLACK
6
CONTINUOUS
10
177.108
20
-137.117
11
177.172
21
-136.962
0
LINE
8
BLACK
6
CONTINUOUS
10
177.172
20
-136.962
11
177.265
21
-136.823
0
LINE
8
BLACK
6
CONTINUOUS
10
177.265
20
-136.823
11
177.383
21
-136.705
0
LINE
8
BLACK
6
CONTINUOUS
10
177.383
20
-136.705
11
177.522
21
-136.612
0
LINE
8
BLACK
6
CONTINUOUS
10
177.522
20
-136.612
11
177.677
21
-136.548
0
LINE
8
BLACK
6
CONTINUOUS
10
177.677
20
-136.548
11
177.841
21
-136.515
0
LINE
8
BLACK
6
CONTINUOUS
10
177.841
20
-136.515
11
178.009
21
-136.515
0
LINE
8
BLACK
6
CONTINUOUS
10
178.009
20
-136.515
11
178.173
21
-136.548
0
LINE
8
BLACK
6
CONTINUOUS
10
178.775
20
-135.675
11
177.075
21
-135.675
0
LINE
8
BLACK
6
CONTINUOUS
10
177.075
20
-135.675
11
177.075
21
-133.975
0
LINE
8
BLACK
6
CONTINUOUS
10
177.075
20
-133.975
11
178.775
21
-133.975
0
LINE
8
BLACK
6
CONTINUOUS
10
178.775
20
-133.975
11
178.775
21
-135.675
0
LINE
8
BLACK
6
CONTINUOUS
10
120.971
20
-132.992
11
121.171
21
-133.075
0
LINE
8
BLACK
6
CONTINUOUS
10
121.171
20
-133.075
11
121.351
21
-133.196
0
LINE
8
BLACK
6
CONTINUOUS
10
121.351
20
-133.196
11
121.504
21
-133.349
0
LINE
8
BLACK
6
CONTINUOUS
10
121.504
20
-133.349
11
121.625
21
-133.529
0
LINE
8
BLACK
6
CONTINUOUS
10
121.625
20
-133.529
11
121.708
21
-133.729
0
LINE
8
BLACK
6
CONTINUOUS
10
121.708
20
-133.729
11
121.75
21
-133.942
0
LINE
8
BLACK
6
CONTINUOUS
10
121.75
20
-133.942
11
121.75
21
-134.158
0
LINE
8
BLACK
6
CONTINUOUS
10
121.75
20
-134.158
11
121.708
21
-134.371
0
LINE
8
BLACK
6
CONTINUOUS
10
121.708
20
-134.371
11
121.625
21
-134.571
0
LINE
8
BLACK
6
CONTINUOUS
10
121.625
20
-134.571
11
121.504
21
-134.751
0
LINE
8
BLACK
6
CONTINUOUS
10
121.504
20
-134.751
11
121.351
21
-134.904
0
LINE
8
BLACK
6
CONTINUOUS
10
121.351
20
-134.904
11
121.171
21
-135.025
0
LINE
8
BLACK
6
CONTINUOUS
10
121.171
20
-135.025
11
120.971
21
-135.108
0
LINE
8
BLACK
6
CONTINUOUS
10
120.971
20
-135.108
11
120.758
21
-135.15
0
LINE
8
BLACK
6
CONTINUOUS
10
120.758
20
-135.15
11
120.542
21
-135.15
0
LINE
8
BLACK
6
CONTINUOUS
10
120.542
20
-135.15
11
120.329
21
-135.108
0
LINE
8
BLACK
6
CONTINUOUS
10
120.329
20
-135.108
11
120.129
21
-135.025
0
LINE
8
BLACK
6
CONTINUOUS
10
120.129
20
-135.025
11
119.949
21
-134.904
0
LINE
8
BLACK
6
CONTINUOUS
10
119.949
20
-134.904
11
119.796
21
-134.751
0
LINE
8
BLACK
6
CONTINUOUS
10
119.796
20
-134.751
11
119.675
21
-134.571
0
LINE
8
BLACK
6
CONTINUOUS
10
119.675
20
-134.571
11
119.592
21
-134.371
0
LINE
8
BLACK
6
CONTINUOUS
10
119.592
20
-134.371
11
119.55
21
-134.158
0
LINE
8
BLACK
6
CONTINUOUS
10
119.55
20
-134.158
11
119.55
21
-133.942
0
LINE
8
BLACK
6
CONTINUOUS
10
119.55
20
-133.942
11
119.592
21
-133.729
0
LINE
8
BLACK
6
CONTINUOUS
10
119.592
20
-133.729
11
119.675
21
-133.529
0
LINE
8
BLACK
6
CONTINUOUS
10
119.675
20
-133.529
11
119.796
21
-133.349
0
LINE
8
BLACK
6
CONTINUOUS
10
119.796
20
-133.349
11
119.949
21
-133.196
0
LINE
8
BLACK
6
CONTINUOUS
10
119.949
20
-133.196
11
120.129
21
-133.075
0
LINE
8
BLACK
6
CONTINUOUS
10
120.129
20
-133.075
11
120.329
21
-132.992
0
LINE
8
BLACK
6
CONTINUOUS
10
120.329
20
-132.992
11
120.542
21
-132.95
0
LINE
8
BLACK
6
CONTINUOUS
10
120.542
20
-132.95
11
120.758
21
-132.95
0
LINE
8
BLACK
6
CONTINUOUS
10
120.758
20
-132.95
11
120.971
21
-132.992
0
LINE
8
BLACK
6
CONTINUOUS
10
131.12
20
-133.161
11
131.288
21
-133.23
0
LINE
8
BLACK
6
CONTINUOUS
10
131.288
20
-133.23
11
131.44
21
-133.332
0
LINE
8
BLACK
6
CONTINUOUS
10
131.44
20
-133.332
11
131.568
21
-133.46
0
LINE
8
BLACK
6
CONTINUOUS
10
131.568
20
-133.46
11
131.67
21
-133.612
0
LINE
8
BLACK
6
CONTINUOUS
10
131.67
20
-133.612
11
131.739
21
-133.78
0
LINE
8
BLACK
6
CONTINUOUS
10
131.739
20
-133.78
11
131.775
21
-133.959
0
LINE
8
BLACK
6
CONTINUOUS
10
131.775
20
-133.959
11
131.775
21
-134.141
0
LINE
8
BLACK
6
CONTINUOUS
10
131.775
20
-134.141
11
131.739
21
-134.32
0
LINE
8
BLACK
6
CONTINUOUS
10
131.739
20
-134.32
11
131.67
21
-134.488
0
LINE
8
BLACK
6
CONTINUOUS
10
131.67
20
-134.488
11
131.568
21
-134.64
0
LINE
8
BLACK
6
CONTINUOUS
10
131.568
20
-134.64
11
131.44
21
-134.768
0
LINE
8
BLACK
6
CONTINUOUS
10
131.44
20
-134.768
11
131.288
21
-134.87
0
LINE
8
BLACK
6
CONTINUOUS
10
131.288
20
-134.87
11
131.12
21
-134.939
0
LINE
8
BLACK
6
CONTINUOUS
10
131.12
20
-134.939
11
130.941
21
-134.975
0
LINE
8
BLACK
6
CONTINUOUS
10
130.941
20
-134.975
11
130.759
21
-134.975
0
LINE
8
BLACK
6
CONTINUOUS
10
130.759
20
-134.975
11
130.58
21
-134.939
0
LINE
8
BLACK
6
CONTINUOUS
10
130.58
20
-134.939
11
130.412
21
-134.87
0
LINE
8
BLACK
6
CONTINUOUS
10
130.412
20
-134.87
11
130.26
21
-134.768
0
LINE
8
BLACK
6
CONTINUOUS
10
130.26
20
-134.768
11
130.132
21
-134.64
0
LINE
8
BLACK
6
CONTINUOUS
10
130.132
20
-134.64
11
130.03
21
-134.488
0
LINE
8
BLACK
6
CONTINUOUS
10
130.03
20
-134.488
11
129.961
21
-134.32
0
LINE
8
BLACK
6
CONTINUOUS
10
129.961
20
-134.32
11
129.925
21
-134.141
0
LINE
8
BLACK
6
CONTINUOUS
10
129.925
20
-134.141
11
129.925
21
-133.959
0
LINE
8
BLACK
6
CONTINUOUS
10
129.925
20
-133.959
11
129.961
21
-133.78
0
LINE
8
BLACK
6
CONTINUOUS
10
129.961
20
-133.78
11
130.03
21
-133.612
0
LINE
8
BLACK
6
CONTINUOUS
10
130.03
20
-133.612
11
130.132
21
-133.46
0
LINE
8
BLACK
6
CONTINUOUS
10
130.132
20
-133.46
11
130.26
21
-133.332
0
LINE
8
BLACK
6
CONTINUOUS
10
130.26
20
-133.332
11
130.412
21
-133.23
0
LINE
8
BLACK
6
CONTINUOUS
10
130.412
20
-133.23
11
130.58
21
-133.161
0
LINE
8
BLACK
6
CONTINUOUS
10
130.58
20
-133.161
11
130.759
21
-133.125
0
LINE
8
BLACK
6
CONTINUOUS
10
130.759
20
-133.125
11
130.941
21
-133.125
0
LINE
8
BLACK
6
CONTINUOUS
10
130.941
20
-133.125
11
131.12
21
-133.161
0
LINE
8
BLACK
6
CONTINUOUS
10
120.971
20
-128.792
11
121.171
21
-128.875
0
LINE
8
BLACK
6
CONTINUOUS
10
121.171
20
-128.875
11
121.351
21
-128.996
0
LINE
8
BLACK
6
CONTINUOUS
10
121.351
20
-128.996
11
121.504
21
-129.149
0
LINE
8
BLACK
6
CONTINUOUS
10
121.504
20
-129.149
11
121.625
21
-129.329
0
LINE
8
BLACK
6
CONTINUOUS
10
121.625
20
-129.329
11
121.708
21
-129.529
0
LINE
8
BLACK
6
CONTINUOUS
10
121.708
20
-129.529
11
121.75
21
-129.742
0
LINE
8
BLACK
6
CONTINUOUS
10
121.75
20
-129.742
11
121.75
21
-129.958
0
LINE
8
BLACK
6
CONTINUOUS
10
121.75
20
-129.958
11
121.708
21
-130.171
0
LINE
8
BLACK
6
CONTINUOUS
10
121.708
20
-130.171
11
121.625
21
-130.371
0
LINE
8
BLACK
6
CONTINUOUS
10
121.625
20
-130.371
11
121.504
21
-130.551
0
LINE
8
BLACK
6
CONTINUOUS
10
121.504
20
-130.551
11
121.351
21
-130.704
0
LINE
8
BLACK
6
CONTINUOUS
10
121.351
20
-130.704
11
121.171
21
-130.825
0
LINE
8
BLACK
6
CONTINUOUS
10
121.171
20
-130.825
11
120.971
21
-130.908
0
LINE
8
BLACK
6
CONTINUOUS
10
120.971
20
-130.908
11
120.758
21
-130.95
0
LINE
8
BLACK
6
CONTINUOUS
10
120.758
20
-130.95
11
120.542
21
-130.95
0
LINE
8
BLACK
6
CONTINUOUS
10
120.542
20
-130.95
11
120.329
21
-130.908
0
LINE
8
BLACK
6
CONTINUOUS
10
120.329
20
-130.908
11
120.129
21
-130.825
0
LINE
8
BLACK
6
CONTINUOUS
10
120.129
20
-130.825
11
119.949
21
-130.704
0
LINE
8
BLACK
6
CONTINUOUS
10
119.949
20
-130.704
11
119.796
21
-130.551
0
LINE
8
BLACK
6
CONTINUOUS
10
119.796
20
-130.551
11
119.675
21
-130.371
0
LINE
8
BLACK
6
CONTINUOUS
10
119.675
20
-130.371
11
119.592
21
-130.171
0
LINE
8
BLACK
6
CONTINUOUS
10
119.592
20
-130.171
11
119.55
21
-129.958
0
LINE
8
BLACK
6
CONTINUOUS
10
119.55
20
-129.958
11
119.55
21
-129.742
0
LINE
8
BLACK
6
CONTINUOUS
10
119.55
20
-129.742
11
119.592
21
-129.529
0
LINE
8
BLACK
6
CONTINUOUS
10
119.592
20
-129.529
11
119.675
21
-129.329
0
LINE
8
BLACK
6
CONTINUOUS
10
119.675
20
-129.329
11
119.796
21
-129.149
0
LINE
8
BLACK
6
CONTINUOUS
10
119.796
20
-129.149
11
119.949
21
-128.996
0
LINE
8
BLACK
6
CONTINUOUS
10
119.949
20
-128.996
11
120.129
21
-128.875
0
LINE
8
BLACK
6
CONTINUOUS
10
120.129
20
-128.875
11
120.329
21
-128.792
0
LINE
8
BLACK
6
CONTINUOUS
10
120.329
20
-128.792
11
120.542
21
-128.75
0
LINE
8
BLACK
6
CONTINUOUS
10
120.542
20
-128.75
11
120.758
21
-128.75
0
LINE
8
BLACK
6
CONTINUOUS
10
120.758
20
-128.75
11
120.971
21
-128.792
0
LINE
8
BLACK
6
CONTINUOUS
10
131.574
20
-128.93
11
131.621
21
-128.944
0
LINE
8
BLACK
6
CONTINUOUS
10
131.621
20
-128.944
11
131.664
21
-128.967
0
LINE
8
BLACK
6
CONTINUOUS
10
131.664
20
-128.967
11
131.702
21
-128.998
0
LINE
8
BLACK
6
CONTINUOUS
10
131.702
20
-128.998
11
131.733
21
-129.036
0
LINE
8
BLACK
6
CONTINUOUS
10
131.733
20
-129.036
11
131.756
21
-129.079
0
LINE
8
BLACK
6
CONTINUOUS
10
131.756
20
-129.079
11
131.77
21
-129.126
0
LINE
8
BLACK
6
CONTINUOUS
10
131.77
20
-129.126
11
131.775
21
-129.175
0
LINE
8
BLACK
6
CONTINUOUS
10
131.775
20
-129.175
11
131.775
21
-130.525
0
LINE
8
BLACK
6
CONTINUOUS
10
131.775
20
-130.525
11
131.77
21
-130.574
0
LINE
8
BLACK
6
CONTINUOUS
10
131.77
20
-130.574
11
131.756
21
-130.621
0
LINE
8
BLACK
6
CONTINUOUS
10
131.756
20
-130.621
11
131.733
21
-130.664
0
LINE
8
BLACK
6
CONTINUOUS
10
131.733
20
-130.664
11
131.702
21
-130.702
0
LINE
8
BLACK
6
CONTINUOUS
10
131.702
20
-130.702
11
131.664
21
-130.733
0
LINE
8
BLACK
6
CONTINUOUS
10
131.664
20
-130.733
11
131.621
21
-130.756
0
LINE
8
BLACK
6
CONTINUOUS
10
131.621
20
-130.756
11
131.574
21
-130.77
0
LINE
8
BLACK
6
CONTINUOUS
10
131.574
20
-130.77
11
131.525
21
-130.775
0
LINE
8
BLACK
6
CONTINUOUS
10
131.525
20
-130.775
11
130.175
21
-130.775
0
LINE
8
BLACK
6
CONTINUOUS
10
130.175
20
-130.775
11
130.126
21
-130.77
0
LINE
8
BLACK
6
CONTINUOUS
10
130.126
20
-130.77
11
130.079
21
-130.756
0
LINE
8
BLACK
6
CONTINUOUS
10
130.079
20
-130.756
11
130.036
21
-130.733
0
LINE
8
BLACK
6
CONTINUOUS
10
130.036
20
-130.733
11
129.998
21
-130.702
0
LINE
8
BLACK
6
CONTINUOUS
10
129.998
20
-130.702
11
129.967
21
-130.664
0
LINE
8
BLACK
6
CONTINUOUS
10
129.967
20
-130.664
11
129.944
21
-130.621
0
LINE
8
BLACK
6
CONTINUOUS
10
129.944
20
-130.621
11
129.93
21
-130.574
0
LINE
8
BLACK
6
CONTINUOUS
10
129.93
20
-130.574
11
129.925
21
-130.525
0
LINE
8
BLACK
6
CONTINUOUS
10
129.925
20
-130.525
11
129.925
21
-129.175
0
LINE
8
BLACK
6
CONTINUOUS
10
129.925
20
-129.175
11
129.93
21
-129.126
0
LINE
8
BLACK
6
CONTINUOUS
10
129.93
20
-129.126
11
129.944
21
-129.079
0
LINE
8
BLACK
6
CONTINUOUS
10
129.944
20
-129.079
11
129.967
21
-129.036
0
LINE
8
BLACK
6
CONTINUOUS
10
129.967
20
-129.036
11
129.998
21
-128.998
0
LINE
8
BLACK
6
CONTINUOUS
10
129.998
20
-128.998
11
130.036
21
-128.967
0
LINE
8
BLACK
6
CONTINUOUS
10
130.036
20
-128.967
11
130.079
21
-128.944
0
LINE
8
BLACK
6
CONTINUOUS
10
130.079
20
-128.944
11
130.126
21
-128.93
0
LINE
8
BLACK
6
CONTINUOUS
10
130.126
20
-128.93
11
130.175
21
-128.925
0
LINE
8
BLACK
6
CONTINUOUS
10
130.175
20
-128.925
11
131.525
21
-128.925
0
LINE
8
BLACK
6
CONTINUOUS
10
131.525
20
-128.925
11
131.574
21
-128.93
0
LINE
8
BLACK
6
CONTINUOUS
10
113.472
20
-122.337
11
113.611
21
-122.395
0
LINE
8
BLACK
6
CONTINUOUS
10
113.611
20
-122.395
11
113.736
21
-122.478
0
LINE
8
BLACK
6
CONTINUOUS
10
113.736
20
-122.478
11
113.842
21
-122.584
0
LINE
8
BLACK
6
CONTINUOUS
10
113.842
20
-122.584
11
113.925
21
-122.709
0
LINE
8
BLACK
6
CONTINUOUS
10
113.925
20
-122.709
11
113.983
21
-122.848
0
LINE
8
BLACK
6
CONTINUOUS
10
113.983
20
-122.848
11
114.012
21
-122.995
0
LINE
8
BLACK
6
CONTINUOUS
10
114.012
20
-122.995
11
114.012
21
-123.145
0
LINE
8
BLACK
6
CONTINUOUS
10
114.012
20
-123.145
11
113.983
21
-123.292
0
LINE
8
BLACK
6
CONTINUOUS
10
113.983
20
-123.292
11
113.925
21
-123.431
0
LINE
8
BLACK
6
CONTINUOUS
10
113.925
20
-123.431
11
113.842
21
-123.556
0
LINE
8
BLACK
6
CONTINUOUS
10
113.842
20
-123.556
11
113.736
21
-123.662
0
LINE
8
BLACK
6
CONTINUOUS
10
113.736
20
-123.662
11
113.611
21
-123.745
0
LINE
8
BLACK
6
CONTINUOUS
10
113.611
20
-123.745
11
113.472
21
-123.803
0
LINE
8
BLACK
6
CONTINUOUS
10
113.472
20
-123.803
11
113.325
21
-123.832
0
LINE
8
BLACK
6
CONTINUOUS
10
113.325
20
-123.832
11
113.175
21
-123.832
0
LINE
8
BLACK
6
CONTINUOUS
10
113.175
20
-123.832
11
113.028
21
-123.803
0
LINE
8
BLACK
6
CONTINUOUS
10
113.028
20
-123.803
11
112.889
21
-123.745
0
LINE
8
BLACK
6
CONTINUOUS
10
112.889
20
-123.745
11
112.764
21
-123.662
0
LINE
8
BLACK
6
CONTINUOUS
10
112.764
20
-123.662
11
112.658
21
-123.556
0
LINE
8
BLACK
6
CONTINUOUS
10
112.658
20
-123.556
11
112.575
21
-123.431
0
LINE
8
BLACK
6
CONTINUOUS
10
112.575
20
-123.431
11
112.517
21
-123.292
0
LINE
8
BLACK
6
CONTINUOUS
10
112.517
20
-123.292
11
112.488
21
-123.145
0
LINE
8
BLACK
6
CONTINUOUS
10
112.488
20
-123.145
11
112.488
21
-122.995
0
LINE
8
BLACK
6
CONTINUOUS
10
112.488
20
-122.995
11
112.517
21
-122.848
0
LINE
8
BLACK
6
CONTINUOUS
10
112.517
20
-122.848
11
112.575
21
-122.709
0
LINE
8
BLACK
6
CONTINUOUS
10
112.575
20
-122.709
11
112.658
21
-122.584
0
LINE
8
BLACK
6
CONTINUOUS
10
112.658
20
-122.584
11
112.764
21
-122.478
0
LINE
8
BLACK
6
CONTINUOUS
10
112.764
20
-122.478
11
112.889
21
-122.395
0
LINE
8
BLACK
6
CONTINUOUS
10
112.889
20
-122.395
11
113.028
21
-122.337
0
LINE
8
BLACK
6
CONTINUOUS
10
113.028
20
-122.337
11
113.175
21
-122.308
0
LINE
8
BLACK
6
CONTINUOUS
10
113.175
20
-122.308
11
113.325
21
-122.308
0
LINE
8
BLACK
6
CONTINUOUS
10
113.325
20
-122.308
11
113.472
21
-122.337
0
LINE
8
BLACK
6
CONTINUOUS
10
116.012
20
-122.337
11
116.151
21
-122.395
0
LINE
8
BLACK
6
CONTINUOUS
10
116.151
20
-122.395
11
116.276
21
-122.478
0
LINE
8
BLACK
6
CONTINUOUS
10
116.276
20
-122.478
11
116.382
21
-122.584
0
LINE
8
BLACK
6
CONTINUOUS
10
116.382
20
-122.584
11
116.465
21
-122.709
0
LINE
8
BLACK
6
CONTINUOUS
10
116.465
20
-122.709
11
116.523
21
-122.848
0
LINE
8
BLACK
6
CONTINUOUS
10
116.523
20
-122.848
11
116.552
21
-122.995
0
LINE
8
BLACK
6
CONTINUOUS
10
116.552
20
-122.995
11
116.552
21
-123.145
0
LINE
8
BLACK
6
CONTINUOUS
10
116.552
20
-123.145
11
116.523
21
-123.292
0
LINE
8
BLACK
6
CONTINUOUS
10
116.523
20
-123.292
11
116.465
21
-123.431
0
LINE
8
BLACK
6
CONTINUOUS
10
116.465
20
-123.431
11
116.382
21
-123.556
0
LINE
8
BLACK
6
CONTINUOUS
10
116.382
20
-123.556
11
116.276
21
-123.662
0
LINE
8
BLACK
6
CONTINUOUS
10
116.276
20
-123.662
11
116.151
21
-123.745
0
LINE
8
BLACK
6
CONTINUOUS
10
116.151
20
-123.745
11
116.012
21
-123.803
0
LINE
8
BLACK
6
CONTINUOUS
10
116.012
20
-123.803
11
115.865
21
-123.832
0
LINE
8
BLACK
6
CONTINUOUS
10
115.865
20
-123.832
11
115.715
21
-123.832
0
LINE
8
BLACK
6
CONTINUOUS
10
115.715
20
-123.832
11
115.568
21
-123.803
0
LINE
8
BLACK
6
CONTINUOUS
10
115.568
20
-123.803
11
115.429
21
-123.745
0
LINE
8
BLACK
6
CONTINUOUS
10
115.429
20
-123.745
11
115.304
21
-123.662
0
LINE
8
BLACK
6
CONTINUOUS
10
115.304
20
-123.662
11
115.198
21
-123.556
0
LINE
8
BLACK
6
CONTINUOUS
10
115.198
20
-123.556
11
115.115
21
-123.431
0
LINE
8
BLACK
6
CONTINUOUS
10
115.115
20
-123.431
11
115.057
21
-123.292
0
LINE
8
BLACK
6
CONTINUOUS
10
115.057
20
-123.292
11
115.028
21
-123.145
0
LINE
8
BLACK
6
CONTINUOUS
10
115.028
20
-123.145
11
115.028
21
-122.995
0
LINE
8
BLACK
6
CONTINUOUS
10
115.028
20
-122.995
11
115.057
21
-122.848
0
LINE
8
BLACK
6
CONTINUOUS
10
115.057
20
-122.848
11
115.115
21
-122.709
0
LINE
8
BLACK
6
CONTINUOUS
10
115.115
20
-122.709
11
115.198
21
-122.584
0
LINE
8
BLACK
6
CONTINUOUS
10
115.198
20
-122.584
11
115.304
21
-122.478
0
LINE
8
BLACK
6
CONTINUOUS
10
115.304
20
-122.478
11
115.429
21
-122.395
0
LINE
8
BLACK
6
CONTINUOUS
10
115.429
20
-122.395
11
115.568
21
-122.337
0
LINE
8
BLACK
6
CONTINUOUS
10
115.568
20
-122.337
11
115.715
21
-122.308
0
LINE
8
BLACK
6
CONTINUOUS
10
115.715
20
-122.308
11
115.865
21
-122.308
0
LINE
8
BLACK
6
CONTINUOUS
10
115.865
20
-122.308
11
116.012
21
-122.337
0
LINE
8
BLACK
6
CONTINUOUS
10
201.352
20
-121.797
11
201.491
21
-121.855
0
LINE
8
BLACK
6
CONTINUOUS
10
201.491
20
-121.855
11
201.616
21
-121.938
0
LINE
8
BLACK
6
CONTINUOUS
10
201.616
20
-121.938
11
201.722
21
-122.044
0
LINE
8
BLACK
6
CONTINUOUS
10
201.722
20
-122.044
11
201.805
21
-122.169
0
LINE
8
BLACK
6
CONTINUOUS
10
201.805
20
-122.169
11
201.863
21
-122.308
0
LINE
8
BLACK
6
CONTINUOUS
10
201.863
20
-122.308
11
201.892
21
-122.455
0
LINE
8
BLACK
6
CONTINUOUS
10
201.892
20
-122.455
11
201.892
21
-122.605
0
LINE
8
BLACK
6
CONTINUOUS
10
201.892
20
-122.605
11
201.863
21
-122.752
0
LINE
8
BLACK
6
CONTINUOUS
10
201.863
20
-122.752
11
201.805
21
-122.891
0
LINE
8
BLACK
6
CONTINUOUS
10
201.805
20
-122.891
11
201.722
21
-123.016
0
LINE
8
BLACK
6
CONTINUOUS
10
201.722
20
-123.016
11
201.616
21
-123.122
0
LINE
8
BLACK
6
CONTINUOUS
10
201.616
20
-123.122
11
201.491
21
-123.205
0
LINE
8
BLACK
6
CONTINUOUS
10
201.491
20
-123.205
11
201.352
21
-123.263
0
LINE
8
BLACK
6
CONTINUOUS
10
201.352
20
-123.263
11
201.205
21
-123.292
0
LINE
8
BLACK
6
CONTINUOUS
10
201.205
20
-123.292
11
201.055
21
-123.292
0
LINE
8
BLACK
6
CONTINUOUS
10
201.055
20
-123.292
11
200.908
21
-123.263
0
LINE
8
BLACK
6
CONTINUOUS
10
200.908
20
-123.263
11
200.769
21
-123.205
0
LINE
8
BLACK
6
CONTINUOUS
10
200.769
20
-123.205
11
200.644
21
-123.122
0
LINE
8
BLACK
6
CONTINUOUS
10
200.644
20
-123.122
11
200.538
21
-123.016
0
LINE
8
BLACK
6
CONTINUOUS
10
200.538
20
-123.016
11
200.455
21
-122.891
0
LINE
8
BLACK
6
CONTINUOUS
10
200.455
20
-122.891
11
200.397
21
-122.752
0
LINE
8
BLACK
6
CONTINUOUS
10
200.397
20
-122.752
11
200.368
21
-122.605
0
LINE
8
BLACK
6
CONTINUOUS
10
200.368
20
-122.605
11
200.368
21
-122.455
0
LINE
8
BLACK
6
CONTINUOUS
10
200.368
20
-122.455
11
200.397
21
-122.308
0
LINE
8
BLACK
6
CONTINUOUS
10
200.397
20
-122.308
11
200.455
21
-122.169
0
LINE
8
BLACK
6
CONTINUOUS
10
200.455
20
-122.169
11
200.538
21
-122.044
0
LINE
8
BLACK
6
CONTINUOUS
10
200.538
20
-122.044
11
200.644
21
-121.938
0
LINE
8
BLACK
6
CONTINUOUS
10
200.644
20
-121.938
11
200.769
21
-121.855
0
LINE
8
BLACK
6
CONTINUOUS
10
200.769
20
-121.855
11
200.908
21
-121.797
0
LINE
8
BLACK
6
CONTINUOUS
10
200.908
20
-121.797
11
201.055
21
-121.768
0
LINE
8
BLACK
6
CONTINUOUS
10
201.055
20
-121.768
11
201.205
21
-121.768
0
LINE
8
BLACK
6
CONTINUOUS
10
201.205
20
-121.768
11
201.352
21
-121.797
0
LINE
8
BLACK
6
CONTINUOUS
10
203.892
20
-121.797
11
204.031
21
-121.855
0
LINE
8
BLACK
6
CONTINUOUS
10
204.031
20
-121.855
11
204.156
21
-121.938
0
LINE
8
BLACK
6
CONTINUOUS
10
204.156
20
-121.938
11
204.262
21
-122.044
0
LINE
8
BLACK
6
CONTINUOUS
10
204.262
20
-122.044
11
204.345
21
-122.169
0
LINE
8
BLACK
6
CONTINUOUS
10
204.345
20
-122.169
11
204.403
21
-122.308
0
LINE
8
BLACK
6
CONTINUOUS
10
204.403
20
-122.308
11
204.432
21
-122.455
0
LINE
8
BLACK
6
CONTINUOUS
10
204.432
20
-122.455
11
204.432
21
-122.605
0
LINE
8
BLACK
6
CONTINUOUS
10
204.432
20
-122.605
11
204.403
21
-122.752
0
LINE
8
BLACK
6
CONTINUOUS
10
204.403
20
-122.752
11
204.345
21
-122.891
0
LINE
8
BLACK
6
CONTINUOUS
10
204.345
20
-122.891
11
204.262
21
-123.016
0
LINE
8
BLACK
6
CONTINUOUS
10
204.262
20
-123.016
11
204.156
21
-123.122
0
LINE
8
BLACK
6
CONTINUOUS
10
204.156
20
-123.122
11
204.031
21
-123.205
0
LINE
8
BLACK
6
CONTINUOUS
10
204.031
20
-123.205
11
203.892
21
-123.263
0
LINE
8
BLACK
6
CONTINUOUS
10
203.892
20
-123.263
11
203.745
21
-123.292
0
LINE
8
BLACK
6
CONTINUOUS
10
203.745
20
-123.292
11
203.595
21
-123.292
0
LINE
8
BLACK
6
CONTINUOUS
10
203.595
20
-123.292
11
203.448
21
-123.263
0
LINE
8
BLACK
6
CONTINUOUS
10
203.448
20
-123.263
11
203.309
21
-123.205
0
LINE
8
BLACK
6
CONTINUOUS
10
203.309
20
-123.205
11
203.184
21
-123.122
0
LINE
8
BLACK
6
CONTINUOUS
10
203.184
20
-123.122
11
203.078
21
-123.016
0
LINE
8
BLACK
6
CONTINUOUS
10
203.078
20
-123.016
11
202.995
21
-122.891
0
LINE
8
BLACK
6
CONTINUOUS
10
202.995
20
-122.891
11
202.937
21
-122.752
0
LINE
8
BLACK
6
CONTINUOUS
10
202.937
20
-122.752
11
202.908
21
-122.605
0
LINE
8
BLACK
6
CONTINUOUS
10
202.908
20
-122.605
11
202.908
21
-122.455
0
LINE
8
BLACK
6
CONTINUOUS
10
202.908
20
-122.455
11
202.937
21
-122.308
0
LINE
8
BLACK
6
CONTINUOUS
10
202.937
20
-122.308
11
202.995
21
-122.169
0
LINE
8
BLACK
6
CONTINUOUS
10
202.995
20
-122.169
11
203.078
21
-122.044
0
LINE
8
BLACK
6
CONTINUOUS
10
203.078
20
-122.044
11
203.184
21
-121.938
0
LINE
8
BLACK
6
CONTINUOUS
10
203.184
20
-121.938
11
203.309
21
-121.855
0
LINE
8
BLACK
6
CONTINUOUS
10
203.309
20
-121.855
11
203.448
21
-121.797
0
LINE
8
BLACK
6
CONTINUOUS
10
203.448
20
-121.797
11
203.595
21
-121.768
0
LINE
8
BLACK
6
CONTINUOUS
10
203.595
20
-121.768
11
203.745
21
-121.768
0
LINE
8
BLACK
6
CONTINUOUS
10
203.745
20
-121.768
11
203.892
21
-121.797
0
LINE
8
BLACK
6
CONTINUOUS
10
106.632
20
-117.427
11
106.771
21
-117.485
0
LINE
8
BLACK
6
CONTINUOUS
10
106.771
20
-117.485
11
106.896
21
-117.568
0
LINE
8
BLACK
6
CONTINUOUS
10
106.896
20
-117.568
11
107.002
21
-117.674
0
LINE
8
BLACK
6
CONTINUOUS
10
107.002
20
-117.674
11
107.085
21
-117.799
0
LINE
8
BLACK
6
CONTINUOUS
10
107.085
20
-117.799
11
107.143
21
-117.938
0
LINE
8
BLACK
6
CONTINUOUS
10
107.143
20
-117.938
11
107.172
21
-118.085
0
LINE
8
BLACK
6
CONTINUOUS
10
107.172
20
-118.085
11
107.172
21
-118.235
0
LINE
8
BLACK
6
CONTINUOUS
10
107.172
20
-118.235
11
107.143
21
-118.382
0
LINE
8
BLACK
6
CONTINUOUS
10
107.143
20
-118.382
11
107.085
21
-118.521
0
LINE
8
BLACK
6
CONTINUOUS
10
107.085
20
-118.521
11
107.002
21
-118.646
0
LINE
8
BLACK
6
CONTINUOUS
10
107.002
20
-118.646
11
106.896
21
-118.752
0
LINE
8
BLACK
6
CONTINUOUS
10
106.896
20
-118.752
11
106.771
21
-118.835
0
LINE
8
BLACK
6
CONTINUOUS
10
106.771
20
-118.835
11
106.632
21
-118.893
0
LINE
8
BLACK
6
CONTINUOUS
10
106.632
20
-118.893
11
106.485
21
-118.922
0
LINE
8
BLACK
6
CONTINUOUS
10
106.485
20
-118.922
11
106.335
21
-118.922
0
LINE
8
BLACK
6
CONTINUOUS
10
106.335
20
-118.922
11
106.188
21
-118.893
0
LINE
8
BLACK
6
CONTINUOUS
10
106.188
20
-118.893
11
106.049
21
-118.835
0
LINE
8
BLACK
6
CONTINUOUS
10
106.049
20
-118.835
11
105.924
21
-118.752
0
LINE
8
BLACK
6
CONTINUOUS
10
105.924
20
-118.752
11
105.818
21
-118.646
0
LINE
8
BLACK
6
CONTINUOUS
10
105.818
20
-118.646
11
105.735
21
-118.521
0
LINE
8
BLACK
6
CONTINUOUS
10
105.735
20
-118.521
11
105.677
21
-118.382
0
LINE
8
BLACK
6
CONTINUOUS
10
105.677
20
-118.382
11
105.648
21
-118.235
0
LINE
8
BLACK
6
CONTINUOUS
10
105.648
20
-118.235
11
105.648
21
-118.085
0
LINE
8
BLACK
6
CONTINUOUS
10
105.648
20
-118.085
11
105.677
21
-117.938
0
LINE
8
BLACK
6
CONTINUOUS
10
105.677
20
-117.938
11
105.735
21
-117.799
0
LINE
8
BLACK
6
CONTINUOUS
10
105.735
20
-117.799
11
105.818
21
-117.674
0
LINE
8
BLACK
6
CONTINUOUS
10
105.818
20
-117.674
11
105.924
21
-117.568
0
LINE
8
BLACK
6
CONTINUOUS
10
105.924
20
-117.568
11
106.049
21
-117.485
0
LINE
8
BLACK
6
CONTINUOUS
10
106.049
20
-117.485
11
106.188
21
-117.427
0
LINE
8
BLACK
6
CONTINUOUS
10
106.188
20
-117.427
11
106.335
21
-117.398
0
LINE
8
BLACK
6
CONTINUOUS
10
106.335
20
-117.398
11
106.485
21
-117.398
0
LINE
8
BLACK
6
CONTINUOUS
10
106.485
20
-117.398
11
106.632
21
-117.427
0
LINE
8
BLACK
6
CONTINUOUS
10
109.172
20
-117.427
11
109.311
21
-117.485
0
LINE
8
BLACK
6
CONTINUOUS
10
109.311
20
-117.485
11
109.436
21
-117.568
0
LINE
8
BLACK
6
CONTINUOUS
10
109.436
20
-117.568
11
109.542
21
-117.674
0
LINE
8
BLACK
6
CONTINUOUS
10
109.542
20
-117.674
11
109.625
21
-117.799
0
LINE
8
BLACK
6
CONTINUOUS
10
109.625
20
-117.799
11
109.683
21
-117.938
0
LINE
8
BLACK
6
CONTINUOUS
10
109.683
20
-117.938
11
109.712
21
-118.085
0
LINE
8
BLACK
6
CONTINUOUS
10
109.712
20
-118.085
11
109.712
21
-118.235
0
LINE
8
BLACK
6
CONTINUOUS
10
109.712
20
-118.235
11
109.683
21
-118.382
0
LINE
8
BLACK
6
CONTINUOUS
10
109.683
20
-118.382
11
109.625
21
-118.521
0
LINE
8
BLACK
6
CONTINUOUS
10
109.625
20
-118.521
11
109.542
21
-118.646
0
LINE
8
BLACK
6
CONTINUOUS
10
109.542
20
-118.646
11
109.436
21
-118.752
0
LINE
8
BLACK
6
CONTINUOUS
10
109.436
20
-118.752
11
109.311
21
-118.835
0
LINE
8
BLACK
6
CONTINUOUS
10
109.311
20
-118.835
11
109.172
21
-118.893
0
LINE
8
BLACK
6
CONTINUOUS
10
109.172
20
-118.893
11
109.025
21
-118.922
0
LINE
8
BLACK
6
CONTINUOUS
10
109.025
20
-118.922
11
108.875
21
-118.922
0
LINE
8
BLACK
6
CONTINUOUS
10
108.875
20
-118.922
11
108.728
21
-118.893
0
LINE
8
BLACK
6
CONTINUOUS
10
108.728
20
-118.893
11
108.589
21
-118.835
0
LINE
8
BLACK
6
CONTINUOUS
10
108.589
20
-118.835
11
108.464
21
-118.752
0
LINE
8
BLACK
6
CONTINUOUS
10
108.464
20
-118.752
11
108.358
21
-118.646
0
LINE
8
BLACK
6
CONTINUOUS
10
108.358
20
-118.646
11
108.275
21
-118.521
0
LINE
8
BLACK
6
CONTINUOUS
10
108.275
20
-118.521
11
108.217
21
-118.382
0
LINE
8
BLACK
6
CONTINUOUS
10
108.217
20
-118.382
11
108.188
21
-118.235
0
LINE
8
BLACK
6
CONTINUOUS
10
108.188
20
-118.235
11
108.188
21
-118.085
0
LINE
8
BLACK
6
CONTINUOUS
10
108.188
20
-118.085
11
108.217
21
-117.938
0
LINE
8
BLACK
6
CONTINUOUS
10
108.217
20
-117.938
11
108.275
21
-117.799
0
LINE
8
BLACK
6
CONTINUOUS
10
108.275
20
-117.799
11
108.358
21
-117.674
0
LINE
8
BLACK
6
CONTINUOUS
10
108.358
20
-117.674
11
108.464
21
-117.568
0
LINE
8
BLACK
6
CONTINUOUS
10
108.464
20
-117.568
11
108.589
21
-117.485
0
LINE
8
BLACK
6
CONTINUOUS
10
108.589
20
-117.485
11
108.728
21
-117.427
0
LINE
8
BLACK
6
CONTINUOUS
10
108.728
20
-117.427
11
108.875
21
-117.398
0
LINE
8
BLACK
6
CONTINUOUS
10
108.875
20
-117.398
11
109.025
21
-117.398
0
LINE
8
BLACK
6
CONTINUOUS
10
109.025
20
-117.398
11
109.172
21
-117.427
0
LINE
8
BLACK
6
CONTINUOUS
10
210.402
20
-116.557
11
210.541
21
-116.615
0
LINE
8
BLACK
6
CONTINUOUS
10
210.541
20
-116.615
11
210.666
21
-116.698
0
LINE
8
BLACK
6
CONTINUOUS
10
210.666
20
-116.698
11
210.772
21
-116.804
0
LINE
8
BLACK
6
CONTINUOUS
10
210.772
20
-116.804
11
210.855
21
-116.929
0
LINE
8
BLACK
6
CONTINUOUS
10
210.855
20
-116.929
11
210.913
21
-117.068
0
LINE
8
BLACK
6
CONTINUOUS
10
210.913
20
-117.068
11
210.942
21
-117.215
0
LINE
8
BLACK
6
CONTINUOUS
10
210.942
20
-117.215
11
210.942
21
-117.365
0
LINE
8
BLACK
6
CONTINUOUS
10
210.942
20
-117.365
11
210.913
21
-117.512
0
LINE
8
BLACK
6
CONTINUOUS
10
210.913
20
-117.512
11
210.855
21
-117.651
0
LINE
8
BLACK
6
CONTINUOUS
10
210.855
20
-117.651
11
210.772
21
-117.776
0
LINE
8
BLACK
6
CONTINUOUS
10
210.772
20
-117.776
11
210.666
21
-117.882
0
LINE
8
BLACK
6
CONTINUOUS
10
210.666
20
-117.882
11
210.541
21
-117.965
0
LINE
8
BLACK
6
CONTINUOUS
10
210.541
20
-117.965
11
210.402
21
-118.023
0
LINE
8
BLACK
6
CONTINUOUS
10
210.402
20
-118.023
11
210.255
21
-118.052
0
LINE
8
BLACK
6
CONTINUOUS
10
210.255
20
-118.052
11
210.105
21
-118.052
0
LINE
8
BLACK
6
CONTINUOUS
10
210.105
20
-118.052
11
209.958
21
-118.023
0
LINE
8
BLACK
6
CONTINUOUS
10
209.958
20
-118.023
11
209.819
21
-117.965
0
LINE
8
BLACK
6
CONTINUOUS
10
209.819
20
-117.965
11
209.694
21
-117.882
0
LINE
8
BLACK
6
CONTINUOUS
10
209.694
20
-117.882
11
209.588
21
-117.776
0
LINE
8
BLACK
6
CONTINUOUS
10
209.588
20
-117.776
11
209.505
21
-117.651
0
LINE
8
BLACK
6
CONTINUOUS
10
209.505
20
-117.651
11
209.447
21
-117.512
0
LINE
8
BLACK
6
CONTINUOUS
10
209.447
20
-117.512
11
209.418
21
-117.365
0
LINE
8
BLACK
6
CONTINUOUS
10
209.418
20
-117.365
11
209.418
21
-117.215
0
LINE
8
BLACK
6
CONTINUOUS
10
209.418
20
-117.215
11
209.447
21
-117.068
0
LINE
8
BLACK
6
CONTINUOUS
10
209.447
20
-117.068
11
209.505
21
-116.929
0
LINE
8
BLACK
6
CONTINUOUS
10
209.505
20
-116.929
11
209.588
21
-116.804
0
LINE
8
BLACK
6
CONTINUOUS
10
209.588
20
-116.804
11
209.694
21
-116.698
0
LINE
8
BLACK
6
CONTINUOUS
10
209.694
20
-116.698
11
209.819
21
-116.615
0
LINE
8
BLACK
6
CONTINUOUS
10
209.819
20
-116.615
11
209.958
21
-116.557
0
LINE
8
BLACK
6
CONTINUOUS
10
209.958
20
-116.557
11
210.105
21
-116.528
0
LINE
8
BLACK
6
CONTINUOUS
10
210.105
20
-116.528
11
210.255
21
-116.528
0
LINE
8
BLACK
6
CONTINUOUS
10
210.255
20
-116.528
11
210.402
21
-116.557
0
LINE
8
BLACK
6
CONTINUOUS
10
207.862
20
-116.557
11
208.001
21
-116.615
0
LINE
8
BLACK
6
CONTINUOUS
10
208.001
20
-116.615
11
208.126
21
-116.698
0
LINE
8
BLACK
6
CONTINUOUS
10
208.126
20
-116.698
11
208.232
21
-116.804
0
LINE
8
BLACK
6
CONTINUOUS
10
208.232
20
-116.804
11
208.315
21
-116.929
0
LINE
8
BLACK
6
CONTINUOUS
10
208.315
20
-116.929
11
208.373
21
-117.068
0
LINE
8
BLACK
6
CONTINUOUS
10
208.373
20
-117.068
11
208.402
21
-117.215
0
LINE
8
BLACK
6
CONTINUOUS
10
208.402
20
-117.215
11
208.402
21
-117.365
0
LINE
8
BLACK
6
CONTINUOUS
10
208.402
20
-117.365
11
208.373
21
-117.512
0
LINE
8
BLACK
6
CONTINUOUS
10
208.373
20
-117.512
11
208.315
21
-117.651
0
LINE
8
BLACK
6
CONTINUOUS
10
208.315
20
-117.651
11
208.232
21
-117.776
0
LINE
8
BLACK
6
CONTINUOUS
10
208.232
20
-117.776
11
208.126
21
-117.882
0
LINE
8
BLACK
6
CONTINUOUS
10
208.126
20
-117.882
11
208.001
21
-117.965
0
LINE
8
BLACK
6
CONTINUOUS
10
208.001
20
-117.965
11
207.862
21
-118.023
0
LINE
8
BLACK
6
CONTINUOUS
10
207.862
20
-118.023
11
207.715
21
-118.052
0
LINE
8
BLACK
6
CONTINUOUS
10
207.715
20
-118.052
11
207.565
21
-118.052
0
LINE
8
BLACK
6
CONTINUOUS
10
207.565
20
-118.052
11
207.418
21
-118.023
0
LINE
8
BLACK
6
CONTINUOUS
10
207.418
20
-118.023
11
207.279
21
-117.965
0
LINE
8
BLACK
6
CONTINUOUS
10
207.279
20
-117.965
11
207.154
21
-117.882
0
LINE
8
BLACK
6
CONTINUOUS
10
207.154
20
-117.882
11
207.048
21
-117.776
0
LINE
8
BLACK
6
CONTINUOUS
10
207.048
20
-117.776
11
206.965
21
-117.651
0
LINE
8
BLACK
6
CONTINUOUS
10
206.965
20
-117.651
11
206.907
21
-117.512
0
LINE
8
BLACK
6
CONTINUOUS
10
206.907
20
-117.512
11
206.878
21
-117.365
0
LINE
8
BLACK
6
CONTINUOUS
10
206.878
20
-117.365
11
206.878
21
-117.215
0
LINE
8
BLACK
6
CONTINUOUS
10
206.878
20
-117.215
11
206.907
21
-117.068
0
LINE
8
BLACK
6
CONTINUOUS
10
206.907
20
-117.068
11
206.965
21
-116.929
0
LINE
8
BLACK
6
CONTINUOUS
10
206.965
20
-116.929
11
207.048
21
-116.804
0
LINE
8
BLACK
6
CONTINUOUS
10
207.048
20
-116.804
11
207.154
21
-116.698
0
LINE
8
BLACK
6
CONTINUOUS
10
207.154
20
-116.698
11
207.279
21
-116.615
0
LINE
8
BLACK
6
CONTINUOUS
10
207.279
20
-116.615
11
207.418
21
-116.557
0
LINE
8
BLACK
6
CONTINUOUS
10
207.418
20
-116.557
11
207.565
21
-116.528
0
LINE
8
BLACK
6
CONTINUOUS
10
207.565
20
-116.528
11
207.715
21
-116.528
0
LINE
8
BLACK
6
CONTINUOUS
10
207.715
20
-116.528
11
207.862
21
-116.557
0
LINE
8
BLACK
6
CONTINUOUS
10
115.932
20
-113.587
11
116.071
21
-113.645
0
LINE
8
BLACK
6
CONTINUOUS
10
116.071
20
-113.645
11
116.196
21
-113.728
0
LINE
8
BLACK
6
CONTINUOUS
10
116.196
20
-113.728
11
116.302
21
-113.834
0
LINE
8
BLACK
6
CONTINUOUS
10
116.302
20
-113.834
11
116.385
21
-113.959
0
LINE
8
BLACK
6
CONTINUOUS
10
116.385
20
-113.959
11
116.443
21
-114.098
0
LINE
8
BLACK
6
CONTINUOUS
10
116.443
20
-114.098
11
116.472
21
-114.245
0
LINE
8
BLACK
6
CONTINUOUS
10
116.472
20
-114.245
11
116.472
21
-114.395
0
LINE
8
BLACK
6
CONTINUOUS
10
116.472
20
-114.395
11
116.443
21
-114.542
0
LINE
8
BLACK
6
CONTINUOUS
10
116.443
20
-114.542
11
116.385
21
-114.681
0
LINE
8
BLACK
6
CONTINUOUS
10
116.385
20
-114.681
11
116.302
21
-114.806
0
LINE
8
BLACK
6
CONTINUOUS
10
116.302
20
-114.806
11
116.196
21
-114.912
0
LINE
8
BLACK
6
CONTINUOUS
10
116.196
20
-114.912
11
116.071
21
-114.995
0
LINE
8
BLACK
6
CONTINUOUS
10
116.071
20
-114.995
11
115.932
21
-115.053
0
LINE
8
BLACK
6
CONTINUOUS
10
115.932
20
-115.053
11
115.785
21
-115.082
0
LINE
8
BLACK
6
CONTINUOUS
10
115.785
20
-115.082
11
115.635
21
-115.082
0
LINE
8
BLACK
6
CONTINUOUS
10
115.635
20
-115.082
11
115.488
21
-115.053
0
LINE
8
BLACK
6
CONTINUOUS
10
115.488
20
-115.053
11
115.349
21
-114.995
0
LINE
8
BLACK
6
CONTINUOUS
10
115.349
20
-114.995
11
115.224
21
-114.912
0
LINE
8
BLACK
6
CONTINUOUS
10
115.224
20
-114.912
11
115.118
21
-114.806
0
LINE
8
BLACK
6
CONTINUOUS
10
115.118
20
-114.806
11
115.035
21
-114.681
0
LINE
8
BLACK
6
CONTINUOUS
10
115.035
20
-114.681
11
114.977
21
-114.542
0
LINE
8
BLACK
6
CONTINUOUS
10
114.977
20
-114.542
11
114.948
21
-114.395
0
LINE
8
BLACK
6
CONTINUOUS
10
114.948
20
-114.395
11
114.948
21
-114.245
0
LINE
8
BLACK
6
CONTINUOUS
10
114.948
20
-114.245
11
114.977
21
-114.098
0
LINE
8
BLACK
6
CONTINUOUS
10
114.977
20
-114.098
11
115.035
21
-113.959
0
LINE
8
BLACK
6
CONTINUOUS
10
115.035
20
-113.959
11
115.118
21
-113.834
0
LINE
8
BLACK
6
CONTINUOUS
10
115.118
20
-113.834
11
115.224
21
-113.728
0
LINE
8
BLACK
6
CONTINUOUS
10
115.224
20
-113.728
11
115.349
21
-113.645
0
LINE
8
BLACK
6
CONTINUOUS
10
115.349
20
-113.645
11
115.488
21
-113.587
0
LINE
8
BLACK
6
CONTINUOUS
10
115.488
20
-113.587
11
115.635
21
-113.558
0
LINE
8
BLACK
6
CONTINUOUS
10
115.635
20
-113.558
11
115.785
21
-113.558
0
LINE
8
BLACK
6
CONTINUOUS
10
115.785
20
-113.558
11
115.932
21
-113.587
0
LINE
8
BLACK
6
CONTINUOUS
10
113.392
20
-113.587
11
113.531
21
-113.645
0
LINE
8
BLACK
6
CONTINUOUS
10
113.531
20
-113.645
11
113.656
21
-113.728
0
LINE
8
BLACK
6
CONTINUOUS
10
113.656
20
-113.728
11
113.762
21
-113.834
0
LINE
8
BLACK
6
CONTINUOUS
10
113.762
20
-113.834
11
113.845
21
-113.959
0
LINE
8
BLACK
6
CONTINUOUS
10
113.845
20
-113.959
11
113.903
21
-114.098
0
LINE
8
BLACK
6
CONTINUOUS
10
113.903
20
-114.098
11
113.932
21
-114.245
0
LINE
8
BLACK
6
CONTINUOUS
10
113.932
20
-114.245
11
113.932
21
-114.395
0
LINE
8
BLACK
6
CONTINUOUS
10
113.932
20
-114.395
11
113.903
21
-114.542
0
LINE
8
BLACK
6
CONTINUOUS
10
113.903
20
-114.542
11
113.845
21
-114.681
0
LINE
8
BLACK
6
CONTINUOUS
10
113.845
20
-114.681
11
113.762
21
-114.806
0
LINE
8
BLACK
6
CONTINUOUS
10
113.762
20
-114.806
11
113.656
21
-114.912
0
LINE
8
BLACK
6
CONTINUOUS
10
113.656
20
-114.912
11
113.531
21
-114.995
0
LINE
8
BLACK
6
CONTINUOUS
10
113.531
20
-114.995
11
113.392
21
-115.053
0
LINE
8
BLACK
6
CONTINUOUS
10
113.392
20
-115.053
11
113.245
21
-115.082
0
LINE
8
BLACK
6
CONTINUOUS
10
113.245
20
-115.082
11
113.095
21
-115.082
0
LINE
8
BLACK
6
CONTINUOUS
10
113.095
20
-115.082
11
112.948
21
-115.053
0
LINE
8
BLACK
6
CONTINUOUS
10
112.948
20
-115.053
11
112.809
21
-114.995
0
LINE
8
BLACK
6
CONTINUOUS
10
112.809
20
-114.995
11
112.684
21
-114.912
0
LINE
8
BLACK
6
CONTINUOUS
10
112.684
20
-114.912
11
112.578
21
-114.806
0
LINE
8
BLACK
6
CONTINUOUS
10
112.578
20
-114.806
11
112.495
21
-114.681
0
LINE
8
BLACK
6
CONTINUOUS
10
112.495
20
-114.681
11
112.437
21
-114.542
0
LINE
8
BLACK
6
CONTINUOUS
10
112.437
20
-114.542
11
112.408
21
-114.395
0
LINE
8
BLACK
6
CONTINUOUS
10
112.408
20
-114.395
11
112.408
21
-114.245
0
LINE
8
BLACK
6
CONTINUOUS
10
112.408
20
-114.245
11
112.437
21
-114.098
0
LINE
8
BLACK
6
CONTINUOUS
10
112.437
20
-114.098
11
112.495
21
-113.959
0
LINE
8
BLACK
6
CONTINUOUS
10
112.495
20
-113.959
11
112.578
21
-113.834
0
LINE
8
BLACK
6
CONTINUOUS
10
112.578
20
-113.834
11
112.684
21
-113.728
0
LINE
8
BLACK
6
CONTINUOUS
10
112.684
20
-113.728
11
112.809
21
-113.645
0
LINE
8
BLACK
6
CONTINUOUS
10
112.809
20
-113.645
11
112.948
21
-113.587
0
LINE
8
BLACK
6
CONTINUOUS
10
112.948
20
-113.587
11
113.095
21
-113.558
0
LINE
8
BLACK
6
CONTINUOUS
10
113.095
20
-113.558
11
113.245
21
-113.558
0
LINE
8
BLACK
6
CONTINUOUS
10
113.245
20
-113.558
11
113.392
21
-113.587
0
LINE
8
BLACK
6
CONTINUOUS
10
203.962
20
-113.107
11
204.101
21
-113.165
0
LINE
8
BLACK
6
CONTINUOUS
10
204.101
20
-113.165
11
204.226
21
-113.248
0
LINE
8
BLACK
6
CONTINUOUS
10
204.226
20
-113.248
11
204.332
21
-113.354
0
LINE
8
BLACK
6
CONTINUOUS
10
204.332
20
-113.354
11
204.415
21
-113.479
0
LINE
8
BLACK
6
CONTINUOUS
10
204.415
20
-113.479
11
204.473
21
-113.618
0
LINE
8
BLACK
6
CONTINUOUS
10
204.473
20
-113.618
11
204.502
21
-113.765
0
LINE
8
BLACK
6
CONTINUOUS
10
204.502
20
-113.765
11
204.502
21
-113.915
0
LINE
8
BLACK
6
CONTINUOUS
10
204.502
20
-113.915
11
204.473
21
-114.062
0
LINE
8
BLACK
6
CONTINUOUS
10
204.473
20
-114.062
11
204.415
21
-114.201
0
LINE
8
BLACK
6
CONTINUOUS
10
204.415
20
-114.201
11
204.332
21
-114.326
0
LINE
8
BLACK
6
CONTINUOUS
10
204.332
20
-114.326
11
204.226
21
-114.432
0
LINE
8
BLACK
6
CONTINUOUS
10
204.226
20
-114.432
11
204.101
21
-114.515
0
LINE
8
BLACK
6
CONTINUOUS
10
204.101
20
-114.515
11
203.962
21
-114.573
0
LINE
8
BLACK
6
CONTINUOUS
10
203.962
20
-114.573
11
203.815
21
-114.602
0
LINE
8
BLACK
6
CONTINUOUS
10
203.815
20
-114.602
11
203.665
21
-114.602
0
LINE
8
BLACK
6
CONTINUOUS
10
203.665
20
-114.602
11
203.518
21
-114.573
0
LINE
8
BLACK
6
CONTINUOUS
10
203.518
20
-114.573
11
203.379
21
-114.515
0
LINE
8
BLACK
6
CONTINUOUS
10
203.379
20
-114.515
11
203.254
21
-114.432
0
LINE
8
BLACK
6
CONTINUOUS
10
203.254
20
-114.432
11
203.148
21
-114.326
0
LINE
8
BLACK
6
CONTINUOUS
10
203.148
20
-114.326
11
203.065
21
-114.201
0
LINE
8
BLACK
6
CONTINUOUS
10
203.065
20
-114.201
11
203.007
21
-114.062
0
LINE
8
BLACK
6
CONTINUOUS
10
203.007
20
-114.062
11
202.978
21
-113.915
0
LINE
8
BLACK
6
CONTINUOUS
10
202.978
20
-113.915
11
202.978
21
-113.765
0
LINE
8
BLACK
6
CONTINUOUS
10
202.978
20
-113.765
11
203.007
21
-113.618
0
LINE
8
BLACK
6
CONTINUOUS
10
203.007
20
-113.618
11
203.065
21
-113.479
0
LINE
8
BLACK
6
CONTINUOUS
10
203.065
20
-113.479
11
203.148
21
-113.354
0
LINE
8
BLACK
6
CONTINUOUS
10
203.148
20
-113.354
11
203.254
21
-113.248
0
LINE
8
BLACK
6
CONTINUOUS
10
203.254
20
-113.248
11
203.379
21
-113.165
0
LINE
8
BLACK
6
CONTINUOUS
10
203.379
20
-113.165
11
203.518
21
-113.107
0
LINE
8
BLACK
6
CONTINUOUS
10
203.518
20
-113.107
11
203.665
21
-113.078
0
LINE
8
BLACK
6
CONTINUOUS
10
203.665
20
-113.078
11
203.815
21
-113.078
0
LINE
8
BLACK
6
CONTINUOUS
10
203.815
20
-113.078
11
203.962
21
-113.107
0
LINE
8
BLACK
6
CONTINUOUS
10
201.422
20
-113.107
11
201.561
21
-113.165
0
LINE
8
BLACK
6
CONTINUOUS
10
201.561
20
-113.165
11
201.686
21
-113.248
0
LINE
8
BLACK
6
CONTINUOUS
10
201.686
20
-113.248
11
201.792
21
-113.354
0
LINE
8
BLACK
6
CONTINUOUS
10
201.792
20
-113.354
11
201.875
21
-113.479
0
LINE
8
BLACK
6
CONTINUOUS
10
201.875
20
-113.479
11
201.933
21
-113.618
0
LINE
8
BLACK
6
CONTINUOUS
10
201.933
20
-113.618
11
201.962
21
-113.765
0
LINE
8
BLACK
6
CONTINUOUS
10
201.962
20
-113.765
11
201.962
21
-113.915
0
LINE
8
BLACK
6
CONTINUOUS
10
201.962
20
-113.915
11
201.933
21
-114.062
0
LINE
8
BLACK
6
CONTINUOUS
10
201.933
20
-114.062
11
201.875
21
-114.201
0
LINE
8
BLACK
6
CONTINUOUS
10
201.875
20
-114.201
11
201.792
21
-114.326
0
LINE
8
BLACK
6
CONTINUOUS
10
201.792
20
-114.326
11
201.686
21
-114.432
0
LINE
8
BLACK
6
CONTINUOUS
10
201.686
20
-114.432
11
201.561
21
-114.515
0
LINE
8
BLACK
6
CONTINUOUS
10
201.561
20
-114.515
11
201.422
21
-114.573
0
LINE
8
BLACK
6
CONTINUOUS
10
201.422
20
-114.573
11
201.275
21
-114.602
0
LINE
8
BLACK
6
CONTINUOUS
10
201.275
20
-114.602
11
201.125
21
-114.602
0
LINE
8
BLACK
6
CONTINUOUS
10
201.125
20
-114.602
11
200.978
21
-114.573
0
LINE
8
BLACK
6
CONTINUOUS
10
200.978
20
-114.573
11
200.839
21
-114.515
0
LINE
8
BLACK
6
CONTINUOUS
10
200.839
20
-114.515
11
200.714
21
-114.432
0
LINE
8
BLACK
6
CONTINUOUS
10
200.714
20
-114.432
11
200.608
21
-114.326
0
LINE
8
BLACK
6
CONTINUOUS
10
200.608
20
-114.326
11
200.525
21
-114.201
0
LINE
8
BLACK
6
CONTINUOUS
10
200.525
20
-114.201
11
200.467
21
-114.062
0
LINE
8
BLACK
6
CONTINUOUS
10
200.467
20
-114.062
11
200.438
21
-113.915
0
LINE
8
BLACK
6
CONTINUOUS
10
200.438
20
-113.915
11
200.438
21
-113.765
0
LINE
8
BLACK
6
CONTINUOUS
10
200.438
20
-113.765
11
200.467
21
-113.618
0
LINE
8
BLACK
6
CONTINUOUS
10
200.467
20
-113.618
11
200.525
21
-113.479
0
LINE
8
BLACK
6
CONTINUOUS
10
200.525
20
-113.479
11
200.608
21
-113.354
0
LINE
8
BLACK
6
CONTINUOUS
10
200.608
20
-113.354
11
200.714
21
-113.248
0
LINE
8
BLACK
6
CONTINUOUS
10
200.714
20
-113.248
11
200.839
21
-113.165
0
LINE
8
BLACK
6
CONTINUOUS
10
200.839
20
-113.165
11
200.978
21
-113.107
0
LINE
8
BLACK
6
CONTINUOUS
10
200.978
20
-113.107
11
201.125
21
-113.078
0
LINE
8
BLACK
6
CONTINUOUS
10
201.125
20
-113.078
11
201.275
21
-113.078
0
LINE
8
BLACK
6
CONTINUOUS
10
201.275
20
-113.078
11
201.422
21
-113.107
0
LINE
8
BLACK
6
CONTINUOUS
10
109.157
20
-108.972
11
109.296
21
-109.03
0
LINE
8
BLACK
6
CONTINUOUS
10
109.296
20
-109.03
11
109.421
21
-109.113
0
LINE
8
BLACK
6
CONTINUOUS
10
109.421
20
-109.113
11
109.527
21
-109.219
0
LINE
8
BLACK
6
CONTINUOUS
10
109.527
20
-109.219
11
109.61
21
-109.344
0
LINE
8
BLACK
6
CONTINUOUS
10
109.61
20
-109.344
11
109.668
21
-109.483
0
LINE
8
BLACK
6
CONTINUOUS
10
109.668
20
-109.483
11
109.697
21
-109.63
0
LINE
8
BLACK
6
CONTINUOUS
10
109.697
20
-109.63
11
109.697
21
-109.78
0
LINE
8
BLACK
6
CONTINUOUS
10
109.697
20
-109.78
11
109.668
21
-109.927
0
LINE
8
BLACK
6
CONTINUOUS
10
109.668
20
-109.927
11
109.61
21
-110.066
0
LINE
8
BLACK
6
CONTINUOUS
10
109.61
20
-110.066
11
109.527
21
-110.191
0
LINE
8
BLACK
6
CONTINUOUS
10
109.527
20
-110.191
11
109.421
21
-110.297
0
LINE
8
BLACK
6
CONTINUOUS
10
109.421
20
-110.297
11
109.296
21
-110.38
0
LINE
8
BLACK
6
CONTINUOUS
10
109.296
20
-110.38
11
109.157
21
-110.438
0
LINE
8
BLACK
6
CONTINUOUS
10
109.157
20
-110.438
11
109.01
21
-110.467
0
LINE
8
BLACK
6
CONTINUOUS
10
109.01
20
-110.467
11
108.86
21
-110.467
0
LINE
8
BLACK
6
CONTINUOUS
10
108.86
20
-110.467
11
108.713
21
-110.438
0
LINE
8
BLACK
6
CONTINUOUS
10
108.713
20
-110.438
11
108.574
21
-110.38
0
LINE
8
BLACK
6
CONTINUOUS
10
108.574
20
-110.38
11
108.449
21
-110.297
0
LINE
8
BLACK
6
CONTINUOUS
10
108.449
20
-110.297
11
108.343
21
-110.191
0
LINE
8
BLACK
6
CONTINUOUS
10
108.343
20
-110.191
11
108.26
21
-110.066
0
LINE
8
BLACK
6
CONTINUOUS
10
108.26
20
-110.066
11
108.202
21
-109.927
0
LINE
8
BLACK
6
CONTINUOUS
10
108.202
20
-109.927
11
108.173
21
-109.78
0
LINE
8
BLACK
6
CONTINUOUS
10
108.173
20
-109.78
11
108.173
21
-109.63
0
LINE
8
BLACK
6
CONTINUOUS
10
108.173
20
-109.63
11
108.202
21
-109.483
0
LINE
8
BLACK
6
CONTINUOUS
10
108.202
20
-109.483
11
108.26
21
-109.344
0
LINE
8
BLACK
6
CONTINUOUS
10
108.26
20
-109.344
11
108.343
21
-109.219
0
LINE
8
BLACK
6
CONTINUOUS
10
108.343
20
-109.219
11
108.449
21
-109.113
0
LINE
8
BLACK
6
CONTINUOUS
10
108.449
20
-109.113
11
108.574
21
-109.03
0
LINE
8
BLACK
6
CONTINUOUS
10
108.574
20
-109.03
11
108.713
21
-108.972
0
LINE
8
BLACK
6
CONTINUOUS
10
108.713
20
-108.972
11
108.86
21
-108.943
0
LINE
8
BLACK
6
CONTINUOUS
10
108.86
20
-108.943
11
109.01
21
-108.943
0
LINE
8
BLACK
6
CONTINUOUS
10
109.01
20
-108.943
11
109.157
21
-108.972
0
LINE
8
BLACK
6
CONTINUOUS
10
106.617
20
-108.972
11
106.756
21
-109.03
0
LINE
8
BLACK
6
CONTINUOUS
10
106.756
20
-109.03
11
106.881
21
-109.113
0
LINE
8
BLACK
6
CONTINUOUS
10
106.881
20
-109.113
11
106.987
21
-109.219
0
LINE
8
BLACK
6
CONTINUOUS
10
106.987
20
-109.219
11
107.07
21
-109.344
0
LINE
8
BLACK
6
CONTINUOUS
10
107.07
20
-109.344
11
107.128
21
-109.483
0
LINE
8
BLACK
6
CONTINUOUS
10
107.128
20
-109.483
11
107.157
21
-109.63
0
LINE
8
BLACK
6
CONTINUOUS
10
107.157
20
-109.63
11
107.157
21
-109.78
0
LINE
8
BLACK
6
CONTINUOUS
10
107.157
20
-109.78
11
107.128
21
-109.927
0
LINE
8
BLACK
6
CONTINUOUS
10
107.128
20
-109.927
11
107.07
21
-110.066
0
LINE
8
BLACK
6
CONTINUOUS
10
107.07
20
-110.066
11
106.987
21
-110.191
0
LINE
8
BLACK
6
CONTINUOUS
10
106.987
20
-110.191
11
106.881
21
-110.297
0
LINE
8
BLACK
6
CONTINUOUS
10
106.881
20
-110.297
11
106.756
21
-110.38
0
LINE
8
BLACK
6
CONTINUOUS
10
106.756
20
-110.38
11
106.617
21
-110.438
0
LINE
8
BLACK
6
CONTINUOUS
10
106.617
20
-110.438
11
106.47
21
-110.467
0
LINE
8
BLACK
6
CONTINUOUS
10
106.47
20
-110.467
11
106.32
21
-110.467
0
LINE
8
BLACK
6
CONTINUOUS
10
106.32
20
-110.467
11
106.173
21
-110.438
0
LINE
8
BLACK
6
CONTINUOUS
10
106.173
20
-110.438
11
106.034
21
-110.38
0
LINE
8
BLACK
6
CONTINUOUS
10
106.034
20
-110.38
11
105.909
21
-110.297
0
LINE
8
BLACK
6
CONTINUOUS
10
105.909
20
-110.297
11
105.803
21
-110.191
0
LINE
8
BLACK
6
CONTINUOUS
10
105.803
20
-110.191
11
105.72
21
-110.066
0
LINE
8
BLACK
6
CONTINUOUS
10
105.72
20
-110.066
11
105.662
21
-109.927
0
LINE
8
BLACK
6
CONTINUOUS
10
105.662
20
-109.927
11
105.633
21
-109.78
0
LINE
8
BLACK
6
CONTINUOUS
10
105.633
20
-109.78
11
105.633
21
-109.63
0
LINE
8
BLACK
6
CONTINUOUS
10
105.633
20
-109.63
11
105.662
21
-109.483
0
LINE
8
BLACK
6
CONTINUOUS
10
105.662
20
-109.483
11
105.72
21
-109.344
0
LINE
8
BLACK
6
CONTINUOUS
10
105.72
20
-109.344
11
105.803
21
-109.219
0
LINE
8
BLACK
6
CONTINUOUS
10
105.803
20
-109.219
11
105.909
21
-109.113
0
LINE
8
BLACK
6
CONTINUOUS
10
105.909
20
-109.113
11
106.034
21
-109.03
0
LINE
8
BLACK
6
CONTINUOUS
10
106.034
20
-109.03
11
106.173
21
-108.972
0
LINE
8
BLACK
6
CONTINUOUS
10
106.173
20
-108.972
11
106.32
21
-108.943
0
LINE
8
BLACK
6
CONTINUOUS
10
106.32
20
-108.943
11
106.47
21
-108.943
0
LINE
8
BLACK
6
CONTINUOUS
10
106.47
20
-108.943
11
106.617
21
-108.972
0
LINE
8
BLACK
6
CONTINUOUS
10
210.282
20
-108.027
11
210.421
21
-108.085
0
LINE
8
BLACK
6
CONTINUOUS
10
210.421
20
-108.085
11
210.546
21
-108.168
0
LINE
8
BLACK
6
CONTINUOUS
10
210.546
20
-108.168
11
210.652
21
-108.274
0
LINE
8
BLACK
6
CONTINUOUS
10
210.652
20
-108.274
11
210.735
21
-108.399
0
LINE
8
BLACK
6
CONTINUOUS
10
210.735
20
-108.399
11
210.793
21
-108.538
0
LINE
8
BLACK
6
CONTINUOUS
10
210.793
20
-108.538
11
210.822
21
-108.685
0
LINE
8
BLACK
6
CONTINUOUS
10
210.822
20
-108.685
11
210.822
21
-108.835
0
LINE
8
BLACK
6
CONTINUOUS
10
210.822
20
-108.835
11
210.793
21
-108.982
0
LINE
8
BLACK
6
CONTINUOUS
10
210.793
20
-108.982
11
210.735
21
-109.121
0
LINE
8
BLACK
6
CONTINUOUS
10
210.735
20
-109.121
11
210.652
21
-109.246
0
LINE
8
BLACK
6
CONTINUOUS
10
210.652
20
-109.246
11
210.546
21
-109.352
0
LINE
8
BLACK
6
CONTINUOUS
10
210.546
20
-109.352
11
210.421
21
-109.435
0
LINE
8
BLACK
6
CONTINUOUS
10
210.421
20
-109.435
11
210.282
21
-109.493
0
LINE
8
BLACK
6
CONTINUOUS
10
210.282
20
-109.493
11
210.135
21
-109.522
0
LINE
8
BLACK
6
CONTINUOUS
10
210.135
20
-109.522
11
209.985
21
-109.522
0
LINE
8
BLACK
6
CONTINUOUS
10
209.985
20
-109.522
11
209.838
21
-109.493
0
LINE
8
BLACK
6
CONTINUOUS
10
209.838
20
-109.493
11
209.699
21
-109.435
0
LINE
8
BLACK
6
CONTINUOUS
10
209.699
20
-109.435
11
209.574
21
-109.352
0
LINE
8
BLACK
6
CONTINUOUS
10
209.574
20
-109.352
11
209.468
21
-109.246
0
LINE
8
BLACK
6
CONTINUOUS
10
209.468
20
-109.246
11
209.385
21
-109.121
0
LINE
8
BLACK
6
CONTINUOUS
10
209.385
20
-109.121
11
209.327
21
-108.982
0
LINE
8
BLACK
6
CONTINUOUS
10
209.327
20
-108.982
11
209.298
21
-108.835
0
LINE
8
BLACK
6
CONTINUOUS
10
209.298
20
-108.835
11
209.298
21
-108.685
0
LINE
8
BLACK
6
CONTINUOUS
10
209.298
20
-108.685
11
209.327
21
-108.538
0
LINE
8
BLACK
6
CONTINUOUS
10
209.327
20
-108.538
11
209.385
21
-108.399
0
LINE
8
BLACK
6
CONTINUOUS
10
209.385
20
-108.399
11
209.468
21
-108.274
0
LINE
8
BLACK
6
CONTINUOUS
10
209.468
20
-108.274
11
209.574
21
-108.168
0
LINE
8
BLACK
6
CONTINUOUS
10
209.574
20
-108.168
11
209.699
21
-108.085
0
LINE
8
BLACK
6
CONTINUOUS
10
209.699
20
-108.085
11
209.838
21
-108.027
0
LINE
8
BLACK
6
CONTINUOUS
10
209.838
20
-108.027
11
209.985
21
-107.998
0
LINE
8
BLACK
6
CONTINUOUS
10
209.985
20
-107.998
11
210.135
21
-107.998
0
LINE
8
BLACK
6
CONTINUOUS
10
210.135
20
-107.998
11
210.282
21
-108.027
0
LINE
8
BLACK
6
CONTINUOUS
10
207.742
20
-108.027
11
207.881
21
-108.085
0
LINE
8
BLACK
6
CONTINUOUS
10
207.881
20
-108.085
11
208.006
21
-108.168
0
LINE
8
BLACK
6
CONTINUOUS
10
208.006
20
-108.168
11
208.112
21
-108.274
0
LINE
8
BLACK
6
CONTINUOUS
10
208.112
20
-108.274
11
208.195
21
-108.399
0
LINE
8
BLACK
6
CONTINUOUS
10
208.195
20
-108.399
11
208.253
21
-108.538
0
LINE
8
BLACK
6
CONTINUOUS
10
208.253
20
-108.538
11
208.282
21
-108.685
0
LINE
8
BLACK
6
CONTINUOUS
10
208.282
20
-108.685
11
208.282
21
-108.835
0
LINE
8
BLACK
6
CONTINUOUS
10
208.282
20
-108.835
11
208.253
21
-108.982
0
LINE
8
BLACK
6
CONTINUOUS
10
208.253
20
-108.982
11
208.195
21
-109.121
0
LINE
8
BLACK
6
CONTINUOUS
10
208.195
20
-109.121
11
208.112
21
-109.246
0
LINE
8
BLACK
6
CONTINUOUS
10
208.112
20
-109.246
11
208.006
21
-109.352
0
LINE
8
BLACK
6
CONTINUOUS
10
208.006
20
-109.352
11
207.881
21
-109.435
0
LINE
8
BLACK
6
CONTINUOUS
10
207.881
20
-109.435
11
207.742
21
-109.493
0
LINE
8
BLACK
6
CONTINUOUS
10
207.742
20
-109.493
11
207.595
21
-109.522
0
LINE
8
BLACK
6
CONTINUOUS
10
207.595
20
-109.522
11
207.445
21
-109.522
0
LINE
8
BLACK
6
CONTINUOUS
10
207.445
20
-109.522
11
207.298
21
-109.493
0
LINE
8
BLACK
6
CONTINUOUS
10
207.298
20
-109.493
11
207.159
21
-109.435
0
LINE
8
BLACK
6
CONTINUOUS
10
207.159
20
-109.435
11
207.034
21
-109.352
0
LINE
8
BLACK
6
CONTINUOUS
10
207.034
20
-109.352
11
206.928
21
-109.246
0
LINE
8
BLACK
6
CONTINUOUS
10
206.928
20
-109.246
11
206.845
21
-109.121
0
LINE
8
BLACK
6
CONTINUOUS
10
206.845
20
-109.121
11
206.787
21
-108.982
0
LINE
8
BLACK
6
CONTINUOUS
10
206.787
20
-108.982
11
206.758
21
-108.835
0
LINE
8
BLACK
6
CONTINUOUS
10
206.758
20
-108.835
11
206.758
21
-108.685
0
LINE
8
BLACK
6
CONTINUOUS
10
206.758
20
-108.685
11
206.787
21
-108.538
0
LINE
8
BLACK
6
CONTINUOUS
10
206.787
20
-108.538
11
206.845
21
-108.399
0
LINE
8
BLACK
6
CONTINUOUS
10
206.845
20
-108.399
11
206.928
21
-108.274
0
LINE
8
BLACK
6
CONTINUOUS
10
206.928
20
-108.274
11
207.034
21
-108.168
0
LINE
8
BLACK
6
CONTINUOUS
10
207.034
20
-108.168
11
207.159
21
-108.085
0
LINE
8
BLACK
6
CONTINUOUS
10
207.159
20
-108.085
11
207.298
21
-108.027
0
LINE
8
BLACK
6
CONTINUOUS
10
207.298
20
-108.027
11
207.445
21
-107.998
0
LINE
8
BLACK
6
CONTINUOUS
10
207.445
20
-107.998
11
207.595
21
-107.998
0
LINE
8
BLACK
6
CONTINUOUS
10
207.595
20
-107.998
11
207.742
21
-108.027
0
LINE
8
BLACK
6
CONTINUOUS
10
114.237
20
-104.297
11
114.376
21
-104.355
0
LINE
8
BLACK
6
CONTINUOUS
10
114.376
20
-104.355
11
114.501
21
-104.438
0
LINE
8
BLACK
6
CONTINUOUS
10
114.501
20
-104.438
11
114.607
21
-104.544
0
LINE
8
BLACK
6
CONTINUOUS
10
114.607
20
-104.544
11
114.69
21
-104.669
0
LINE
8
BLACK
6
CONTINUOUS
10
114.69
20
-104.669
11
114.748
21
-104.808
0
LINE
8
BLACK
6
CONTINUOUS
10
114.748
20
-104.808
11
114.777
21
-104.955
0
LINE
8
BLACK
6
CONTINUOUS
10
114.777
20
-104.955
11
114.777
21
-105.105
0
LINE
8
BLACK
6
CONTINUOUS
10
114.777
20
-105.105
11
114.748
21
-105.252
0
LINE
8
BLACK
6
CONTINUOUS
10
114.748
20
-105.252
11
114.69
21
-105.391
0
LINE
8
BLACK
6
CONTINUOUS
10
114.69
20
-105.391
11
114.607
21
-105.516
0
LINE
8
BLACK
6
CONTINUOUS
10
114.607
20
-105.516
11
114.501
21
-105.622
0
LINE
8
BLACK
6
CONTINUOUS
10
114.501
20
-105.622
11
114.376
21
-105.705
0
LINE
8
BLACK
6
CONTINUOUS
10
114.376
20
-105.705
11
114.237
21
-105.763
0
LINE
8
BLACK
6
CONTINUOUS
10
114.237
20
-105.763
11
114.09
21
-105.792
0
LINE
8
BLACK
6
CONTINUOUS
10
114.09
20
-105.792
11
113.94
21
-105.792
0
LINE
8
BLACK
6
CONTINUOUS
10
113.94
20
-105.792
11
113.793
21
-105.763
0
LINE
8
BLACK
6
CONTINUOUS
10
113.793
20
-105.763
11
113.654
21
-105.705
0
LINE
8
BLACK
6
CONTINUOUS
10
113.654
20
-105.705
11
113.529
21
-105.622
0
LINE
8
BLACK
6
CONTINUOUS
10
113.529
20
-105.622
11
113.423
21
-105.516
0
LINE
8
BLACK
6
CONTINUOUS
10
113.423
20
-105.516
11
113.34
21
-105.391
0
LINE
8
BLACK
6
CONTINUOUS
10
113.34
20
-105.391
11
113.282
21
-105.252
0
LINE
8
BLACK
6
CONTINUOUS
10
113.282
20
-105.252
11
113.253
21
-105.105
0
LINE
8
BLACK
6
CONTINUOUS
10
113.253
20
-105.105
11
113.253
21
-104.955
0
LINE
8
BLACK
6
CONTINUOUS
10
113.253
20
-104.955
11
113.282
21
-104.808
0
LINE
8
BLACK
6
CONTINUOUS
10
113.282
20
-104.808
11
113.34
21
-104.669
0
LINE
8
BLACK
6
CONTINUOUS
10
113.34
20
-104.669
11
113.423
21
-104.544
0
LINE
8
BLACK
6
CONTINUOUS
10
113.423
20
-104.544
11
113.529
21
-104.438
0
LINE
8
BLACK
6
CONTINUOUS
10
113.529
20
-104.438
11
113.654
21
-104.355
0
LINE
8
BLACK
6
CONTINUOUS
10
113.654
20
-104.355
11
113.793
21
-104.297
0
LINE
8
BLACK
6
CONTINUOUS
10
113.793
20
-104.297
11
113.94
21
-104.268
0
LINE
8
BLACK
6
CONTINUOUS
10
113.94
20
-104.268
11
114.09
21
-104.268
0
LINE
8
BLACK
6
CONTINUOUS
10
114.09
20
-104.268
11
114.237
21
-104.297
0
LINE
8
BLACK
6
CONTINUOUS
10
109.157
20
-104.297
11
109.296
21
-104.355
0
LINE
8
BLACK
6
CONTINUOUS
10
109.296
20
-104.355
11
109.421
21
-104.438
0
LINE
8
BLACK
6
CONTINUOUS
10
109.421
20
-104.438
11
109.527
21
-104.544
0
LINE
8
BLACK
6
CONTINUOUS
10
109.527
20
-104.544
11
109.61
21
-104.669
0
LINE
8
BLACK
6
CONTINUOUS
10
109.61
20
-104.669
11
109.668
21
-104.808
0
LINE
8
BLACK
6
CONTINUOUS
10
109.668
20
-104.808
11
109.697
21
-104.955
0
LINE
8
BLACK
6
CONTINUOUS
10
109.697
20
-104.955
11
109.697
21
-105.105
0
LINE
8
BLACK
6
CONTINUOUS
10
109.697
20
-105.105
11
109.668
21
-105.252
0
LINE
8
BLACK
6
CONTINUOUS
10
109.668
20
-105.252
11
109.61
21
-105.391
0
LINE
8
BLACK
6
CONTINUOUS
10
109.61
20
-105.391
11
109.527
21
-105.516
0
LINE
8
BLACK
6
CONTINUOUS
10
109.527
20
-105.516
11
109.421
21
-105.622
0
LINE
8
BLACK
6
CONTINUOUS
10
109.421
20
-105.622
11
109.296
21
-105.705
0
LINE
8
BLACK
6
CONTINUOUS
10
109.296
20
-105.705
11
109.157
21
-105.763
0
LINE
8
BLACK
6
CONTINUOUS
10
109.157
20
-105.763
11
109.01
21
-105.792
0
LINE
8
BLACK
6
CONTINUOUS
10
109.01
20
-105.792
11
108.86
21
-105.792
0
LINE
8
BLACK
6
CONTINUOUS
10
108.86
20
-105.792
11
108.713
21
-105.763
0
LINE
8
BLACK
6
CONTINUOUS
10
108.713
20
-105.763
11
108.574
21
-105.705
0
LINE
8
BLACK
6
CONTINUOUS
10
108.574
20
-105.705
11
108.449
21
-105.622
0
LINE
8
BLACK
6
CONTINUOUS
10
108.449
20
-105.622
11
108.343
21
-105.516
0
LINE
8
BLACK
6
CONTINUOUS
10
108.343
20
-105.516
11
108.26
21
-105.391
0
LINE
8
BLACK
6
CONTINUOUS
10
108.26
20
-105.391
11
108.202
21
-105.252
0
LINE
8
BLACK
6
CONTINUOUS
10
108.202
20
-105.252
11
108.173
21
-105.105
0
LINE
8
BLACK
6
CONTINUOUS
10
108.173
20
-105.105
11
108.173
21
-104.955
0
LINE
8
BLACK
6
CONTINUOUS
10
108.173
20
-104.955
11
108.202
21
-104.808
0
LINE
8
BLACK
6
CONTINUOUS
10
108.202
20
-104.808
11
108.26
21
-104.669
0
LINE
8
BLACK
6
CONTINUOUS
10
108.26
20
-104.669
11
108.343
21
-104.544
0
LINE
8
BLACK
6
CONTINUOUS
10
108.343
20
-104.544
11
108.449
21
-104.438
0
LINE
8
BLACK
6
CONTINUOUS
10
108.449
20
-104.438
11
108.574
21
-104.355
0
LINE
8
BLACK
6
CONTINUOUS
10
108.574
20
-104.355
11
108.713
21
-104.297
0
LINE
8
BLACK
6
CONTINUOUS
10
108.713
20
-104.297
11
108.86
21
-104.268
0
LINE
8
BLACK
6
CONTINUOUS
10
108.86
20
-104.268
11
109.01
21
-104.268
0
LINE
8
BLACK
6
CONTINUOUS
10
109.01
20
-104.268
11
109.157
21
-104.297
0
LINE
8
BLACK
6
CONTINUOUS
10
202.307
20
-104.272
11
202.446
21
-104.33
0
LINE
8
BLACK
6
CONTINUOUS
10
202.446
20
-104.33
11
202.571
21
-104.413
0
LINE
8
BLACK
6
CONTINUOUS
10
202.571
20
-104.413
11
202.677
21
-104.519
0
LINE
8
BLACK
6
CONTINUOUS
10
202.677
20
-104.519
11
202.76
21
-104.644
0
LINE
8
BLACK
6
CONTINUOUS
10
202.76
20
-104.644
11
202.818
21
-104.783
0
LINE
8
BLACK
6
CONTINUOUS
10
202.818
20
-104.783
11
202.847
21
-104.93
0
LINE
8
BLACK
6
CONTINUOUS
10
202.847
20
-104.93
11
202.847
21
-105.08
0
LINE
8
BLACK
6
CONTINUOUS
10
202.847
20
-105.08
11
202.818
21
-105.227
0
LINE
8
BLACK
6
CONTINUOUS
10
202.818
20
-105.227
11
202.76
21
-105.366
0
LINE
8
BLACK
6
CONTINUOUS
10
202.76
20
-105.366
11
202.677
21
-105.491
0
LINE
8
BLACK
6
CONTINUOUS
10
202.677
20
-105.491
11
202.571
21
-105.597
0
LINE
8
BLACK
6
CONTINUOUS
10
202.571
20
-105.597
11
202.446
21
-105.68
0
LINE
8
BLACK
6
CONTINUOUS
10
202.446
20
-105.68
11
202.307
21
-105.738
0
LINE
8
BLACK
6
CONTINUOUS
10
202.307
20
-105.738
11
202.16
21
-105.767
0
LINE
8
BLACK
6
CONTINUOUS
10
202.16
20
-105.767
11
202.01
21
-105.767
0
LINE
8
BLACK
6
CONTINUOUS
10
202.01
20
-105.767
11
201.863
21
-105.738
0
LINE
8
BLACK
6
CONTINUOUS
10
201.863
20
-105.738
11
201.724
21
-105.68
0
LINE
8
BLACK
6
CONTINUOUS
10
201.724
20
-105.68
11
201.599
21
-105.597
0
LINE
8
BLACK
6
CONTINUOUS
10
201.599
20
-105.597
11
201.493
21
-105.491
0
LINE
8
BLACK
6
CONTINUOUS
10
201.493
20
-105.491
11
201.41
21
-105.366
0
LINE
8
BLACK
6
CONTINUOUS
10
201.41
20
-105.366
11
201.352
21
-105.227
0
LINE
8
BLACK
6
CONTINUOUS
10
201.352
20
-105.227
11
201.323
21
-105.08
0
LINE
8
BLACK
6
CONTINUOUS
10
201.323
20
-105.08
11
201.323
21
-104.93
0
LINE
8
BLACK
6
CONTINUOUS
10
201.323
20
-104.93
11
201.352
21
-104.783
0
LINE
8
BLACK
6
CONTINUOUS
10
201.352
20
-104.783
11
201.41
21
-104.644
0
LINE
8
BLACK
6
CONTINUOUS
10
201.41
20
-104.644
11
201.493
21
-104.519
0
LINE
8
BLACK
6
CONTINUOUS
10
201.493
20
-104.519
11
201.599
21
-104.413
0
LINE
8
BLACK
6
CONTINUOUS
10
201.599
20
-104.413
11
201.724
21
-104.33
0
LINE
8
BLACK
6
CONTINUOUS
10
201.724
20
-104.33
11
201.863
21
-104.272
0
LINE
8
BLACK
6
CONTINUOUS
10
201.863
20
-104.272
11
202.01
21
-104.243
0
LINE
8
BLACK
6
CONTINUOUS
10
202.01
20
-104.243
11
202.16
21
-104.243
0
LINE
8
BLACK
6
CONTINUOUS
10
202.16
20
-104.243
11
202.307
21
-104.272
0
LINE
8
BLACK
6
CONTINUOUS
10
207.387
20
-104.272
11
207.526
21
-104.33
0
LINE
8
BLACK
6
CONTINUOUS
10
207.526
20
-104.33
11
207.651
21
-104.413
0
LINE
8
BLACK
6
CONTINUOUS
10
207.651
20
-104.413
11
207.757
21
-104.519
0
LINE
8
BLACK
6
CONTINUOUS
10
207.757
20
-104.519
11
207.84
21
-104.644
0
LINE
8
BLACK
6
CONTINUOUS
10
207.84
20
-104.644
11
207.898
21
-104.783
0
LINE
8
BLACK
6
CONTINUOUS
10
207.898
20
-104.783
11
207.927
21
-104.93
0
LINE
8
BLACK
6
CONTINUOUS
10
207.927
20
-104.93
11
207.927
21
-105.08
0
LINE
8
BLACK
6
CONTINUOUS
10
207.927
20
-105.08
11
207.898
21
-105.227
0
LINE
8
BLACK
6
CONTINUOUS
10
207.898
20
-105.227
11
207.84
21
-105.366
0
LINE
8
BLACK
6
CONTINUOUS
10
207.84
20
-105.366
11
207.757
21
-105.491
0
LINE
8
BLACK
6
CONTINUOUS
10
207.757
20
-105.491
11
207.651
21
-105.597
0
LINE
8
BLACK
6
CONTINUOUS
10
207.651
20
-105.597
11
207.526
21
-105.68
0
LINE
8
BLACK
6
CONTINUOUS
10
207.526
20
-105.68
11
207.387
21
-105.738
0
LINE
8
BLACK
6
CONTINUOUS
10
207.387
20
-105.738
11
207.24
21
-105.767
0
LINE
8
BLACK
6
CONTINUOUS
10
207.24
20
-105.767
11
207.09
21
-105.767
0
LINE
8
BLACK
6
CONTINUOUS
10
207.09
20
-105.767
11
206.943
21
-105.738
0
LINE
8
BLACK
6
CONTINUOUS
10
206.943
20
-105.738
11
206.804
21
-105.68
0
LINE
8
BLACK
6
CONTINUOUS
10
206.804
20
-105.68
11
206.679
21
-105.597
0
LINE
8
BLACK
6
CONTINUOUS
10
206.679
20
-105.597
11
206.573
21
-105.491
0
LINE
8
BLACK
6
CONTINUOUS
10
206.573
20
-105.491
11
206.49
21
-105.366
0
LINE
8
BLACK
6
CONTINUOUS
10
206.49
20
-105.366
11
206.432
21
-105.227
0
LINE
8
BLACK
6
CONTINUOUS
10
206.432
20
-105.227
11
206.403
21
-105.08
0
LINE
8
BLACK
6
CONTINUOUS
10
206.403
20
-105.08
11
206.403
21
-104.93
0
LINE
8
BLACK
6
CONTINUOUS
10
206.403
20
-104.93
11
206.432
21
-104.783
0
LINE
8
BLACK
6
CONTINUOUS
10
206.432
20
-104.783
11
206.49
21
-104.644
0
LINE
8
BLACK
6
CONTINUOUS
10
206.49
20
-104.644
11
206.573
21
-104.519
0
LINE
8
BLACK
6
CONTINUOUS
10
206.573
20
-104.519
11
206.679
21
-104.413
0
LINE
8
BLACK
6
CONTINUOUS
10
206.679
20
-104.413
11
206.804
21
-104.33
0
LINE
8
BLACK
6
CONTINUOUS
10
206.804
20
-104.33
11
206.943
21
-104.272
0
LINE
8
BLACK
6
CONTINUOUS
10
206.943
20
-104.272
11
207.09
21
-104.243
0
LINE
8
BLACK
6
CONTINUOUS
10
207.09
20
-104.243
11
207.24
21
-104.243
0
LINE
8
BLACK
6
CONTINUOUS
10
207.24
20
-104.243
11
207.387
21
-104.272
0
LINE
8
BLACK
6
CONTINUOUS
10
114.237
20
-101.757
11
114.376
21
-101.815
0
LINE
8
BLACK
6
CONTINUOUS
10
114.376
20
-101.815
11
114.501
21
-101.898
0
LINE
8
BLACK
6
CONTINUOUS
10
114.501
20
-101.898
11
114.607
21
-102.004
0
LINE
8
BLACK
6
CONTINUOUS
10
114.607
20
-102.004
11
114.69
21
-102.129
0
LINE
8
BLACK
6
CONTINUOUS
10
114.69
20
-102.129
11
114.748
21
-102.268
0
LINE
8
BLACK
6
CONTINUOUS
10
114.748
20
-102.268
11
114.777
21
-102.415
0
LINE
8
BLACK
6
CONTINUOUS
10
114.777
20
-102.415
11
114.777
21
-102.565
0
LINE
8
BLACK
6
CONTINUOUS
10
114.777
20
-102.565
11
114.748
21
-102.712
0
LINE
8
BLACK
6
CONTINUOUS
10
114.748
20
-102.712
11
114.69
21
-102.851
0
LINE
8
BLACK
6
CONTINUOUS
10
114.69
20
-102.851
11
114.607
21
-102.976
0
LINE
8
BLACK
6
CONTINUOUS
10
114.607
20
-102.976
11
114.501
21
-103.082
0
LINE
8
BLACK
6
CONTINUOUS
10
114.501
20
-103.082
11
114.376
21
-103.165
0
LINE
8
BLACK
6
CONTINUOUS
10
114.376
20
-103.165
11
114.237
21
-103.223
0
LINE
8
BLACK
6
CONTINUOUS
10
114.237
20
-103.223
11
114.09
21
-103.252
0
LINE
8
BLACK
6
CONTINUOUS
10
114.09
20
-103.252
11
113.94
21
-103.252
0
LINE
8
BLACK
6
CONTINUOUS
10
113.94
20
-103.252
11
113.793
21
-103.223
0
LINE
8
BLACK
6
CONTINUOUS
10
113.793
20
-103.223
11
113.654
21
-103.165
0
LINE
8
BLACK
6
CONTINUOUS
10
113.654
20
-103.165
11
113.529
21
-103.082
0
LINE
8
BLACK
6
CONTINUOUS
10
113.529
20
-103.082
11
113.423
21
-102.976
0
LINE
8
BLACK
6
CONTINUOUS
10
113.423
20
-102.976
11
113.34
21
-102.851
0
LINE
8
BLACK
6
CONTINUOUS
10
113.34
20
-102.851
11
113.282
21
-102.712
0
LINE
8
BLACK
6
CONTINUOUS
10
113.282
20
-102.712
11
113.253
21
-102.565
0
LINE
8
BLACK
6
CONTINUOUS
10
113.253
20
-102.565
11
113.253
21
-102.415
0
LINE
8
BLACK
6
CONTINUOUS
10
113.253
20
-102.415
11
113.282
21
-102.268
0
LINE
8
BLACK
6
CONTINUOUS
10
113.282
20
-102.268
11
113.34
21
-102.129
0
LINE
8
BLACK
6
CONTINUOUS
10
113.34
20
-102.129
11
113.423
21
-102.004
0
LINE
8
BLACK
6
CONTINUOUS
10
113.423
20
-102.004
11
113.529
21
-101.898
0
LINE
8
BLACK
6
CONTINUOUS
10
113.529
20
-101.898
11
113.654
21
-101.815
0
LINE
8
BLACK
6
CONTINUOUS
10
113.654
20
-101.815
11
113.793
21
-101.757
0
LINE
8
BLACK
6
CONTINUOUS
10
113.793
20
-101.757
11
113.94
21
-101.728
0
LINE
8
BLACK
6
CONTINUOUS
10
113.94
20
-101.728
11
114.09
21
-101.728
0
LINE
8
BLACK
6
CONTINUOUS
10
114.09
20
-101.728
11
114.237
21
-101.757
0
LINE
8
BLACK
6
CONTINUOUS
10
109.157
20
-101.757
11
109.296
21
-101.815
0
LINE
8
BLACK
6
CONTINUOUS
10
109.296
20
-101.815
11
109.421
21
-101.898
0
LINE
8
BLACK
6
CONTINUOUS
10
109.421
20
-101.898
11
109.527
21
-102.004
0
LINE
8
BLACK
6
CONTINUOUS
10
109.527
20
-102.004
11
109.61
21
-102.129
0
LINE
8
BLACK
6
CONTINUOUS
10
109.61
20
-102.129
11
109.668
21
-102.268
0
LINE
8
BLACK
6
CONTINUOUS
10
109.668
20
-102.268
11
109.697
21
-102.415
0
LINE
8
BLACK
6
CONTINUOUS
10
109.697
20
-102.415
11
109.697
21
-102.565
0
LINE
8
BLACK
6
CONTINUOUS
10
109.697
20
-102.565
11
109.668
21
-102.712
0
LINE
8
BLACK
6
CONTINUOUS
10
109.668
20
-102.712
11
109.61
21
-102.851
0
LINE
8
BLACK
6
CONTINUOUS
10
109.61
20
-102.851
11
109.527
21
-102.976
0
LINE
8
BLACK
6
CONTINUOUS
10
109.527
20
-102.976
11
109.421
21
-103.082
0
LINE
8
BLACK
6
CONTINUOUS
10
109.421
20
-103.082
11
109.296
21
-103.165
0
LINE
8
BLACK
6
CONTINUOUS
10
109.296
20
-103.165
11
109.157
21
-103.223
0
LINE
8
BLACK
6
CONTINUOUS
10
109.157
20
-103.223
11
109.01
21
-103.252
0
LINE
8
BLACK
6
CONTINUOUS
10
109.01
20
-103.252
11
108.86
21
-103.252
0
LINE
8
BLACK
6
CONTINUOUS
10
108.86
20
-103.252
11
108.713
21
-103.223
0
LINE
8
BLACK
6
CONTINUOUS
10
108.713
20
-103.223
11
108.574
21
-103.165
0
LINE
8
BLACK
6
CONTINUOUS
10
108.574
20
-103.165
11
108.449
21
-103.082
0
LINE
8
BLACK
6
CONTINUOUS
10
108.449
20
-103.082
11
108.343
21
-102.976
0
LINE
8
BLACK
6
CONTINUOUS
10
108.343
20
-102.976
11
108.26
21
-102.851
0
LINE
8
BLACK
6
CONTINUOUS
10
108.26
20
-102.851
11
108.202
21
-102.712
0
LINE
8
BLACK
6
CONTINUOUS
10
108.202
20
-102.712
11
108.173
21
-102.565
0
LINE
8
BLACK
6
CONTINUOUS
10
108.173
20
-102.565
11
108.173
21
-102.415
0
LINE
8
BLACK
6
CONTINUOUS
10
108.173
20
-102.415
11
108.202
21
-102.268
0
LINE
8
BLACK
6
CONTINUOUS
10
108.202
20
-102.268
11
108.26
21
-102.129
0
LINE
8
BLACK
6
CONTINUOUS
10
108.26
20
-102.129
11
108.343
21
-102.004
0
LINE
8
BLACK
6
CONTINUOUS
10
108.343
20
-102.004
11
108.449
21
-101.898
0
LINE
8
BLACK
6
CONTINUOUS
10
108.449
20
-101.898
11
108.574
21
-101.815
0
LINE
8
BLACK
6
CONTINUOUS
10
108.574
20
-101.815
11
108.713
21
-101.757
0
LINE
8
BLACK
6
CONTINUOUS
10
108.713
20
-101.757
11
108.86
21
-101.728
0
LINE
8
BLACK
6
CONTINUOUS
10
108.86
20
-101.728
11
109.01
21
-101.728
0
LINE
8
BLACK
6
CONTINUOUS
10
109.01
20
-101.728
11
109.157
21
-101.757
0
LINE
8
BLACK
6
CONTINUOUS
10
202.307
20
-101.732
11
202.446
21
-101.79
0
LINE
8
BLACK
6
CONTINUOUS
10
202.446
20
-101.79
11
202.571
21
-101.873
0
LINE
8
BLACK
6
CONTINUOUS
10
202.571
20
-101.873
11
202.677
21
-101.979
0
LINE
8
BLACK
6
CONTINUOUS
10
202.677
20
-101.979
11
202.76
21
-102.104
0
LINE
8
BLACK
6
CONTINUOUS
10
202.76
20
-102.104
11
202.818
21
-102.243
0
LINE
8
BLACK
6
CONTINUOUS
10
202.818
20
-102.243
11
202.847
21
-102.39
0
LINE
8
BLACK
6
CONTINUOUS
10
202.847
20
-102.39
11
202.847
21
-102.54
0
LINE
8
BLACK
6
CONTINUOUS
10
202.847
20
-102.54
11
202.818
21
-102.687
0
LINE
8
BLACK
6
CONTINUOUS
10
202.818
20
-102.687
11
202.76
21
-102.826
0
LINE
8
BLACK
6
CONTINUOUS
10
202.76
20
-102.826
11
202.677
21
-102.951
0
LINE
8
BLACK
6
CONTINUOUS
10
202.677
20
-102.951
11
202.571
21
-103.057
0
LINE
8
BLACK
6
CONTINUOUS
10
202.571
20
-103.057
11
202.446
21
-103.14
0
LINE
8
BLACK
6
CONTINUOUS
10
202.446
20
-103.14
11
202.307
21
-103.198
0
LINE
8
BLACK
6
CONTINUOUS
10
202.307
20
-103.198
11
202.16
21
-103.227
0
LINE
8
BLACK
6
CONTINUOUS
10
202.16
20
-103.227
11
202.01
21
-103.227
0
LINE
8
BLACK
6
CONTINUOUS
10
202.01
20
-103.227
11
201.863
21
-103.198
0
LINE
8
BLACK
6
CONTINUOUS
10
201.863
20
-103.198
11
201.724
21
-103.14
0
LINE
8
BLACK
6
CONTINUOUS
10
201.724
20
-103.14
11
201.599
21
-103.057
0
LINE
8
BLACK
6
CONTINUOUS
10
201.599
20
-103.057
11
201.493
21
-102.951
0
LINE
8
BLACK
6
CONTINUOUS
10
201.493
20
-102.951
11
201.41
21
-102.826
0
LINE
8
BLACK
6
CONTINUOUS
10
201.41
20
-102.826
11
201.352
21
-102.687
0
LINE
8
BLACK
6
CONTINUOUS
10
201.352
20
-102.687
11
201.323
21
-102.54
0
LINE
8
BLACK
6
CONTINUOUS
10
201.323
20
-102.54
11
201.323
21
-102.39
0
LINE
8
BLACK
6
CONTINUOUS
10
201.323
20
-102.39
11
201.352
21
-102.243
0
LINE
8
BLACK
6
CONTINUOUS
10
201.352
20
-102.243
11
201.41
21
-102.104
0
LINE
8
BLACK
6
CONTINUOUS
10
201.41
20
-102.104
11
201.493
21
-101.979
0
LINE
8
BLACK
6
CONTINUOUS
10
201.493
20
-101.979
11
201.599
21
-101.873
0
LINE
8
BLACK
6
CONTINUOUS
10
201.599
20
-101.873
11
201.724
21
-101.79
0
LINE
8
BLACK
6
CONTINUOUS
10
201.724
20
-101.79
11
201.863
21
-101.732
0
LINE
8
BLACK
6
CONTINUOUS
10
201.863
20
-101.732
11
202.01
21
-101.703
0
LINE
8
BLACK
6
CONTINUOUS
10
202.01
20
-101.703
11
202.16
21
-101.703
0
LINE
8
BLACK
6
CONTINUOUS
10
202.16
20
-101.703
11
202.307
21
-101.732
0
LINE
8
BLACK
6
CONTINUOUS
10
207.387
20
-101.732
11
207.526
21
-101.79
0
LINE
8
BLACK
6
CONTINUOUS
10
207.526
20
-101.79
11
207.651
21
-101.873
0
LINE
8
BLACK
6
CONTINUOUS
10
207.651
20
-101.873
11
207.757
21
-101.979
0
LINE
8
BLACK
6
CONTINUOUS
10
207.757
20
-101.979
11
207.84
21
-102.104
0
LINE
8
BLACK
6
CONTINUOUS
10
207.84
20
-102.104
11
207.898
21
-102.243
0
LINE
8
BLACK
6
CONTINUOUS
10
207.898
20
-102.243
11
207.927
21
-102.39
0
LINE
8
BLACK
6
CONTINUOUS
10
207.927
20
-102.39
11
207.927
21
-102.54
0
LINE
8
BLACK
6
CONTINUOUS
10
207.927
20
-102.54
11
207.898
21
-102.687
0
LINE
8
BLACK
6
CONTINUOUS
10
207.898
20
-102.687
11
207.84
21
-102.826
0
LINE
8
BLACK
6
CONTINUOUS
10
207.84
20
-102.826
11
207.757
21
-102.951
0
LINE
8
BLACK
6
CONTINUOUS
10
207.757
20
-102.951
11
207.651
21
-103.057
0
LINE
8
BLACK
6
CONTINUOUS
10
207.651
20
-103.057
11
207.526
21
-103.14
0
LINE
8
BLACK
6
CONTINUOUS
10
207.526
20
-103.14
11
207.387
21
-103.198
0
LINE
8
BLACK
6
CONTINUOUS
10
207.387
20
-103.198
11
207.24
21
-103.227
0
LINE
8
BLACK
6
CONTINUOUS
10
207.24
20
-103.227
11
207.09
21
-103.227
0
LINE
8
BLACK
6
CONTINUOUS
10
207.09
20
-103.227
11
206.943
21
-103.198
0
LINE
8
BLACK
6
CONTINUOUS
10
206.943
20
-103.198
11
206.804
21
-103.14
0
LINE
8
BLACK
6
CONTINUOUS
10
206.804
20
-103.14
11
206.679
21
-103.057
0
LINE
8
BLACK
6
CONTINUOUS
10
206.679
20
-103.057
11
206.573
21
-102.951
0
LINE
8
BLACK
6
CONTINUOUS
10
206.573
20
-102.951
11
206.49
21
-102.826
0
LINE
8
BLACK
6
CONTINUOUS
10
206.49
20
-102.826
11
206.432
21
-102.687
0
LINE
8
BLACK
6
CONTINUOUS
10
206.432
20
-102.687
11
206.403
21
-102.54
0
LINE
8
BLACK
6
CONTINUOUS
10
206.403
20
-102.54
11
206.403
21
-102.39
0
LINE
8
BLACK
6
CONTINUOUS
10
206.403
20
-102.39
11
206.432
21
-102.243
0
LINE
8
BLACK
6
CONTINUOUS
10
206.432
20
-102.243
11
206.49
21
-102.104
0
LINE
8
BLACK
6
CONTINUOUS
10
206.49
20
-102.104
11
206.573
21
-101.979
0
LINE
8
BLACK
6
CONTINUOUS
10
206.573
20
-101.979
11
206.679
21
-101.873
0
LINE
8
BLACK
6
CONTINUOUS
10
206.679
20
-101.873
11
206.804
21
-101.79
0
LINE
8
BLACK
6
CONTINUOUS
10
206.804
20
-101.79
11
206.943
21
-101.732
0
LINE
8
BLACK
6
CONTINUOUS
10
206.943
20
-101.732
11
207.09
21
-101.703
0
LINE
8
BLACK
6
CONTINUOUS
10
207.09
20
-101.703
11
207.24
21
-101.703
0
LINE
8
BLACK
6
CONTINUOUS
10
207.24
20
-101.703
11
207.387
21
-101.732
0
LINE
8
BLACK
6
CONTINUOUS
10
109.157
20
-99.2173
11
109.296
21
-99.2747
0
LINE
8
BLACK
6
CONTINUOUS
10
109.296
20
-99.2747
11
109.421
21
-99.3581
0
LINE
8
BLACK
6
CONTINUOUS
10
109.421
20
-99.3581
11
109.527
21
-99.4643
0
LINE
8
BLACK
6
CONTINUOUS
10
109.527
20
-99.4643
11
109.61
21
-99.5891
0
LINE
8
BLACK
6
CONTINUOUS
10
109.61
20
-99.5891
11
109.668
21
-99.7277
0
LINE
8
BLACK
6
CONTINUOUS
10
109.668
20
-99.7277
11
109.697
21
-99.8749
0
LINE
8
BLACK
6
CONTINUOUS
10
109.697
20
-99.8749
11
109.697
21
-100.025
0
LINE
8
BLACK
6
CONTINUOUS
10
109.697
20
-100.025
11
109.668
21
-100.172
0
LINE
8
BLACK
6
CONTINUOUS
10
109.668
20
-100.172
11
109.61
21
-100.311
0
LINE
8
BLACK
6
CONTINUOUS
10
109.61
20
-100.311
11
109.527
21
-100.436
0
LINE
8
BLACK
6
CONTINUOUS
10
109.527
20
-100.436
11
109.421
21
-100.542
0
LINE
8
BLACK
6
CONTINUOUS
10
109.421
20
-100.542
11
109.296
21
-100.625
0
LINE
8
BLACK
6
CONTINUOUS
10
109.296
20
-100.625
11
109.157
21
-100.683
0
LINE
8
BLACK
6
CONTINUOUS
10
109.157
20
-100.683
11
109.01
21
-100.712
0
LINE
8
BLACK
6
CONTINUOUS
10
109.01
20
-100.712
11
108.86
21
-100.712
0
LINE
8
BLACK
6
CONTINUOUS
10
108.86
20
-100.712
11
108.713
21
-100.683
0
LINE
8
BLACK
6
CONTINUOUS
10
108.713
20
-100.683
11
108.574
21
-100.625
0
LINE
8
BLACK
6
CONTINUOUS
10
108.574
20
-100.625
11
108.449
21
-100.542
0
LINE
8
BLACK
6
CONTINUOUS
10
108.449
20
-100.542
11
108.343
21
-100.436
0
LINE
8
BLACK
6
CONTINUOUS
10
108.343
20
-100.436
11
108.26
21
-100.311
0
LINE
8
BLACK
6
CONTINUOUS
10
108.26
20
-100.311
11
108.202
21
-100.172
0
LINE
8
BLACK
6
CONTINUOUS
10
108.202
20
-100.172
11
108.173
21
-100.025
0
LINE
8
BLACK
6
CONTINUOUS
10
108.173
20
-100.025
11
108.173
21
-99.8749
0
LINE
8
BLACK
6
CONTINUOUS
10
108.173
20
-99.8749
11
108.202
21
-99.7277
0
LINE
8
BLACK
6
CONTINUOUS
10
108.202
20
-99.7277
11
108.26
21
-99.5891
0
LINE
8
BLACK
6
CONTINUOUS
10
108.26
20
-99.5891
11
108.343
21
-99.4643
0
LINE
8
BLACK
6
CONTINUOUS
10
108.343
20
-99.4643
11
108.449
21
-99.3581
0
LINE
8
BLACK
6
CONTINUOUS
10
108.449
20
-99.3581
11
108.574
21
-99.2747
0
LINE
8
BLACK
6
CONTINUOUS
10
108.574
20
-99.2747
11
108.713
21
-99.2173
0
LINE
8
BLACK
6
CONTINUOUS
10
108.713
20
-99.2173
11
108.86
21
-99.188
0
LINE
8
BLACK
6
CONTINUOUS
10
108.86
20
-99.188
11
109.01
21
-99.188
0
LINE
8
BLACK
6
CONTINUOUS
10
109.01
20
-99.188
11
109.157
21
-99.2173
0
LINE
8
BLACK
6
CONTINUOUS
10
114.237
20
-99.2173
11
114.376
21
-99.2747
0
LINE
8
BLACK
6
CONTINUOUS
10
114.376
20
-99.2747
11
114.501
21
-99.3581
0
LINE
8
BLACK
6
CONTINUOUS
10
114.501
20
-99.3581
11
114.607
21
-99.4643
0
LINE
8
BLACK
6
CONTINUOUS
10
114.607
20
-99.4643
11
114.69
21
-99.5891
0
LINE
8
BLACK
6
CONTINUOUS
10
114.69
20
-99.5891
11
114.748
21
-99.7277
0
LINE
8
BLACK
6
CONTINUOUS
10
114.748
20
-99.7277
11
114.777
21
-99.8749
0
LINE
8
BLACK
6
CONTINUOUS
10
114.777
20
-99.8749
11
114.777
21
-100.025
0
LINE
8
BLACK
6
CONTINUOUS
10
114.777
20
-100.025
11
114.748
21
-100.172
0
LINE
8
BLACK
6
CONTINUOUS
10
114.748
20
-100.172
11
114.69
21
-100.311
0
LINE
8
BLACK
6
CONTINUOUS
10
114.69
20
-100.311
11
114.607
21
-100.436
0
LINE
8
BLACK
6
CONTINUOUS
10
114.607
20
-100.436
11
114.501
21
-100.542
0
LINE
8
BLACK
6
CONTINUOUS
10
114.501
20
-100.542
11
114.376
21
-100.625
0
LINE
8
BLACK
6
CONTINUOUS
10
114.376
20
-100.625
11
114.237
21
-100.683
0
LINE
8
BLACK
6
CONTINUOUS
10
114.237
20
-100.683
11
114.09
21
-100.712
0
LINE
8
BLACK
6
CONTINUOUS
10
114.09
20
-100.712
11
113.94
21
-100.712
0
LINE
8
BLACK
6
CONTINUOUS
10
113.94
20
-100.712
11
113.793
21
-100.683
0
LINE
8
BLACK
6
CONTINUOUS
10
113.793
20
-100.683
11
113.654
21
-100.625
0
LINE
8
BLACK
6
CONTINUOUS
10
113.654
20
-100.625
11
113.529
21
-100.542
0
LINE
8
BLACK
6
CONTINUOUS
10
113.529
20
-100.542
11
113.423
21
-100.436
0
LINE
8
BLACK
6
CONTINUOUS
10
113.423
20
-100.436
11
113.34
21
-100.311
0
LINE
8
BLACK
6
CONTINUOUS
10
113.34
20
-100.311
11
113.282
21
-100.172
0
LINE
8
BLACK
6
CONTINUOUS
10
113.282
20
-100.172
11
113.253
21
-100.025
0
LINE
8
BLACK
6
CONTINUOUS
10
113.253
20
-100.025
11
113.253
21
-99.8749
0
LINE
8
BLACK
6
CONTINUOUS
10
113.253
20
-99.8749
11
113.282
21
-99.7277
0
LINE
8
BLACK
6
CONTINUOUS
10
113.282
20
-99.7277
11
113.34
21
-99.5891
0
LINE
8
BLACK
6
CONTINUOUS
10
113.34
20
-99.5891
11
113.423
21
-99.4643
0
LINE
8
BLACK
6
CONTINUOUS
10
113.423
20
-99.4643
11
113.529
21
-99.3581
0
LINE
8
BLACK
6
CONTINUOUS
10
113.529
20
-99.3581
11
113.654
21
-99.2747
0
LINE
8
BLACK
6
CONTINUOUS
10
113.654
20
-99.2747
11
113.793
21
-99.2173
0
LINE
8
BLACK
6
CONTINUOUS
10
113.793
20
-99.2173
11
113.94
21
-99.188
0
LINE
8
BLACK
6
CONTINUOUS
10
113.94
20
-99.188
11
114.09
21
-99.188
0
LINE
8
BLACK
6
CONTINUOUS
10
114.09
20
-99.188
11
114.237
21
-99.2173
0
LINE
8
BLACK
6
CONTINUOUS
10
207.387
20
-99.1923
11
207.526
21
-99.2497
0
LINE
8
BLACK
6
CONTINUOUS
10
207.526
20
-99.2497
11
207.651
21
-99.3331
0
LINE
8
BLACK
6
CONTINUOUS
10
207.651
20
-99.3331
11
207.757
21
-99.4393
0
LINE
8
BLACK
6
CONTINUOUS
10
207.757
20
-99.4393
11
207.84
21
-99.5641
0
LINE
8
BLACK
6
CONTINUOUS
10
207.84
20
-99.5641
11
207.898
21
-99.7027
0
LINE
8
BLACK
6
CONTINUOUS
10
207.898
20
-99.7027
11
207.927
21
-99.8499
0
LINE
8
BLACK
6
CONTINUOUS
10
207.927
20
-99.8499
11
207.927
21
-100
0
LINE
8
BLACK
6
CONTINUOUS
10
207.927
20
-100
11
207.898
21
-100.147
0
LINE
8
BLACK
6
CONTINUOUS
10
207.898
20
-100.147
11
207.84
21
-100.286
0
LINE
8
BLACK
6
CONTINUOUS
10
207.84
20
-100.286
11
207.757
21
-100.411
0
LINE
8
BLACK
6
CONTINUOUS
10
207.757
20
-100.411
11
207.651
21
-100.517
0
LINE
8
BLACK
6
CONTINUOUS
10
207.651
20
-100.517
11
207.526
21
-100.6
0
LINE
8
BLACK
6
CONTINUOUS
10
207.526
20
-100.6
11
207.387
21
-100.658
0
LINE
8
BLACK
6
CONTINUOUS
10
207.387
20
-100.658
11
207.24
21
-100.687
0
LINE
8
BLACK
6
CONTINUOUS
10
207.24
20
-100.687
11
207.09
21
-100.687
0
LINE
8
BLACK
6
CONTINUOUS
10
207.09
20
-100.687
11
206.943
21
-100.658
0
LINE
8
BLACK
6
CONTINUOUS
10
206.943
20
-100.658
11
206.804
21
-100.6
0
LINE
8
BLACK
6
CONTINUOUS
10
206.804
20
-100.6
11
206.679
21
-100.517
0
LINE
8
BLACK
6
CONTINUOUS
10
206.679
20
-100.517
11
206.573
21
-100.411
0
LINE
8
BLACK
6
CONTINUOUS
10
206.573
20
-100.411
11
206.49
21
-100.286
0
LINE
8
BLACK
6
CONTINUOUS
10
206.49
20
-100.286
11
206.432
21
-100.147
0
LINE
8
BLACK
6
CONTINUOUS
10
206.432
20
-100.147
11
206.403
21
-100
0
LINE
8
BLACK
6
CONTINUOUS
10
206.403
20
-100
11
206.403
21
-99.8499
0
LINE
8
BLACK
6
CONTINUOUS
10
206.403
20
-99.8499
11
206.432
21
-99.7027
0
LINE
8
BLACK
6
CONTINUOUS
10
206.432
20
-99.7027
11
206.49
21
-99.5641
0
LINE
8
BLACK
6
CONTINUOUS
10
206.49
20
-99.5641
11
206.573
21
-99.4393
0
LINE
8
BLACK
6
CONTINUOUS
10
206.573
20
-99.4393
11
206.679
21
-99.3331
0
LINE
8
BLACK
6
CONTINUOUS
10
206.679
20
-99.3331
11
206.804
21
-99.2497
0
LINE
8
BLACK
6
CONTINUOUS
10
206.804
20
-99.2497
11
206.943
21
-99.1923
0
LINE
8
BLACK
6
CONTINUOUS
10
206.943
20
-99.1923
11
207.09
21
-99.163
0
LINE
8
BLACK
6
CONTINUOUS
10
207.09
20
-99.163
11
207.24
21
-99.163
0
LINE
8
BLACK
6
CONTINUOUS
10
207.24
20
-99.163
11
207.387
21
-99.1923
0
LINE
8
BLACK
6
CONTINUOUS
10
202.307
20
-99.1923
11
202.446
21
-99.2497
0
LINE
8
BLACK
6
CONTINUOUS
10
202.446
20
-99.2497
11
202.571
21
-99.3331
0
LINE
8
BLACK
6
CONTINUOUS
10
202.571
20
-99.3331
11
202.677
21
-99.4393
0
LINE
8
BLACK
6
CONTINUOUS
10
202.677
20
-99.4393
11
202.76
21
-99.5641
0
LINE
8
BLACK
6
CONTINUOUS
10
202.76
20
-99.5641
11
202.818
21
-99.7027
0
LINE
8
BLACK
6
CONTINUOUS
10
202.818
20
-99.7027
11
202.847
21
-99.8499
0
LINE
8
BLACK
6
CONTINUOUS
10
202.847
20
-99.8499
11
202.847
21
-100
0
LINE
8
BLACK
6
CONTINUOUS
10
202.847
20
-100
11
202.818
21
-100.147
0
LINE
8
BLACK
6
CONTINUOUS
10
202.818
20
-100.147
11
202.76
21
-100.286
0
LINE
8
BLACK
6
CONTINUOUS
10
202.76
20
-100.286
11
202.677
21
-100.411
0
LINE
8
BLACK
6
CONTINUOUS
10
202.677
20
-100.411
11
202.571
21
-100.517
0
LINE
8
BLACK
6
CONTINUOUS
10
202.571
20
-100.517
11
202.446
21
-100.6
0
LINE
8
BLACK
6
CONTINUOUS
10
202.446
20
-100.6
11
202.307
21
-100.658
0
LINE
8
BLACK
6
CONTINUOUS
10
202.307
20
-100.658
11
202.16
21
-100.687
0
LINE
8
BLACK
6
CONTINUOUS
10
202.16
20
-100.687
11
202.01
21
-100.687
0
LINE
8
BLACK
6
CONTINUOUS
10
202.01
20
-100.687
11
201.863
21
-100.658
0
LINE
8
BLACK
6
CONTINUOUS
10
201.863
20
-100.658
11
201.724
21
-100.6
0
LINE
8
BLACK
6
CONTINUOUS
10
201.724
20
-100.6
11
201.599
21
-100.517
0
LINE
8
BLACK
6
CONTINUOUS
10
201.599
20
-100.517
11
201.493
21
-100.411
0
LINE
8
BLACK
6
CONTINUOUS
10
201.493
20
-100.411
11
201.41
21
-100.286
0
LINE
8
BLACK
6
CONTINUOUS
10
201.41
20
-100.286
11
201.352
21
-100.147
0
LINE
8
BLACK
6
CONTINUOUS
10
201.352
20
-100.147
11
201.323
21
-100
0
LINE
8
BLACK
6
CONTINUOUS
10
201.323
20
-100
11
201.323
21
-99.8499
0
LINE
8
BLACK
6
CONTINUOUS
10
201.323
20
-99.8499
11
201.352
21
-99.7027
0
LINE
8
BLACK
6
CONTINUOUS
10
201.352
20
-99.7027
11
201.41
21
-99.5641
0
LINE
8
BLACK
6
CONTINUOUS
10
201.41
20
-99.5641
11
201.493
21
-99.4393
0
LINE
8
BLACK
6
CONTINUOUS
10
201.493
20
-99.4393
11
201.599
21
-99.3331
0
LINE
8
BLACK
6
CONTINUOUS
10
201.599
20
-99.3331
11
201.724
21
-99.2497
0
LINE
8
BLACK
6
CONTINUOUS
10
201.724
20
-99.2497
11
201.863
21
-99.1923
0
LINE
8
BLACK
6
CONTINUOUS
10
201.863
20
-99.1923
11
202.01
21
-99.163
0
LINE
8
BLACK
6
CONTINUOUS
10
202.01
20
-99.163
11
202.16
21
-99.163
0
LINE
8
BLACK
6
CONTINUOUS
10
202.16
20
-99.163
11
202.307
21
-99.1923
0
LINE
8
BLACK
6
CONTINUOUS
10
109.157
20
-96.6773
11
109.296
21
-96.7347
0
LINE
8
BLACK
6
CONTINUOUS
10
109.296
20
-96.7347
11
109.421
21
-96.8181
0
LINE
8
BLACK
6
CONTINUOUS
10
109.421
20
-96.8181
11
109.527
21
-96.9243
0
LINE
8
BLACK
6
CONTINUOUS
10
109.527
20
-96.9243
11
109.61
21
-97.0491
0
LINE
8
BLACK
6
CONTINUOUS
10
109.61
20
-97.0491
11
109.668
21
-97.1877
0
LINE
8
BLACK
6
CONTINUOUS
10
109.668
20
-97.1877
11
109.697
21
-97.3349
0
LINE
8
BLACK
6
CONTINUOUS
10
109.697
20
-97.3349
11
109.697
21
-97.4851
0
LINE
8
BLACK
6
CONTINUOUS
10
109.697
20
-97.4851
11
109.668
21
-97.6323
0
LINE
8
BLACK
6
CONTINUOUS
10
109.668
20
-97.6323
11
109.61
21
-97.7709
0
LINE
8
BLACK
6
CONTINUOUS
10
109.61
20
-97.7709
11
109.527
21
-97.8957
0
LINE
8
BLACK
6
CONTINUOUS
10
109.527
20
-97.8957
11
109.421
21
-98.0019
0
LINE
8
BLACK
6
CONTINUOUS
10
109.421
20
-98.0019
11
109.296
21
-98.0853
0
LINE
8
BLACK
6
CONTINUOUS
10
109.296
20
-98.0853
11
109.157
21
-98.1427
0
LINE
8
BLACK
6
CONTINUOUS
10
109.157
20
-98.1427
11
109.01
21
-98.172
0
LINE
8
BLACK
6
CONTINUOUS
10
109.01
20
-98.172
11
108.86
21
-98.172
0
LINE
8
BLACK
6
CONTINUOUS
10
108.86
20
-98.172
11
108.713
21
-98.1427
0
LINE
8
BLACK
6
CONTINUOUS
10
108.713
20
-98.1427
11
108.574
21
-98.0853
0
LINE
8
BLACK
6
CONTINUOUS
10
108.574
20
-98.0853
11
108.449
21
-98.0019
0
LINE
8
BLACK
6
CONTINUOUS
10
108.449
20
-98.0019
11
108.343
21
-97.8957
0
LINE
8
BLACK
6
CONTINUOUS
10
108.343
20
-97.8957
11
108.26
21
-97.7709
0
LINE
8
BLACK
6
CONTINUOUS
10
108.26
20
-97.7709
11
108.202
21
-97.6323
0
LINE
8
BLACK
6
CONTINUOUS
10
108.202
20
-97.6323
11
108.173
21
-97.4851
0
LINE
8
BLACK
6
CONTINUOUS
10
108.173
20
-97.4851
11
108.173
21
-97.3349
0
LINE
8
BLACK
6
CONTINUOUS
10
108.173
20
-97.3349
11
108.202
21
-97.1877
0
LINE
8
BLACK
6
CONTINUOUS
10
108.202
20
-97.1877
11
108.26
21
-97.0491
0
LINE
8
BLACK
6
CONTINUOUS
10
108.26
20
-97.0491
11
108.343
21
-96.9243
0
LINE
8
BLACK
6
CONTINUOUS
10
108.343
20
-96.9243
11
108.449
21
-96.8181
0
LINE
8
BLACK
6
CONTINUOUS
10
108.449
20
-96.8181
11
108.574
21
-96.7347
0
LINE
8
BLACK
6
CONTINUOUS
10
108.574
20
-96.7347
11
108.713
21
-96.6773
0
LINE
8
BLACK
6
CONTINUOUS
10
108.713
20
-96.6773
11
108.86
21
-96.648
0
LINE
8
BLACK
6
CONTINUOUS
10
108.86
20
-96.648
11
109.01
21
-96.648
0
LINE
8
BLACK
6
CONTINUOUS
10
109.01
20
-96.648
11
109.157
21
-96.6773
0
LINE
8
BLACK
6
CONTINUOUS
10
114.237
20
-96.6773
11
114.376
21
-96.7347
0
LINE
8
BLACK
6
CONTINUOUS
10
114.376
20
-96.7347
11
114.501
21
-96.8181
0
LINE
8
BLACK
6
CONTINUOUS
10
114.501
20
-96.8181
11
114.607
21
-96.9243
0
LINE
8
BLACK
6
CONTINUOUS
10
114.607
20
-96.9243
11
114.69
21
-97.0491
0
LINE
8
BLACK
6
CONTINUOUS
10
114.69
20
-97.0491
11
114.748
21
-97.1877
0
LINE
8
BLACK
6
CONTINUOUS
10
114.748
20
-97.1877
11
114.777
21
-97.3349
0
LINE
8
BLACK
6
CONTINUOUS
10
114.777
20
-97.3349
11
114.777
21
-97.4851
0
LINE
8
BLACK
6
CONTINUOUS
10
114.777
20
-97.4851
11
114.748
21
-97.6323
0
LINE
8
BLACK
6
CONTINUOUS
10
114.748
20
-97.6323
11
114.69
21
-97.7709
0
LINE
8
BLACK
6
CONTINUOUS
10
114.69
20
-97.7709
11
114.607
21
-97.8957
0
LINE
8
BLACK
6
CONTINUOUS
10
114.607
20
-97.8957
11
114.501
21
-98.0019
0
LINE
8
BLACK
6
CONTINUOUS
10
114.501
20
-98.0019
11
114.376
21
-98.0853
0
LINE
8
BLACK
6
CONTINUOUS
10
114.376
20
-98.0853
11
114.237
21
-98.1427
0
LINE
8
BLACK
6
CONTINUOUS
10
114.237
20
-98.1427
11
114.09
21
-98.172
0
LINE
8
BLACK
6
CONTINUOUS
10
114.09
20
-98.172
11
113.94
21
-98.172
0
LINE
8
BLACK
6
CONTINUOUS
10
113.94
20
-98.172
11
113.793
21
-98.1427
0
LINE
8
BLACK
6
CONTINUOUS
10
113.793
20
-98.1427
11
113.654
21
-98.0853
0
LINE
8
BLACK
6
CONTINUOUS
10
113.654
20
-98.0853
11
113.529
21
-98.0019
0
LINE
8
BLACK
6
CONTINUOUS
10
113.529
20
-98.0019
11
113.423
21
-97.8957
0
LINE
8
BLACK
6
CONTINUOUS
10
113.423
20
-97.8957
11
113.34
21
-97.7709
0
LINE
8
BLACK
6
CONTINUOUS
10
113.34
20
-97.7709
11
113.282
21
-97.6323
0
LINE
8
BLACK
6
CONTINUOUS
10
113.282
20
-97.6323
11
113.253
21
-97.4851
0
LINE
8
BLACK
6
CONTINUOUS
10
113.253
20
-97.4851
11
113.253
21
-97.3349
0
LINE
8
BLACK
6
CONTINUOUS
10
113.253
20
-97.3349
11
113.282
21
-97.1877
0
LINE
8
BLACK
6
CONTINUOUS
10
113.282
20
-97.1877
11
113.34
21
-97.0491
0
LINE
8
BLACK
6
CONTINUOUS
10
113.34
20
-97.0491
11
113.423
21
-96.9243
0
LINE
8
BLACK
6
CONTINUOUS
10
113.423
20
-96.9243
11
113.529
21
-96.8181
0
LINE
8
BLACK
6
CONTINUOUS
10
113.529
20
-96.8181
11
113.654
21
-96.7347
0
LINE
8
BLACK
6
CONTINUOUS
10
113.654
20
-96.7347
11
113.793
21
-96.6773
0
LINE
8
BLACK
6
CONTINUOUS
10
113.793
20
-96.6773
11
113.94
21
-96.648
0
LINE
8
BLACK
6
CONTINUOUS
10
113.94
20
-96.648
11
114.09
21
-96.648
0
LINE
8
BLACK
6
CONTINUOUS
10
114.09
20
-96.648
11
114.237
21
-96.6773
0
LINE
8
BLACK
6
CONTINUOUS
10
202.307
20
-96.6523
11
202.446
21
-96.7097
0
LINE
8
BLACK
6
CONTINUOUS
10
202.446
20
-96.7097
11
202.571
21
-96.7931
0
LINE
8
BLACK
6
CONTINUOUS
10
202.571
20
-96.7931
11
202.677
21
-96.8993
0
LINE
8
BLACK
6
CONTINUOUS
10
202.677
20
-96.8993
11
202.76
21
-97.0241
0
LINE
8
BLACK
6
CONTINUOUS
10
202.76
20
-97.0241
11
202.818
21
-97.1627
0
LINE
8
BLACK
6
CONTINUOUS
10
202.818
20
-97.1627
11
202.847
21
-97.31
0
LINE
8
BLACK
6
CONTINUOUS
10
202.847
20
-97.31
11
202.847
21
-97.46
0
LINE
8
BLACK
6
CONTINUOUS
10
202.847
20
-97.46
11
202.818
21
-97.6073
0
LINE
8
BLACK
6
CONTINUOUS
10
202.818
20
-97.6073
11
202.76
21
-97.7459
0
LINE
8
BLACK
6
CONTINUOUS
10
202.76
20
-97.7459
11
202.677
21
-97.8707
0
LINE
8
BLACK
6
CONTINUOUS
10
202.677
20
-97.8707
11
202.571
21
-97.9769
0
LINE
8
BLACK
6
CONTINUOUS
10
202.571
20
-97.9769
11
202.446
21
-98.0603
0
LINE
8
BLACK
6
CONTINUOUS
10
202.446
20
-98.0603
11
202.307
21
-98.1177
0
LINE
8
BLACK
6
CONTINUOUS
10
202.307
20
-98.1177
11
202.16
21
-98.147
0
LINE
8
BLACK
6
CONTINUOUS
10
202.16
20
-98.147
11
202.01
21
-98.147
0
LINE
8
BLACK
6
CONTINUOUS
10
202.01
20
-98.147
11
201.863
21
-98.1177
0
LINE
8
BLACK
6
CONTINUOUS
10
201.863
20
-98.1177
11
201.724
21
-98.0603
0
LINE
8
BLACK
6
CONTINUOUS
10
201.724
20
-98.0603
11
201.599
21
-97.9769
0
LINE
8
BLACK
6
CONTINUOUS
10
201.599
20
-97.9769
11
201.493
21
-97.8707
0
LINE
8
BLACK
6
CONTINUOUS
10
201.493
20
-97.8707
11
201.41
21
-97.7459
0
LINE
8
BLACK
6
CONTINUOUS
10
201.41
20
-97.7459
11
201.352
21
-97.6073
0
LINE
8
BLACK
6
CONTINUOUS
10
201.352
20
-97.6073
11
201.323
21
-97.46
0
LINE
8
BLACK
6
CONTINUOUS
10
201.323
20
-97.46
11
201.323
21
-97.31
0
LINE
8
BLACK
6
CONTINUOUS
10
201.323
20
-97.31
11
201.352
21
-97.1627
0
LINE
8
BLACK
6
CONTINUOUS
10
201.352
20
-97.1627
11
201.41
21
-97.0241
0
LINE
8
BLACK
6
CONTINUOUS
10
201.41
20
-97.0241
11
201.493
21
-96.8993
0
LINE
8
BLACK
6
CONTINUOUS
10
201.493
20
-96.8993
11
201.599
21
-96.7931
0
LINE
8
BLACK
6
CONTINUOUS
10
201.599
20
-96.7931
11
201.724
21
-96.7097
0
LINE
8
BLACK
6
CONTINUOUS
10
201.724
20
-96.7097
11
201.863
21
-96.6523
0
LINE
8
BLACK
6
CONTINUOUS
10
201.863
20
-96.6523
11
202.01
21
-96.623
0
LINE
8
BLACK
6
CONTINUOUS
10
202.01
20
-96.623
11
202.16
21
-96.623
0
LINE
8
BLACK
6
CONTINUOUS
10
202.16
20
-96.623
11
202.307
21
-96.6523
0
LINE
8
BLACK
6
CONTINUOUS
10
207.387
20
-96.6523
11
207.526
21
-96.7097
0
LINE
8
BLACK
6
CONTINUOUS
10
207.526
20
-96.7097
11
207.651
21
-96.7931
0
LINE
8
BLACK
6
CONTINUOUS
10
207.651
20
-96.7931
11
207.757
21
-96.8993
0
LINE
8
BLACK
6
CONTINUOUS
10
207.757
20
-96.8993
11
207.84
21
-97.0241
0
LINE
8
BLACK
6
CONTINUOUS
10
207.84
20
-97.0241
11
207.898
21
-97.1627
0
LINE
8
BLACK
6
CONTINUOUS
10
207.898
20
-97.1627
11
207.927
21
-97.31
0
LINE
8
BLACK
6
CONTINUOUS
10
207.927
20
-97.31
11
207.927
21
-97.46
0
LINE
8
BLACK
6
CONTINUOUS
10
207.927
20
-97.46
11
207.898
21
-97.6073
0
LINE
8
BLACK
6
CONTINUOUS
10
207.898
20
-97.6073
11
207.84
21
-97.7459
0
LINE
8
BLACK
6
CONTINUOUS
10
207.84
20
-97.7459
11
207.757
21
-97.8707
0
LINE
8
BLACK
6
CONTINUOUS
10
207.757
20
-97.8707
11
207.651
21
-97.9769
0
LINE
8
BLACK
6
CONTINUOUS
10
207.651
20
-97.9769
11
207.526
21
-98.0603
0
LINE
8
BLACK
6
CONTINUOUS
10
207.526
20
-98.0603
11
207.387
21
-98.1177
0
LINE
8
BLACK
6
CONTINUOUS
10
207.387
20
-98.1177
11
207.24
21
-98.147
0
LINE
8
BLACK
6
CONTINUOUS
10
207.24
20
-98.147
11
207.09
21
-98.147
0
LINE
8
BLACK
6
CONTINUOUS
10
207.09
20
-98.147
11
206.943
21
-98.1177
0
LINE
8
BLACK
6
CONTINUOUS
10
206.943
20
-98.1177
11
206.804
21
-98.0603
0
LINE
8
BLACK
6
CONTINUOUS
10
206.804
20
-98.0603
11
206.679
21
-97.9769
0
LINE
8
BLACK
6
CONTINUOUS
10
206.679
20
-97.9769
11
206.573
21
-97.8707
0
LINE
8
BLACK
6
CONTINUOUS
10
206.573
20
-97.8707
11
206.49
21
-97.7459
0
LINE
8
BLACK
6
CONTINUOUS
10
206.49
20
-97.7459
11
206.432
21
-97.6073
0
LINE
8
BLACK
6
CONTINUOUS
10
206.432
20
-97.6073
11
206.403
21
-97.46
0
LINE
8
BLACK
6
CONTINUOUS
10
206.403
20
-97.46
11
206.403
21
-97.31
0
LINE
8
BLACK
6
CONTINUOUS
10
206.403
20
-97.31
11
206.432
21
-97.1627
0
LINE
8
BLACK
6
CONTINUOUS
10
206.432
20
-97.1627
11
206.49
21
-97.0241
0
LINE
8
BLACK
6
CONTINUOUS
10
206.49
20
-97.0241
11
206.573
21
-96.8993
0
LINE
8
BLACK
6
CONTINUOUS
10
206.573
20
-96.8993
11
206.679
21
-96.7931
0
LINE
8
BLACK
6
CONTINUOUS
10
206.679
20
-96.7931
11
206.804
21
-96.7097
0
LINE
8
BLACK
6
CONTINUOUS
10
206.804
20
-96.7097
11
206.943
21
-96.6523
0
LINE
8
BLACK
6
CONTINUOUS
10
206.943
20
-96.6523
11
207.09
21
-96.623
0
LINE
8
BLACK
6
CONTINUOUS
10
207.09
20
-96.623
11
207.24
21
-96.623
0
LINE
8
BLACK
6
CONTINUOUS
10
207.24
20
-96.623
11
207.387
21
-96.6523
0
LINE
8
BLACK
6
CONTINUOUS
10
109.157
20
-94.1373
11
109.296
21
-94.1947
0
LINE
8
BLACK
6
CONTINUOUS
10
109.296
20
-94.1947
11
109.421
21
-94.2781
0
LINE
8
BLACK
6
CONTINUOUS
10
109.421
20
-94.2781
11
109.527
21
-94.3843
0
LINE
8
BLACK
6
CONTINUOUS
10
109.527
20
-94.3843
11
109.61
21
-94.5091
0
LINE
8
BLACK
6
CONTINUOUS
10
109.61
20
-94.5091
11
109.668
21
-94.6477
0
LINE
8
BLACK
6
CONTINUOUS
10
109.668
20
-94.6477
11
109.697
21
-94.795
0
LINE
8
BLACK
6
CONTINUOUS
10
109.697
20
-94.795
11
109.697
21
-94.945
0
LINE
8
BLACK
6
CONTINUOUS
10
109.697
20
-94.945
11
109.668
21
-95.0923
0
LINE
8
BLACK
6
CONTINUOUS
10
109.668
20
-95.0923
11
109.61
21
-95.2309
0
LINE
8
BLACK
6
CONTINUOUS
10
109.61
20
-95.2309
11
109.527
21
-95.3557
0
LINE
8
BLACK
6
CONTINUOUS
10
109.527
20
-95.3557
11
109.421
21
-95.4619
0
LINE
8
BLACK
6
CONTINUOUS
10
109.421
20
-95.4619
11
109.296
21
-95.5453
0
LINE
8
BLACK
6
CONTINUOUS
10
109.296
20
-95.5453
11
109.157
21
-95.6027
0
LINE
8
BLACK
6
CONTINUOUS
10
109.157
20
-95.6027
11
109.01
21
-95.632
0
LINE
8
BLACK
6
CONTINUOUS
10
109.01
20
-95.632
11
108.86
21
-95.632
0
LINE
8
BLACK
6
CONTINUOUS
10
108.86
20
-95.632
11
108.713
21
-95.6027
0
LINE
8
BLACK
6
CONTINUOUS
10
108.713
20
-95.6027
11
108.574
21
-95.5453
0
LINE
8
BLACK
6
CONTINUOUS
10
108.574
20
-95.5453
11
108.449
21
-95.4619
0
LINE
8
BLACK
6
CONTINUOUS
10
108.449
20
-95.4619
11
108.343
21
-95.3557
0
LINE
8
BLACK
6
CONTINUOUS
10
108.343
20
-95.3557
11
108.26
21
-95.2309
0
LINE
8
BLACK
6
CONTINUOUS
10
108.26
20
-95.2309
11
108.202
21
-95.0923
0
LINE
8
BLACK
6
CONTINUOUS
10
108.202
20
-95.0923
11
108.173
21
-94.945
0
LINE
8
BLACK
6
CONTINUOUS
10
108.173
20
-94.945
11
108.173
21
-94.795
0
LINE
8
BLACK
6
CONTINUOUS
10
108.173
20
-94.795
11
108.202
21
-94.6477
0
LINE
8
BLACK
6
CONTINUOUS
10
108.202
20
-94.6477
11
108.26
21
-94.5091
0
LINE
8
BLACK
6
CONTINUOUS
10
108.26
20
-94.5091
11
108.343
21
-94.3843
0
LINE
8
BLACK
6
CONTINUOUS
10
108.343
20
-94.3843
11
108.449
21
-94.2781
0
LINE
8
BLACK
6
CONTINUOUS
10
108.449
20
-94.2781
11
108.574
21
-94.1947
0
LINE
8
BLACK
6
CONTINUOUS
10
108.574
20
-94.1947
11
108.713
21
-94.1373
0
LINE
8
BLACK
6
CONTINUOUS
10
108.713
20
-94.1373
11
108.86
21
-94.108
0
LINE
8
BLACK
6
CONTINUOUS
10
108.86
20
-94.108
11
109.01
21
-94.108
0
LINE
8
BLACK
6
CONTINUOUS
10
109.01
20
-94.108
11
109.157
21
-94.1373
0
LINE
8
BLACK
6
CONTINUOUS
10
114.237
20
-94.1373
11
114.376
21
-94.1947
0
LINE
8
BLACK
6
CONTINUOUS
10
114.376
20
-94.1947
11
114.501
21
-94.2781
0
LINE
8
BLACK
6
CONTINUOUS
10
114.501
20
-94.2781
11
114.607
21
-94.3843
0
LINE
8
BLACK
6
CONTINUOUS
10
114.607
20
-94.3843
11
114.69
21
-94.5091
0
LINE
8
BLACK
6
CONTINUOUS
10
114.69
20
-94.5091
11
114.748
21
-94.6477
0
LINE
8
BLACK
6
CONTINUOUS
10
114.748
20
-94.6477
11
114.777
21
-94.795
0
LINE
8
BLACK
6
CONTINUOUS
10
114.777
20
-94.795
11
114.777
21
-94.945
0
LINE
8
BLACK
6
CONTINUOUS
10
114.777
20
-94.945
11
114.748
21
-95.0923
0
LINE
8
BLACK
6
CONTINUOUS
10
114.748
20
-95.0923
11
114.69
21
-95.2309
0
LINE
8
BLACK
6
CONTINUOUS
10
114.69
20
-95.2309
11
114.607
21
-95.3557
0
LINE
8
BLACK
6
CONTINUOUS
10
114.607
20
-95.3557
11
114.501
21
-95.4619
0
LINE
8
BLACK
6
CONTINUOUS
10
114.501
20
-95.4619
11
114.376
21
-95.5453
0
LINE
8
BLACK
6
CONTINUOUS
10
114.376
20
-95.5453
11
114.237
21
-95.6027
0
LINE
8
BLACK
6
CONTINUOUS
10
114.237
20
-95.6027
11
114.09
21
-95.632
0
LINE
8
BLACK
6
CONTINUOUS
10
114.09
20
-95.632
11
113.94
21
-95.632
0
LINE
8
BLACK
6
CONTINUOUS
10
113.94
20
-95.632
11
113.793
21
-95.6027
0
LINE
8
BLACK
6
CONTINUOUS
10
113.793
20
-95.6027
11
113.654
21
-95.5453
0
LINE
8
BLACK
6
CONTINUOUS
10
113.654
20
-95.5453
11
113.529
21
-95.4619
0
LINE
8
BLACK
6
CONTINUOUS
10
113.529
20
-95.4619
11
113.423
21
-95.3557
0
LINE
8
BLACK
6
CONTINUOUS
10
113.423
20
-95.3557
11
113.34
21
-95.2309
0
LINE
8
BLACK
6
CONTINUOUS
10
113.34
20
-95.2309
11
113.282
21
-95.0923
0
LINE
8
BLACK
6
CONTINUOUS
10
113.282
20
-95.0923
11
113.253
21
-94.945
0
LINE
8
BLACK
6
CONTINUOUS
10
113.253
20
-94.945
11
113.253
21
-94.795
0
LINE
8
BLACK
6
CONTINUOUS
10
113.253
20
-94.795
11
113.282
21
-94.6477
0
LINE
8
BLACK
6
CONTINUOUS
10
113.282
20
-94.6477
11
113.34
21
-94.5091
0
LINE
8
BLACK
6
CONTINUOUS
10
113.34
20
-94.5091
11
113.423
21
-94.3843
0
LINE
8
BLACK
6
CONTINUOUS
10
113.423
20
-94.3843
11
113.529
21
-94.2781
0
LINE
8
BLACK
6
CONTINUOUS
10
113.529
20
-94.2781
11
113.654
21
-94.1947
0
LINE
8
BLACK
6
CONTINUOUS
10
113.654
20
-94.1947
11
113.793
21
-94.1373
0
LINE
8
BLACK
6
CONTINUOUS
10
113.793
20
-94.1373
11
113.94
21
-94.108
0
LINE
8
BLACK
6
CONTINUOUS
10
113.94
20
-94.108
11
114.09
21
-94.108
0
LINE
8
BLACK
6
CONTINUOUS
10
114.09
20
-94.108
11
114.237
21
-94.1373
0
LINE
8
BLACK
6
CONTINUOUS
10
202.307
20
-94.1123
11
202.446
21
-94.1697
0
LINE
8
BLACK
6
CONTINUOUS
10
202.446
20
-94.1697
11
202.571
21
-94.2531
0
LINE
8
BLACK
6
CONTINUOUS
10
202.571
20
-94.2531
11
202.677
21
-94.3593
0
LINE
8
BLACK
6
CONTINUOUS
10
202.677
20
-94.3593
11
202.76
21
-94.4841
0
LINE
8
BLACK
6
CONTINUOUS
10
202.76
20
-94.4841
11
202.818
21
-94.6227
0
LINE
8
BLACK
6
CONTINUOUS
10
202.818
20
-94.6227
11
202.847
21
-94.7699
0
LINE
8
BLACK
6
CONTINUOUS
10
202.847
20
-94.7699
11
202.847
21
-94.92
0
LINE
8
BLACK
6
CONTINUOUS
10
202.847
20
-94.92
11
202.818
21
-95.0673
0
LINE
8
BLACK
6
CONTINUOUS
10
202.818
20
-95.0673
11
202.76
21
-95.2059
0
LINE
8
BLACK
6
CONTINUOUS
10
202.76
20
-95.2059
11
202.677
21
-95.3307
0
LINE
8
BLACK
6
CONTINUOUS
10
202.677
20
-95.3307
11
202.571
21
-95.4369
0
LINE
8
BLACK
6
CONTINUOUS
10
202.571
20
-95.4369
11
202.446
21
-95.5203
0
LINE
8
BLACK
6
CONTINUOUS
10
202.446
20
-95.5203
11
202.307
21
-95.5777
0
LINE
8
BLACK
6
CONTINUOUS
10
202.307
20
-95.5777
11
202.16
21
-95.607
0
LINE
8
BLACK
6
CONTINUOUS
10
202.16
20
-95.607
11
202.01
21
-95.607
0
LINE
8
BLACK
6
CONTINUOUS
10
202.01
20
-95.607
11
201.863
21
-95.5777
0
LINE
8
BLACK
6
CONTINUOUS
10
201.863
20
-95.5777
11
201.724
21
-95.5203
0
LINE
8
BLACK
6
CONTINUOUS
10
201.724
20
-95.5203
11
201.599
21
-95.4369
0
LINE
8
BLACK
6
CONTINUOUS
10
201.599
20
-95.4369
11
201.493
21
-95.3307
0
LINE
8
BLACK
6
CONTINUOUS
10
201.493
20
-95.3307
11
201.41
21
-95.2059
0
LINE
8
BLACK
6
CONTINUOUS
10
201.41
20
-95.2059
11
201.352
21
-95.0673
0
LINE
8
BLACK
6
CONTINUOUS
10
201.352
20
-95.0673
11
201.323
21
-94.92
0
LINE
8
BLACK
6
CONTINUOUS
10
201.323
20
-94.92
11
201.323
21
-94.7699
0
LINE
8
BLACK
6
CONTINUOUS
10
201.323
20
-94.7699
11
201.352
21
-94.6227
0
LINE
8
BLACK
6
CONTINUOUS
10
201.352
20
-94.6227
11
201.41
21
-94.4841
0
LINE
8
BLACK
6
CONTINUOUS
10
201.41
20
-94.4841
11
201.493
21
-94.3593
0
LINE
8
BLACK
6
CONTINUOUS
10
201.493
20
-94.3593
11
201.599
21
-94.2531
0
LINE
8
BLACK
6
CONTINUOUS
10
201.599
20
-94.2531
11
201.724
21
-94.1697
0
LINE
8
BLACK
6
CONTINUOUS
10
201.724
20
-94.1697
11
201.863
21
-94.1123
0
LINE
8
BLACK
6
CONTINUOUS
10
201.863
20
-94.1123
11
202.01
21
-94.083
0
LINE
8
BLACK
6
CONTINUOUS
10
202.01
20
-94.083
11
202.16
21
-94.083
0
LINE
8
BLACK
6
CONTINUOUS
10
202.16
20
-94.083
11
202.307
21
-94.1123
0
LINE
8
BLACK
6
CONTINUOUS
10
207.387
20
-94.1123
11
207.526
21
-94.1697
0
LINE
8
BLACK
6
CONTINUOUS
10
207.526
20
-94.1697
11
207.651
21
-94.2531
0
LINE
8
BLACK
6
CONTINUOUS
10
207.651
20
-94.2531
11
207.757
21
-94.3593
0
LINE
8
BLACK
6
CONTINUOUS
10
207.757
20
-94.3593
11
207.84
21
-94.4841
0
LINE
8
BLACK
6
CONTINUOUS
10
207.84
20
-94.4841
11
207.898
21
-94.6227
0
LINE
8
BLACK
6
CONTINUOUS
10
207.898
20
-94.6227
11
207.927
21
-94.7699
0
LINE
8
BLACK
6
CONTINUOUS
10
207.927
20
-94.7699
11
207.927
21
-94.92
0
LINE
8
BLACK
6
CONTINUOUS
10
207.927
20
-94.92
11
207.898
21
-95.0673
0
LINE
8
BLACK
6
CONTINUOUS
10
207.898
20
-95.0673
11
207.84
21
-95.2059
0
LINE
8
BLACK
6
CONTINUOUS
10
207.84
20
-95.2059
11
207.757
21
-95.3307
0
LINE
8
BLACK
6
CONTINUOUS
10
207.757
20
-95.3307
11
207.651
21
-95.4369
0
LINE
8
BLACK
6
CONTINUOUS
10
207.651
20
-95.4369
11
207.526
21
-95.5203
0
LINE
8
BLACK
6
CONTINUOUS
10
207.526
20
-95.5203
11
207.387
21
-95.5777
0
LINE
8
BLACK
6
CONTINUOUS
10
207.387
20
-95.5777
11
207.24
21
-95.607
0
LINE
8
BLACK
6
CONTINUOUS
10
207.24
20
-95.607
11
207.09
21
-95.607
0
LINE
8
BLACK
6
CONTINUOUS
10
207.09
20
-95.607
11
206.943
21
-95.5777
0
LINE
8
BLACK
6
CONTINUOUS
10
206.943
20
-95.5777
11
206.804
21
-95.5203
0
LINE
8
BLACK
6
CONTINUOUS
10
206.804
20
-95.5203
11
206.679
21
-95.4369
0
LINE
8
BLACK
6
CONTINUOUS
10
206.679
20
-95.4369
11
206.573
21
-95.3307
0
LINE
8
BLACK
6
CONTINUOUS
10
206.573
20
-95.3307
11
206.49
21
-95.2059
0
LINE
8
BLACK
6
CONTINUOUS
10
206.49
20
-95.2059
11
206.432
21
-95.0673
0
LINE
8
BLACK
6
CONTINUOUS
10
206.432
20
-95.0673
11
206.403
21
-94.92
0
LINE
8
BLACK
6
CONTINUOUS
10
206.403
20
-94.92
11
206.403
21
-94.7699
0
LINE
8
BLACK
6
CONTINUOUS
10
206.403
20
-94.7699
11
206.432
21
-94.6227
0
LINE
8
BLACK
6
CONTINUOUS
10
206.432
20
-94.6227
11
206.49
21
-94.4841
0
LINE
8
BLACK
6
CONTINUOUS
10
206.49
20
-94.4841
11
206.573
21
-94.3593
0
LINE
8
BLACK
6
CONTINUOUS
10
206.573
20
-94.3593
11
206.679
21
-94.2531
0
LINE
8
BLACK
6
CONTINUOUS
10
206.679
20
-94.2531
11
206.804
21
-94.1697
0
LINE
8
BLACK
6
CONTINUOUS
10
206.804
20
-94.1697
11
206.943
21
-94.1123
0
LINE
8
BLACK
6
CONTINUOUS
10
206.943
20
-94.1123
11
207.09
21
-94.083
0
LINE
8
BLACK
6
CONTINUOUS
10
207.09
20
-94.083
11
207.24
21
-94.083
0
LINE
8
BLACK
6
CONTINUOUS
10
207.24
20
-94.083
11
207.387
21
-94.1123
0
LINE
8
BLACK
6
CONTINUOUS
10
147.41
20
-93.225
11
145.71
21
-93.225
0
LINE
8
BLACK
6
CONTINUOUS
10
145.71
20
-93.225
11
145.71
21
-91.525
0
LINE
8
BLACK
6
CONTINUOUS
10
145.71
20
-91.525
11
147.41
21
-91.525
0
LINE
8
BLACK
6
CONTINUOUS
10
147.41
20
-91.525
11
147.41
21
-93.225
0
LINE
8
BLACK
6
CONTINUOUS
10
144.268
20
-91.5577
11
144.423
21
-91.6217
0
LINE
8
BLACK
6
CONTINUOUS
10
144.423
20
-91.6217
11
144.562
21
-91.7148
0
LINE
8
BLACK
6
CONTINUOUS
10
144.562
20
-91.7148
11
144.68
21
-91.8332
0
LINE
8
BLACK
6
CONTINUOUS
10
144.68
20
-91.8332
11
144.773
21
-91.9724
0
LINE
8
BLACK
6
CONTINUOUS
10
144.773
20
-91.9724
11
144.837
21
-92.1271
0
LINE
8
BLACK
6
CONTINUOUS
10
144.837
20
-92.1271
11
144.87
21
-92.2913
0
LINE
8
BLACK
6
CONTINUOUS
10
144.87
20
-92.2913
11
144.87
21
-92.4587
0
LINE
8
BLACK
6
CONTINUOUS
10
144.87
20
-92.4587
11
144.837
21
-92.6229
0
LINE
8
BLACK
6
CONTINUOUS
10
144.837
20
-92.6229
11
144.773
21
-92.7776
0
LINE
8
BLACK
6
CONTINUOUS
10
144.773
20
-92.7776
11
144.68
21
-92.9168
0
LINE
8
BLACK
6
CONTINUOUS
10
144.68
20
-92.9168
11
144.562
21
-93.0352
0
LINE
8
BLACK
6
CONTINUOUS
10
144.562
20
-93.0352
11
144.423
21
-93.1283
0
LINE
8
BLACK
6
CONTINUOUS
10
144.423
20
-93.1283
11
144.268
21
-93.1923
0
LINE
8
BLACK
6
CONTINUOUS
10
144.268
20
-93.1923
11
144.104
21
-93.225
0
LINE
8
BLACK
6
CONTINUOUS
10
144.104
20
-93.225
11
143.936
21
-93.225
0
LINE
8
BLACK
6
CONTINUOUS
10
143.936
20
-93.225
11
143.772
21
-93.1923
0
LINE
8
BLACK
6
CONTINUOUS
10
143.772
20
-93.1923
11
143.617
21
-93.1283
0
LINE
8
BLACK
6
CONTINUOUS
10
143.617
20
-93.1283
11
143.478
21
-93.0352
0
LINE
8
BLACK
6
CONTINUOUS
10
143.478
20
-93.0352
11
143.36
21
-92.9168
0
LINE
8
BLACK
6
CONTINUOUS
10
143.36
20
-92.9168
11
143.267
21
-92.7776
0
LINE
8
BLACK
6
CONTINUOUS
10
143.267
20
-92.7776
11
143.203
21
-92.6229
0
LINE
8
BLACK
6
CONTINUOUS
10
143.203
20
-92.6229
11
143.17
21
-92.4587
0
LINE
8
BLACK
6
CONTINUOUS
10
143.17
20
-92.4587
11
143.17
21
-92.2913
0
LINE
8
BLACK
6
CONTINUOUS
10
143.17
20
-92.2913
11
143.203
21
-92.1271
0
LINE
8
BLACK
6
CONTINUOUS
10
143.203
20
-92.1271
11
143.267
21
-91.9724
0
LINE
8
BLACK
6
CONTINUOUS
10
143.267
20
-91.9724
11
143.36
21
-91.8332
0
LINE
8
BLACK
6
CONTINUOUS
10
143.36
20
-91.8332
11
143.478
21
-91.7148
0
LINE
8
BLACK
6
CONTINUOUS
10
143.478
20
-91.7148
11
143.617
21
-91.6217
0
LINE
8
BLACK
6
CONTINUOUS
10
143.617
20
-91.6217
11
143.772
21
-91.5577
0
LINE
8
BLACK
6
CONTINUOUS
10
143.772
20
-91.5577
11
143.936
21
-91.525
0
LINE
8
BLACK
6
CONTINUOUS
10
143.936
20
-91.525
11
144.104
21
-91.525
0
LINE
8
BLACK
6
CONTINUOUS
10
144.104
20
-91.525
11
144.268
21
-91.5577
0
LINE
8
BLACK
6
CONTINUOUS
10
141.728
20
-91.5577
11
141.883
21
-91.6217
0
LINE
8
BLACK
6
CONTINUOUS
10
141.883
20
-91.6217
11
142.022
21
-91.7148
0
LINE
8
BLACK
6
CONTINUOUS
10
142.022
20
-91.7148
11
142.14
21
-91.8332
0
LINE
8
BLACK
6
CONTINUOUS
10
142.14
20
-91.8332
11
142.233
21
-91.9724
0
LINE
8
BLACK
6
CONTINUOUS
10
142.233
20
-91.9724
11
142.297
21
-92.1271
0
LINE
8
BLACK
6
CONTINUOUS
10
142.297
20
-92.1271
11
142.33
21
-92.2913
0
LINE
8
BLACK
6
CONTINUOUS
10
142.33
20
-92.2913
11
142.33
21
-92.4587
0
LINE
8
BLACK
6
CONTINUOUS
10
142.33
20
-92.4587
11
142.297
21
-92.6229
0
LINE
8
BLACK
6
CONTINUOUS
10
142.297
20
-92.6229
11
142.233
21
-92.7776
0
LINE
8
BLACK
6
CONTINUOUS
10
142.233
20
-92.7776
11
142.14
21
-92.9168
0
LINE
8
BLACK
6
CONTINUOUS
10
142.14
20
-92.9168
11
142.022
21
-93.0352
0
LINE
8
BLACK
6
CONTINUOUS
10
142.022
20
-93.0352
11
141.883
21
-93.1283
0
LINE
8
BLACK
6
CONTINUOUS
10
141.883
20
-93.1283
11
141.728
21
-93.1923
0
LINE
8
BLACK
6
CONTINUOUS
10
141.728
20
-93.1923
11
141.564
21
-93.225
0
LINE
8
BLACK
6
CONTINUOUS
10
141.564
20
-93.225
11
141.396
21
-93.225
0
LINE
8
BLACK
6
CONTINUOUS
10
141.396
20
-93.225
11
141.232
21
-93.1923
0
LINE
8
BLACK
6
CONTINUOUS
10
141.232
20
-93.1923
11
141.077
21
-93.1283
0
LINE
8
BLACK
6
CONTINUOUS
10
141.077
20
-93.1283
11
140.938
21
-93.0352
0
LINE
8
BLACK
6
CONTINUOUS
10
140.938
20
-93.0352
11
140.82
21
-92.9168
0
LINE
8
BLACK
6
CONTINUOUS
10
140.82
20
-92.9168
11
140.727
21
-92.7776
0
LINE
8
BLACK
6
CONTINUOUS
10
140.727
20
-92.7776
11
140.663
21
-92.6229
0
LINE
8
BLACK
6
CONTINUOUS
10
140.663
20
-92.6229
11
140.63
21
-92.4587
0
LINE
8
BLACK
6
CONTINUOUS
10
140.63
20
-92.4587
11
140.63
21
-92.2913
0
LINE
8
BLACK
6
CONTINUOUS
10
140.63
20
-92.2913
11
140.663
21
-92.1271
0
LINE
8
BLACK
6
CONTINUOUS
10
140.663
20
-92.1271
11
140.727
21
-91.9724
0
LINE
8
BLACK
6
CONTINUOUS
10
140.727
20
-91.9724
11
140.82
21
-91.8332
0
LINE
8
BLACK
6
CONTINUOUS
10
140.82
20
-91.8332
11
140.938
21
-91.7148
0
LINE
8
BLACK
6
CONTINUOUS
10
140.938
20
-91.7148
11
141.077
21
-91.6217
0
LINE
8
BLACK
6
CONTINUOUS
10
141.077
20
-91.6217
11
141.232
21
-91.5577
0
LINE
8
BLACK
6
CONTINUOUS
10
141.232
20
-91.5577
11
141.396
21
-91.525
0
LINE
8
BLACK
6
CONTINUOUS
10
141.396
20
-91.525
11
141.564
21
-91.525
0
LINE
8
BLACK
6
CONTINUOUS
10
141.564
20
-91.525
11
141.728
21
-91.5577
0
LINE
8
BLACK
6
CONTINUOUS
10
139.188
20
-91.5577
11
139.343
21
-91.6217
0
LINE
8
BLACK
6
CONTINUOUS
10
139.343
20
-91.6217
11
139.482
21
-91.7148
0
LINE
8
BLACK
6
CONTINUOUS
10
139.482
20
-91.7148
11
139.6
21
-91.8332
0
LINE
8
BLACK
6
CONTINUOUS
10
139.6
20
-91.8332
11
139.693
21
-91.9724
0
LINE
8
BLACK
6
CONTINUOUS
10
139.693
20
-91.9724
11
139.757
21
-92.1271
0
LINE
8
BLACK
6
CONTINUOUS
10
139.757
20
-92.1271
11
139.79
21
-92.2913
0
LINE
8
BLACK
6
CONTINUOUS
10
139.79
20
-92.2913
11
139.79
21
-92.4587
0
LINE
8
BLACK
6
CONTINUOUS
10
139.79
20
-92.4587
11
139.757
21
-92.6229
0
LINE
8
BLACK
6
CONTINUOUS
10
139.757
20
-92.6229
11
139.693
21
-92.7776
0
LINE
8
BLACK
6
CONTINUOUS
10
139.693
20
-92.7776
11
139.6
21
-92.9168
0
LINE
8
BLACK
6
CONTINUOUS
10
139.6
20
-92.9168
11
139.482
21
-93.0352
0
LINE
8
BLACK
6
CONTINUOUS
10
139.482
20
-93.0352
11
139.343
21
-93.1283
0
LINE
8
BLACK
6
CONTINUOUS
10
139.343
20
-93.1283
11
139.188
21
-93.1923
0
LINE
8
BLACK
6
CONTINUOUS
10
139.188
20
-93.1923
11
139.024
21
-93.225
0
LINE
8
BLACK
6
CONTINUOUS
10
139.024
20
-93.225
11
138.856
21
-93.225
0
LINE
8
BLACK
6
CONTINUOUS
10
138.856
20
-93.225
11
138.692
21
-93.1923
0
LINE
8
BLACK
6
CONTINUOUS
10
138.692
20
-93.1923
11
138.537
21
-93.1283
0
LINE
8
BLACK
6
CONTINUOUS
10
138.537
20
-93.1283
11
138.398
21
-93.0352
0
LINE
8
BLACK
6
CONTINUOUS
10
138.398
20
-93.0352
11
138.28
21
-92.9168
0
LINE
8
BLACK
6
CONTINUOUS
10
138.28
20
-92.9168
11
138.187
21
-92.7776
0
LINE
8
BLACK
6
CONTINUOUS
10
138.187
20
-92.7776
11
138.123
21
-92.6229
0
LINE
8
BLACK
6
CONTINUOUS
10
138.123
20
-92.6229
11
138.09
21
-92.4587
0
LINE
8
BLACK
6
CONTINUOUS
10
138.09
20
-92.4587
11
138.09
21
-92.2913
0
LINE
8
BLACK
6
CONTINUOUS
10
138.09
20
-92.2913
11
138.123
21
-92.1271
0
LINE
8
BLACK
6
CONTINUOUS
10
138.123
20
-92.1271
11
138.187
21
-91.9724
0
LINE
8
BLACK
6
CONTINUOUS
10
138.187
20
-91.9724
11
138.28
21
-91.8332
0
LINE
8
BLACK
6
CONTINUOUS
10
138.28
20
-91.8332
11
138.398
21
-91.7148
0
LINE
8
BLACK
6
CONTINUOUS
10
138.398
20
-91.7148
11
138.537
21
-91.6217
0
LINE
8
BLACK
6
CONTINUOUS
10
138.537
20
-91.6217
11
138.692
21
-91.5577
0
LINE
8
BLACK
6
CONTINUOUS
10
138.692
20
-91.5577
11
138.856
21
-91.525
0
LINE
8
BLACK
6
CONTINUOUS
10
138.856
20
-91.525
11
139.024
21
-91.525
0
LINE
8
BLACK
6
CONTINUOUS
10
139.024
20
-91.525
11
139.188
21
-91.5577
0
LINE
8
BLACK
6
CONTINUOUS
10
136.648
20
-91.5577
11
136.803
21
-91.6217
0
LINE
8
BLACK
6
CONTINUOUS
10
136.803
20
-91.6217
11
136.942
21
-91.7148
0
LINE
8
BLACK
6
CONTINUOUS
10
136.942
20
-91.7148
11
137.06
21
-91.8332
0
LINE
8
BLACK
6
CONTINUOUS
10
137.06
20
-91.8332
11
137.153
21
-91.9724
0
LINE
8
BLACK
6
CONTINUOUS
10
137.153
20
-91.9724
11
137.217
21
-92.1271
0
LINE
8
BLACK
6
CONTINUOUS
10
137.217
20
-92.1271
11
137.25
21
-92.2913
0
LINE
8
BLACK
6
CONTINUOUS
10
137.25
20
-92.2913
11
137.25
21
-92.4587
0
LINE
8
BLACK
6
CONTINUOUS
10
137.25
20
-92.4587
11
137.217
21
-92.6229
0
LINE
8
BLACK
6
CONTINUOUS
10
137.217
20
-92.6229
11
137.153
21
-92.7776
0
LINE
8
BLACK
6
CONTINUOUS
10
137.153
20
-92.7776
11
137.06
21
-92.9168
0
LINE
8
BLACK
6
CONTINUOUS
10
137.06
20
-92.9168
11
136.942
21
-93.0352
0
LINE
8
BLACK
6
CONTINUOUS
10
136.942
20
-93.0352
11
136.803
21
-93.1283
0
LINE
8
BLACK
6
CONTINUOUS
10
136.803
20
-93.1283
11
136.648
21
-93.1923
0
LINE
8
BLACK
6
CONTINUOUS
10
136.648
20
-93.1923
11
136.484
21
-93.225
0
LINE
8
BLACK
6
CONTINUOUS
10
136.484
20
-93.225
11
136.316
21
-93.225
0
LINE
8
BLACK
6
CONTINUOUS
10
136.316
20
-93.225
11
136.152
21
-93.1923
0
LINE
8
BLACK
6
CONTINUOUS
10
136.152
20
-93.1923
11
135.997
21
-93.1283
0
LINE
8
BLACK
6
CONTINUOUS
10
135.997
20
-93.1283
11
135.858
21
-93.0352
0
LINE
8
BLACK
6
CONTINUOUS
10
135.858
20
-93.0352
11
135.74
21
-92.9168
0
LINE
8
BLACK
6
CONTINUOUS
10
135.74
20
-92.9168
11
135.647
21
-92.7776
0
LINE
8
BLACK
6
CONTINUOUS
10
135.647
20
-92.7776
11
135.583
21
-92.6229
0
LINE
8
BLACK
6
CONTINUOUS
10
135.583
20
-92.6229
11
135.55
21
-92.4587
0
LINE
8
BLACK
6
CONTINUOUS
10
135.55
20
-92.4587
11
135.55
21
-92.2913
0
LINE
8
BLACK
6
CONTINUOUS
10
135.55
20
-92.2913
11
135.583
21
-92.1271
0
LINE
8
BLACK
6
CONTINUOUS
10
135.583
20
-92.1271
11
135.647
21
-91.9724
0
LINE
8
BLACK
6
CONTINUOUS
10
135.647
20
-91.9724
11
135.74
21
-91.8332
0
LINE
8
BLACK
6
CONTINUOUS
10
135.74
20
-91.8332
11
135.858
21
-91.7148
0
LINE
8
BLACK
6
CONTINUOUS
10
135.858
20
-91.7148
11
135.997
21
-91.6217
0
LINE
8
BLACK
6
CONTINUOUS
10
135.997
20
-91.6217
11
136.152
21
-91.5577
0
LINE
8
BLACK
6
CONTINUOUS
10
136.152
20
-91.5577
11
136.316
21
-91.525
0
LINE
8
BLACK
6
CONTINUOUS
10
136.316
20
-91.525
11
136.484
21
-91.525
0
LINE
8
BLACK
6
CONTINUOUS
10
136.484
20
-91.525
11
136.648
21
-91.5577
0
LINE
8
BLACK
6
CONTINUOUS
10
134.108
20
-91.5577
11
134.263
21
-91.6217
0
LINE
8
BLACK
6
CONTINUOUS
10
134.263
20
-91.6217
11
134.402
21
-91.7148
0
LINE
8
BLACK
6
CONTINUOUS
10
134.402
20
-91.7148
11
134.52
21
-91.8332
0
LINE
8
BLACK
6
CONTINUOUS
10
134.52
20
-91.8332
11
134.613
21
-91.9724
0
LINE
8
BLACK
6
CONTINUOUS
10
134.613
20
-91.9724
11
134.677
21
-92.1271
0
LINE
8
BLACK
6
CONTINUOUS
10
134.677
20
-92.1271
11
134.71
21
-92.2913
0
LINE
8
BLACK
6
CONTINUOUS
10
134.71
20
-92.2913
11
134.71
21
-92.4587
0
LINE
8
BLACK
6
CONTINUOUS
10
134.71
20
-92.4587
11
134.677
21
-92.6229
0
LINE
8
BLACK
6
CONTINUOUS
10
134.677
20
-92.6229
11
134.613
21
-92.7776
0
LINE
8
BLACK
6
CONTINUOUS
10
134.613
20
-92.7776
11
134.52
21
-92.9168
0
LINE
8
BLACK
6
CONTINUOUS
10
134.52
20
-92.9168
11
134.402
21
-93.0352
0
LINE
8
BLACK
6
CONTINUOUS
10
134.402
20
-93.0352
11
134.263
21
-93.1283
0
LINE
8
BLACK
6
CONTINUOUS
10
134.263
20
-93.1283
11
134.108
21
-93.1923
0
LINE
8
BLACK
6
CONTINUOUS
10
134.108
20
-93.1923
11
133.944
21
-93.225
0
LINE
8
BLACK
6
CONTINUOUS
10
133.944
20
-93.225
11
133.776
21
-93.225
0
LINE
8
BLACK
6
CONTINUOUS
10
133.776
20
-93.225
11
133.612
21
-93.1923
0
LINE
8
BLACK
6
CONTINUOUS
10
133.612
20
-93.1923
11
133.457
21
-93.1283
0
LINE
8
BLACK
6
CONTINUOUS
10
133.457
20
-93.1283
11
133.318
21
-93.0352
0
LINE
8
BLACK
6
CONTINUOUS
10
133.318
20
-93.0352
11
133.2
21
-92.9168
0
LINE
8
BLACK
6
CONTINUOUS
10
133.2
20
-92.9168
11
133.107
21
-92.7776
0
LINE
8
BLACK
6
CONTINUOUS
10
133.107
20
-92.7776
11
133.043
21
-92.6229
0
LINE
8
BLACK
6
CONTINUOUS
10
133.043
20
-92.6229
11
133.01
21
-92.4587
0
LINE
8
BLACK
6
CONTINUOUS
10
133.01
20
-92.4587
11
133.01
21
-92.2913
0
LINE
8
BLACK
6
CONTINUOUS
10
133.01
20
-92.2913
11
133.043
21
-92.1271
0
LINE
8
BLACK
6
CONTINUOUS
10
133.043
20
-92.1271
11
133.107
21
-91.9724
0
LINE
8
BLACK
6
CONTINUOUS
10
133.107
20
-91.9724
11
133.2
21
-91.8332
0
LINE
8
BLACK
6
CONTINUOUS
10
133.2
20
-91.8332
11
133.318
21
-91.7148
0
LINE
8
BLACK
6
CONTINUOUS
10
133.318
20
-91.7148
11
133.457
21
-91.6217
0
LINE
8
BLACK
6
CONTINUOUS
10
133.457
20
-91.6217
11
133.612
21
-91.5577
0
LINE
8
BLACK
6
CONTINUOUS
10
133.612
20
-91.5577
11
133.776
21
-91.525
0
LINE
8
BLACK
6
CONTINUOUS
10
133.776
20
-91.525
11
133.944
21
-91.525
0
LINE
8
BLACK
6
CONTINUOUS
10
133.944
20
-91.525
11
134.108
21
-91.5577
  0
ENDSEC
  0
EOF
