M48
; DRILL file {KiCad (5.1.12)-1} date 01/24/22 11:21:37
; FORMAT={-:-/ absolute / metric / decimal}
; #@! TF.CreationDate,2022-01-24T11:21:37+01:00
; #@! TF.GenerationSoftware,Kicad,Pcbnew,(5.1.12)-1
; #@! TF.FileFunction,Plated,1,2,PTH
FMAT,2
METRIC
T1C0.400
T2C0.500
T3C0.762
T4C0.850
T5C1.000
%
G90
G05
T1
X105.275Y-117.05
X105.35Y-115.35
X106.1Y-148.625
X106.675Y-118.5
X106.775Y-125.9
X108.075Y-108.525
X111.575Y-93.6
X112.25Y-120.35
X113.425Y-133.45
X114.1Y-119.325
X115.2Y-115.6
X115.225Y-116.75
X116.05Y-94.9
X117.7Y-93.05
X119.25Y-109.3
X121.35Y-147.8
X124.625Y-124.475
X128.95Y-144.075
X129.125Y-140.85
X130.675Y-98.875
X132.6Y-144.15
X133.65Y-123.575
X133.875Y-95.95
X133.875Y-140.775
X133.875Y-142.675
X134.225Y-134.35
X134.875Y-138.875
X137.075Y-136.5
X137.675Y-116.525
X137.725Y-124.3
X138.45Y-112.675
X138.6Y-143.05
X138.8Y-132.0
X139.575Y-114.55
X139.65Y-122.4
X139.65Y-126.575
X139.675Y-118.425
X139.85Y-141.85
X141.15Y-133.325
X141.675Y-124.475
X141.75Y-116.575
X141.9Y-138.125
X142.925Y-135.05
X142.975Y-95.45
X143.35Y-139.45
X143.425Y-143.475
X144.1Y-96.575
X144.3Y-147.175
X144.35Y-110.525
X144.75Y-138.175
X145.95Y-115.825
X147.125Y-114.675
X147.3Y-109.875
X147.45Y-105.025
X148.75Y-149.1
X148.95Y-98.325
X149.15Y-111.275
X150.075Y-102.775
X150.325Y-138.7
X151.9Y-129.125
X151.925Y-93.4
X152.575Y-106.9
X152.8Y-102.225
X153.475Y-98.3
X154.2Y-112.975
X154.225Y-117.625
X154.225Y-131.05
X154.3Y-116.1
X154.325Y-121.325
X154.725Y-102.1
X155.5Y-122.15
X155.725Y-128.275
X156.45Y-103.35
X156.45Y-119.4
X156.475Y-124.625
X156.775Y-115.35
X156.9Y-118.05
X157.275Y-122.464
X157.775Y-121.5
X158.35Y-129.375
X158.475Y-120.35
X159.15Y-118.55
X159.35Y-129.225
X159.55Y-108.525
X160.25Y-118.525
X160.35Y-101.475
X160.9Y-106.3
X161.125Y-123.35
X161.2Y-120.4
X161.2Y-132.375
X161.4Y-118.4
X162.275Y-117.625
X162.875Y-112.025
X163.05Y-118.525
X163.35Y-131.925
X163.775Y-117.078
X163.875Y-120.2
X164.025Y-98.025
X164.375Y-100.0
X164.725Y-137.45
X165.025Y-106.75
X165.075Y-118.45
X165.449Y-102.074
X165.469Y-101.03
X165.975Y-99.275
X167.7Y-128.575
X168.4Y-103.725
X168.5Y-98.275
X168.65Y-115.55
X169.75Y-99.975
X170.35Y-136.677
X170.9Y-111.8
X170.925Y-97.575
X171.375Y-124.9
X171.4Y-99.875
X171.75Y-104.65
X172.975Y-106.875
X172.975Y-109.375
X172.975Y-131.025
X174.2Y-134.15
X174.625Y-114.4
X175.404Y-132.879
X175.45Y-124.3
X175.6Y-148.7
X176.7Y-131.35
X176.925Y-98.4
X182.025Y-93.525
X187.325Y-140.475
X187.75Y-127.75
X190.5Y-105.1
X193.225Y-100.9
X197.45Y-106.475
X197.5Y-134.3
X198.825Y-105.05
X199.275Y-116.075
X202.725Y-118.6
X204.175Y-115.425
X204.275Y-117.0
X204.55Y-91.4
X205.65Y-144.4
X205.75Y-120.5
X205.9Y-128.1
X205.95Y-107.225
X209.525Y-118.275
X210.85Y-116.875
X210.95Y-115.15
T3
X106.175Y-111.325
X108.715Y-111.325
X112.475Y-111.325
X115.015Y-111.325
X200.63Y-111.2
X203.17Y-111.2
X207.43Y-111.15
X209.97Y-111.15
T4
X130.85Y-129.85
X130.85Y-134.05
X130.85Y-138.25
X130.85Y-142.45
T5
X133.86Y-92.375
X136.4Y-92.375
X138.94Y-92.375
X141.48Y-92.375
X144.02Y-92.375
X146.56Y-92.375
X177.925Y-134.825
X177.925Y-137.365
T2
X108.935Y-94.62G85X108.935Y-95.12
G05
X108.935Y-97.16G85X108.935Y-97.66
G05
X108.935Y-99.7G85X108.935Y-100.2
G05
X108.935Y-102.24G85X108.935Y-102.74
G05
X108.935Y-104.78G85X108.935Y-105.28
G05
X114.015Y-94.62G85X114.015Y-95.12
G05
X114.015Y-97.16G85X114.015Y-97.66
G05
X114.015Y-99.7G85X114.015Y-100.2
G05
X114.015Y-102.24G85X114.015Y-102.74
G05
X114.015Y-104.78G85X114.015Y-105.28
G05
X202.06Y-95.145G85X202.06Y-94.645
G05
X202.06Y-97.685G85X202.06Y-97.185
G05
X202.06Y-100.225G85X202.06Y-99.725
G05
X202.06Y-102.765G85X202.06Y-102.265
G05
X202.06Y-105.305G85X202.06Y-104.805
G05
X207.14Y-95.145G85X207.14Y-94.645
G05
X207.14Y-97.685G85X207.14Y-97.185
G05
X207.14Y-100.225G85X207.14Y-99.725
G05
X207.14Y-102.765G85X207.14Y-102.265
G05
X207.14Y-105.305G85X207.14Y-104.805
G05
T0
M30
