%TF.GenerationSoftware,KiCad,Pcbnew,(5.1.12)-1*%
%TF.CreationDate,2022-01-24T11:21:28+01:00*%
%TF.ProjectId,KieraV2,4b696572-6156-4322-9e6b-696361645f70,rev?*%
%TF.SameCoordinates,Original*%
%TF.FileFunction,Soldermask,Bot*%
%TF.FilePolarity,Negative*%
%FSLAX46Y46*%
G04 Gerber Fmt 4.6, Leading zero omitted, Abs format (unit mm)*
G04 Created by KiCad (PCBNEW (5.1.12)-1) date 2022-01-24 11:21:28*
%MOMM*%
%LPD*%
G01*
G04 APERTURE LIST*
%ADD10O,1.700000X1.700000*%
%ADD11R,1.700000X1.700000*%
%ADD12C,1.524000*%
%ADD13C,2.200000*%
%ADD14C,1.850000*%
%ADD15C,3.200000*%
%ADD16C,9.500000*%
%ADD17C,7.500000*%
G04 APERTURE END LIST*
D10*
X133860000Y-92375000D03*
X136400000Y-92375000D03*
X138940000Y-92375000D03*
X141480000Y-92375000D03*
X144020000Y-92375000D03*
D11*
X146560000Y-92375000D03*
D12*
X114015000Y-105030000D03*
X114015000Y-102490000D03*
X114015000Y-99950000D03*
X114015000Y-97410000D03*
X114015000Y-94870000D03*
X108935000Y-94870000D03*
X108935000Y-97410000D03*
X108935000Y-99950000D03*
X108935000Y-102490000D03*
X108935000Y-105030000D03*
D13*
X120650000Y-142450000D03*
X120650000Y-138250000D03*
X120650000Y-134050000D03*
X120650000Y-129850000D03*
D14*
X130850000Y-142450000D03*
X130850000Y-138250000D03*
X130850000Y-134050000D03*
G36*
G01*
X130174999Y-128925000D02*
X131525001Y-128925000D01*
G75*
G02*
X131775000Y-129174999I0J-249999D01*
G01*
X131775000Y-130525001D01*
G75*
G02*
X131525001Y-130775000I-249999J0D01*
G01*
X130174999Y-130775000D01*
G75*
G02*
X129925000Y-130525001I0J249999D01*
G01*
X129925000Y-129174999D01*
G75*
G02*
X130174999Y-128925000I249999J0D01*
G01*
G37*
D15*
X127600000Y-95000000D03*
X188400000Y-96000000D03*
X188400000Y-147700000D03*
X127600000Y-147700000D03*
D16*
X188400000Y-115825000D03*
X127600000Y-115825000D03*
D17*
X158000000Y-142075000D03*
D12*
X202060000Y-94895000D03*
X202060000Y-97435000D03*
X202060000Y-99975000D03*
X202060000Y-102515000D03*
X202060000Y-105055000D03*
X207140000Y-105055000D03*
X207140000Y-102515000D03*
X207140000Y-99975000D03*
X207140000Y-97435000D03*
X207140000Y-94895000D03*
X106175000Y-111325000D03*
X108715000Y-111325000D03*
X115015000Y-111325000D03*
X112475000Y-111325000D03*
X200630000Y-111200000D03*
X203170000Y-111200000D03*
X209970000Y-111150000D03*
X207430000Y-111150000D03*
D10*
X177925000Y-137365000D03*
D11*
X177925000Y-134825000D03*
M02*
