%FSLAX45Y45*%
G04 Gerber Fmt 4.5, Leading zero omitted, Abs format (unit mm)*
G04 Created by KiCad (PCBNEW (5.1.12)-1) date 2022-01-20 14:50:09*
%MOMM*%
%LPD*%
G01*
G04 APERTURE LIST*
%TA.AperFunction,Profile*%
%ADD10C,0.100000*%
%TD*%
%ADD11C,0.200000*%
%ADD12C,0.300000*%
G04 APERTURE END LIST*
D10*
X21050000Y-8980000D02*
G75*
G02*
X21350000Y-9280000I0J-300000D01*
G01*
X21350000Y-15000000D02*
G75*
G02*
X21050000Y-15300000I-300000J0D01*
G01*
X10550000Y-15300000D02*
G75*
G02*
X10250000Y-15000000I0J300000D01*
G01*
X10250000Y-9280000D02*
G75*
G02*
X10550000Y-8980000I300000J0D01*
G01*
X10550000Y-15300000D02*
X21050000Y-15300000D01*
X21350000Y-9280000D02*
X21350000Y-15000000D01*
X10550000Y-8980000D02*
X21050000Y-8980000D01*
X10250000Y-9280000D02*
X10250000Y-15000000D01*
D11*
X10590000Y-14842500D02*
X10630000Y-14882500D01*
X10630000Y-14842500D02*
X10590000Y-14882500D01*
X10657500Y-12570000D02*
X10697500Y-12610000D01*
X10697500Y-12570000D02*
X10657500Y-12610000D01*
X10787500Y-10832500D02*
X10827500Y-10872500D01*
X10827500Y-10832500D02*
X10787500Y-10872500D01*
X11137500Y-9340000D02*
X11177500Y-9380000D01*
X11177500Y-9340000D02*
X11137500Y-9380000D01*
X11205000Y-12015000D02*
X11245000Y-12055000D01*
X11245000Y-12015000D02*
X11205000Y-12055000D01*
X11322500Y-13325000D02*
X11362500Y-13365000D01*
X11362500Y-13325000D02*
X11322500Y-13365000D01*
X11390000Y-11912500D02*
X11430000Y-11952500D01*
X11430000Y-11912500D02*
X11390000Y-11952500D01*
X11905000Y-10910000D02*
X11945000Y-10950000D01*
X11945000Y-10910000D02*
X11905000Y-10950000D01*
X12115000Y-14760000D02*
X12155000Y-14800000D01*
X12155000Y-14760000D02*
X12115000Y-14800000D01*
X12442500Y-12427500D02*
X12482500Y-12467500D01*
X12482500Y-12427500D02*
X12442500Y-12467500D01*
X13047500Y-9867500D02*
X13087500Y-9907500D01*
X13087500Y-9867500D02*
X13047500Y-9907500D01*
X13345000Y-12337500D02*
X13385000Y-12377500D01*
X13385000Y-12337500D02*
X13345000Y-12377500D01*
X13367500Y-9575000D02*
X13407500Y-9615000D01*
X13407500Y-9575000D02*
X13367500Y-9615000D01*
X13367500Y-14057500D02*
X13407500Y-14097500D01*
X13407500Y-14057500D02*
X13367500Y-14097500D01*
X13367500Y-14247500D02*
X13407500Y-14287500D01*
X13407500Y-14247500D02*
X13367500Y-14287500D01*
X13825000Y-11247500D02*
X13865000Y-11287500D01*
X13865000Y-11247500D02*
X13825000Y-11287500D01*
X13860000Y-13180000D02*
X13900000Y-13220000D01*
X13900000Y-13180000D02*
X13860000Y-13220000D01*
X14095000Y-13312500D02*
X14135000Y-13352500D01*
X14135000Y-13312500D02*
X14095000Y-13352500D01*
X14277500Y-9525000D02*
X14317500Y-9565000D01*
X14317500Y-9525000D02*
X14277500Y-9565000D01*
X14322500Y-14327500D02*
X14362500Y-14367500D01*
X14362500Y-14327500D02*
X14322500Y-14367500D01*
X14390000Y-9637500D02*
X14430000Y-9677500D01*
X14430000Y-9637500D02*
X14390000Y-9677500D01*
X14410000Y-14697500D02*
X14450000Y-14737500D01*
X14450000Y-14697500D02*
X14410000Y-14737500D01*
X14415000Y-11032500D02*
X14455000Y-11072500D01*
X14455000Y-11032500D02*
X14415000Y-11072500D01*
X14710000Y-10967500D02*
X14750000Y-11007500D01*
X14750000Y-10967500D02*
X14710000Y-11007500D01*
X14725000Y-10482500D02*
X14765000Y-10522500D01*
X14765000Y-10482500D02*
X14725000Y-10522500D01*
X14855000Y-14890000D02*
X14895000Y-14930000D01*
X14895000Y-14890000D02*
X14855000Y-14930000D01*
X14875000Y-9812500D02*
X14915000Y-9852500D01*
X14915000Y-9812500D02*
X14875000Y-9852500D01*
X14895000Y-11107500D02*
X14935000Y-11147500D01*
X14935000Y-11107500D02*
X14895000Y-11147500D01*
X14987500Y-10257500D02*
X15027500Y-10297500D01*
X15027500Y-10257500D02*
X14987500Y-10297500D01*
X15012500Y-13850000D02*
X15052500Y-13890000D01*
X15052500Y-13850000D02*
X15012500Y-13890000D01*
X15172500Y-9320000D02*
X15212500Y-9360000D01*
X15212500Y-9320000D02*
X15172500Y-9360000D01*
X15237500Y-10670000D02*
X15277500Y-10710000D01*
X15277500Y-10670000D02*
X15237500Y-10710000D01*
X15327500Y-9810000D02*
X15367500Y-9850000D01*
X15367500Y-9810000D02*
X15327500Y-9850000D01*
X15400000Y-11277500D02*
X15440000Y-11317500D01*
X15440000Y-11277500D02*
X15400000Y-11317500D01*
X15552500Y-12807500D02*
X15592500Y-12847500D01*
X15592500Y-12807500D02*
X15552500Y-12847500D01*
X15625000Y-10315000D02*
X15665000Y-10355000D01*
X15665000Y-10315000D02*
X15625000Y-10355000D01*
X15625000Y-11920000D02*
X15665000Y-11960000D01*
X15665000Y-11920000D02*
X15625000Y-11960000D01*
X15627500Y-12442500D02*
X15667500Y-12482500D01*
X15667500Y-12442500D02*
X15627500Y-12482500D01*
X15657500Y-11515000D02*
X15697500Y-11555000D01*
X15697500Y-11515000D02*
X15657500Y-11555000D01*
X15707500Y-12226352D02*
X15747500Y-12266352D01*
X15747500Y-12226352D02*
X15707500Y-12266352D01*
X15757500Y-12130000D02*
X15797500Y-12170000D01*
X15797500Y-12130000D02*
X15757500Y-12170000D01*
X15815000Y-12917500D02*
X15855000Y-12957500D01*
X15855000Y-12917500D02*
X15815000Y-12957500D01*
X15827500Y-12015000D02*
X15867500Y-12055000D01*
X15867500Y-12015000D02*
X15827500Y-12055000D01*
X15895000Y-11835000D02*
X15935000Y-11875000D01*
X15935000Y-11835000D02*
X15895000Y-11875000D01*
X15915000Y-12902500D02*
X15955000Y-12942500D01*
X15955000Y-12902500D02*
X15915000Y-12942500D01*
X16005000Y-11832500D02*
X16045000Y-11872500D01*
X16045000Y-11832500D02*
X16005000Y-11872500D01*
X16092500Y-12315000D02*
X16132500Y-12355000D01*
X16132500Y-12315000D02*
X16092500Y-12355000D01*
X16100000Y-12020000D02*
X16140000Y-12060000D01*
X16140000Y-12020000D02*
X16100000Y-12060000D01*
X16120000Y-11820000D02*
X16160000Y-11860000D01*
X16160000Y-11820000D02*
X16120000Y-11860000D01*
X16207500Y-11742500D02*
X16247500Y-11782500D01*
X16247500Y-11742500D02*
X16207500Y-11782500D01*
X16267500Y-11182500D02*
X16307500Y-11222500D01*
X16307500Y-11182500D02*
X16267500Y-11222500D01*
X16285000Y-11832500D02*
X16325000Y-11872500D01*
X16325000Y-11832500D02*
X16285000Y-11872500D01*
X16357501Y-11687789D02*
X16397501Y-11727789D01*
X16397501Y-11687789D02*
X16357501Y-11727789D01*
X16367500Y-12000000D02*
X16407500Y-12040000D01*
X16407500Y-12000000D02*
X16367500Y-12040000D01*
X16382500Y-9782500D02*
X16422500Y-9822500D01*
X16422500Y-9782500D02*
X16382500Y-9822500D01*
X16417500Y-9980000D02*
X16457500Y-10020000D01*
X16457500Y-9980000D02*
X16417500Y-10020000D01*
X16452500Y-13725000D02*
X16492500Y-13765000D01*
X16492500Y-13725000D02*
X16452500Y-13765000D01*
X16487500Y-11825000D02*
X16527500Y-11865000D01*
X16527500Y-11825000D02*
X16487500Y-11865000D01*
X16524932Y-10187432D02*
X16564932Y-10227432D01*
X16564932Y-10187432D02*
X16524932Y-10227432D01*
X16526872Y-10082960D02*
X16566872Y-10122960D01*
X16566872Y-10082960D02*
X16526872Y-10122960D01*
X16577500Y-9907500D02*
X16617500Y-9947500D01*
X16617500Y-9907500D02*
X16577500Y-9947500D01*
X16750000Y-12837500D02*
X16790000Y-12877500D01*
X16790000Y-12837500D02*
X16750000Y-12877500D01*
X16820000Y-10352500D02*
X16860000Y-10392500D01*
X16860000Y-10352500D02*
X16820000Y-10392500D01*
X16830000Y-9807500D02*
X16870000Y-9847500D01*
X16870000Y-9807500D02*
X16830000Y-9847500D01*
X16845000Y-11535000D02*
X16885000Y-11575000D01*
X16885000Y-11535000D02*
X16845000Y-11575000D01*
X16955000Y-9977500D02*
X16995000Y-10017500D01*
X16995000Y-9977500D02*
X16955000Y-10017500D01*
X17014999Y-13647701D02*
X17054999Y-13687701D01*
X17054999Y-13647701D02*
X17014999Y-13687701D01*
X17070000Y-11160000D02*
X17110000Y-11200000D01*
X17110000Y-11160000D02*
X17070000Y-11200000D01*
X17072500Y-9737500D02*
X17112500Y-9777500D01*
X17112500Y-9737500D02*
X17072500Y-9777500D01*
X17117500Y-12470000D02*
X17157500Y-12510000D01*
X17157500Y-12470000D02*
X17117500Y-12510000D01*
X17120000Y-9967500D02*
X17160000Y-10007500D01*
X17160000Y-9967500D02*
X17120000Y-10007500D01*
X17277500Y-10667500D02*
X17317500Y-10707500D01*
X17317500Y-10667500D02*
X17277500Y-10707500D01*
X17277500Y-10917500D02*
X17317500Y-10957500D01*
X17317500Y-10917500D02*
X17277500Y-10957500D01*
X17400000Y-13395000D02*
X17440000Y-13435000D01*
X17440000Y-13395000D02*
X17400000Y-13435000D01*
X17442500Y-11420000D02*
X17482500Y-11460000D01*
X17482500Y-11420000D02*
X17442500Y-11460000D01*
X17520377Y-13267877D02*
X17560377Y-13307877D01*
X17560377Y-13267877D02*
X17520377Y-13307877D01*
X17540000Y-14850000D02*
X17580000Y-14890000D01*
X17580000Y-14850000D02*
X17540000Y-14890000D01*
X17672500Y-9820000D02*
X17712500Y-9860000D01*
X17712500Y-9820000D02*
X17672500Y-9860000D01*
X18182500Y-9332500D02*
X18222500Y-9372500D01*
X18222500Y-9332500D02*
X18182500Y-9372500D01*
X18712500Y-14027500D02*
X18752500Y-14067500D01*
X18752500Y-14027500D02*
X18712500Y-14067500D01*
X18755000Y-12755000D02*
X18795000Y-12795000D01*
X18795000Y-12755000D02*
X18755000Y-12795000D01*
X19030000Y-10490000D02*
X19070000Y-10530000D01*
X19070000Y-10490000D02*
X19030000Y-10530000D01*
X19302500Y-10070000D02*
X19342500Y-10110000D01*
X19342500Y-10070000D02*
X19302500Y-10110000D01*
X19730000Y-13410000D02*
X19770000Y-13450000D01*
X19770000Y-13410000D02*
X19730000Y-13450000D01*
X19907500Y-11587500D02*
X19947500Y-11627500D01*
X19947500Y-11587500D02*
X19907500Y-11627500D01*
X20435000Y-9120000D02*
X20475000Y-9160000D01*
X20475000Y-9120000D02*
X20435000Y-9160000D01*
X20515000Y-11517500D02*
X20555000Y-11557500D01*
X20555000Y-11517500D02*
X20515000Y-11557500D01*
X20545000Y-14420000D02*
X20585000Y-14460000D01*
X20585000Y-14420000D02*
X20545000Y-14460000D01*
X20555000Y-12030000D02*
X20595000Y-12070000D01*
X20595000Y-12030000D02*
X20555000Y-12070000D01*
X20570000Y-12790000D02*
X20610000Y-12830000D01*
X20610000Y-12790000D02*
X20570000Y-12830000D01*
X20575000Y-10702500D02*
X20615000Y-10742500D01*
X20615000Y-10702500D02*
X20575000Y-10742500D01*
X10918500Y-9487000D02*
G75*
G03*
X10918500Y-9487000I-25000J0D01*
G01*
X10878500Y-9462000D02*
X10878500Y-9512000D01*
X10908500Y-9462000D02*
X10908500Y-9512000D01*
X10878500Y-9512000D02*
G75*
G03*
X10908500Y-9512000I15000J0D01*
G01*
X10908500Y-9462000D02*
G75*
G03*
X10878500Y-9462000I-15000J0D01*
G01*
X10918500Y-9741000D02*
G75*
G03*
X10918500Y-9741000I-25000J0D01*
G01*
X10878500Y-9716000D02*
X10878500Y-9766000D01*
X10908500Y-9716000D02*
X10908500Y-9766000D01*
X10878500Y-9766000D02*
G75*
G03*
X10908500Y-9766000I15000J0D01*
G01*
X10908500Y-9716000D02*
G75*
G03*
X10878500Y-9716000I-15000J0D01*
G01*
X10918500Y-9995000D02*
G75*
G03*
X10918500Y-9995000I-25000J0D01*
G01*
X10878500Y-9970000D02*
X10878500Y-10020000D01*
X10908500Y-9970000D02*
X10908500Y-10020000D01*
X10878500Y-10020000D02*
G75*
G03*
X10908500Y-10020000I15000J0D01*
G01*
X10908500Y-9970000D02*
G75*
G03*
X10878500Y-9970000I-15000J0D01*
G01*
X10918500Y-10249000D02*
G75*
G03*
X10918500Y-10249000I-25000J0D01*
G01*
X10878500Y-10224000D02*
X10878500Y-10274000D01*
X10908500Y-10224000D02*
X10908500Y-10274000D01*
X10878500Y-10274000D02*
G75*
G03*
X10908500Y-10274000I15000J0D01*
G01*
X10908500Y-10224000D02*
G75*
G03*
X10878500Y-10224000I-15000J0D01*
G01*
X10918500Y-10503000D02*
G75*
G03*
X10918500Y-10503000I-25000J0D01*
G01*
X10878500Y-10478000D02*
X10878500Y-10528000D01*
X10908500Y-10478000D02*
X10908500Y-10528000D01*
X10878500Y-10528000D02*
G75*
G03*
X10908500Y-10528000I15000J0D01*
G01*
X10908500Y-10478000D02*
G75*
G03*
X10878500Y-10478000I-15000J0D01*
G01*
X11426500Y-9487000D02*
G75*
G03*
X11426500Y-9487000I-25000J0D01*
G01*
X11386500Y-9462000D02*
X11386500Y-9512000D01*
X11416500Y-9462000D02*
X11416500Y-9512000D01*
X11386500Y-9512000D02*
G75*
G03*
X11416500Y-9512000I15000J0D01*
G01*
X11416500Y-9462000D02*
G75*
G03*
X11386500Y-9462000I-15000J0D01*
G01*
X11426500Y-9741000D02*
G75*
G03*
X11426500Y-9741000I-25000J0D01*
G01*
X11386500Y-9716000D02*
X11386500Y-9766000D01*
X11416500Y-9716000D02*
X11416500Y-9766000D01*
X11386500Y-9766000D02*
G75*
G03*
X11416500Y-9766000I15000J0D01*
G01*
X11416500Y-9716000D02*
G75*
G03*
X11386500Y-9716000I-15000J0D01*
G01*
X11426500Y-9995000D02*
G75*
G03*
X11426500Y-9995000I-25000J0D01*
G01*
X11386500Y-9970000D02*
X11386500Y-10020000D01*
X11416500Y-9970000D02*
X11416500Y-10020000D01*
X11386500Y-10020000D02*
G75*
G03*
X11416500Y-10020000I15000J0D01*
G01*
X11416500Y-9970000D02*
G75*
G03*
X11386500Y-9970000I-15000J0D01*
G01*
X11426500Y-10249000D02*
G75*
G03*
X11426500Y-10249000I-25000J0D01*
G01*
X11386500Y-10224000D02*
X11386500Y-10274000D01*
X11416500Y-10224000D02*
X11416500Y-10274000D01*
X11386500Y-10274000D02*
G75*
G03*
X11416500Y-10274000I15000J0D01*
G01*
X11416500Y-10224000D02*
G75*
G03*
X11386500Y-10224000I-15000J0D01*
G01*
X11426500Y-10503000D02*
G75*
G03*
X11426500Y-10503000I-25000J0D01*
G01*
X11386500Y-10478000D02*
X11386500Y-10528000D01*
X11416500Y-10478000D02*
X11416500Y-10528000D01*
X11386500Y-10528000D02*
G75*
G03*
X11416500Y-10528000I15000J0D01*
G01*
X11416500Y-10478000D02*
G75*
G03*
X11386500Y-10478000I-15000J0D01*
G01*
X20231000Y-9489500D02*
G75*
G03*
X20231000Y-9489500I-25000J0D01*
G01*
X20221000Y-9514500D02*
X20221000Y-9464500D01*
X20191000Y-9514500D02*
X20191000Y-9464500D01*
X20221000Y-9464500D02*
G75*
G03*
X20191000Y-9464500I-15000J0D01*
G01*
X20191000Y-9514500D02*
G75*
G03*
X20221000Y-9514500I15000J0D01*
G01*
X20231000Y-9743500D02*
G75*
G03*
X20231000Y-9743500I-25000J0D01*
G01*
X20221000Y-9768500D02*
X20221000Y-9718500D01*
X20191000Y-9768500D02*
X20191000Y-9718500D01*
X20221000Y-9718500D02*
G75*
G03*
X20191000Y-9718500I-15000J0D01*
G01*
X20191000Y-9768500D02*
G75*
G03*
X20221000Y-9768500I15000J0D01*
G01*
X20231000Y-9997500D02*
G75*
G03*
X20231000Y-9997500I-25000J0D01*
G01*
X20221000Y-10022500D02*
X20221000Y-9972500D01*
X20191000Y-10022500D02*
X20191000Y-9972500D01*
X20221000Y-9972500D02*
G75*
G03*
X20191000Y-9972500I-15000J0D01*
G01*
X20191000Y-10022500D02*
G75*
G03*
X20221000Y-10022500I15000J0D01*
G01*
X20231000Y-10251500D02*
G75*
G03*
X20231000Y-10251500I-25000J0D01*
G01*
X20221000Y-10276500D02*
X20221000Y-10226500D01*
X20191000Y-10276500D02*
X20191000Y-10226500D01*
X20221000Y-10226500D02*
G75*
G03*
X20191000Y-10226500I-15000J0D01*
G01*
X20191000Y-10276500D02*
G75*
G03*
X20221000Y-10276500I15000J0D01*
G01*
X20231000Y-10505500D02*
G75*
G03*
X20231000Y-10505500I-25000J0D01*
G01*
X20221000Y-10530500D02*
X20221000Y-10480500D01*
X20191000Y-10530500D02*
X20191000Y-10480500D01*
X20221000Y-10480500D02*
G75*
G03*
X20191000Y-10480500I-15000J0D01*
G01*
X20191000Y-10530500D02*
G75*
G03*
X20221000Y-10530500I15000J0D01*
G01*
X20739000Y-9489500D02*
G75*
G03*
X20739000Y-9489500I-25000J0D01*
G01*
X20729000Y-9514500D02*
X20729000Y-9464500D01*
X20699000Y-9514500D02*
X20699000Y-9464500D01*
X20729000Y-9464500D02*
G75*
G03*
X20699000Y-9464500I-15000J0D01*
G01*
X20699000Y-9514500D02*
G75*
G03*
X20729000Y-9514500I15000J0D01*
G01*
X20739000Y-9743500D02*
G75*
G03*
X20739000Y-9743500I-25000J0D01*
G01*
X20729000Y-9768500D02*
X20729000Y-9718500D01*
X20699000Y-9768500D02*
X20699000Y-9718500D01*
X20729000Y-9718500D02*
G75*
G03*
X20699000Y-9718500I-15000J0D01*
G01*
X20699000Y-9768500D02*
G75*
G03*
X20729000Y-9768500I15000J0D01*
G01*
X20739000Y-9997500D02*
G75*
G03*
X20739000Y-9997500I-25000J0D01*
G01*
X20729000Y-10022500D02*
X20729000Y-9972500D01*
X20699000Y-10022500D02*
X20699000Y-9972500D01*
X20729000Y-9972500D02*
G75*
G03*
X20699000Y-9972500I-15000J0D01*
G01*
X20699000Y-10022500D02*
G75*
G03*
X20729000Y-10022500I15000J0D01*
G01*
X20739000Y-10251500D02*
G75*
G03*
X20739000Y-10251500I-25000J0D01*
G01*
X20729000Y-10276500D02*
X20729000Y-10226500D01*
X20699000Y-10276500D02*
X20699000Y-10226500D01*
X20729000Y-10226500D02*
G75*
G03*
X20699000Y-10226500I-15000J0D01*
G01*
X20699000Y-10276500D02*
G75*
G03*
X20729000Y-10276500I15000J0D01*
G01*
X20739000Y-10505500D02*
G75*
G03*
X20739000Y-10505500I-25000J0D01*
G01*
X20729000Y-10530500D02*
X20729000Y-10480500D01*
X20699000Y-10530500D02*
X20699000Y-10480500D01*
X20729000Y-10480500D02*
G75*
G03*
X20699000Y-10480500I-15000J0D01*
G01*
X20699000Y-10530500D02*
G75*
G03*
X20729000Y-10530500I15000J0D01*
G01*
X10617500Y-11094400D02*
X10617500Y-11170600D01*
X10579400Y-11132500D02*
X10655600Y-11132500D01*
X10871500Y-11094400D02*
X10871500Y-11170600D01*
X10833400Y-11132500D02*
X10909600Y-11132500D01*
X11247500Y-11094400D02*
X11247500Y-11170600D01*
X11209400Y-11132500D02*
X11285600Y-11132500D01*
X11501500Y-11094400D02*
X11501500Y-11170600D01*
X11463400Y-11132500D02*
X11539600Y-11132500D01*
X20063000Y-11081900D02*
X20063000Y-11158100D01*
X20024900Y-11120000D02*
X20101100Y-11120000D01*
X20317000Y-11081900D02*
X20317000Y-11158100D01*
X20278900Y-11120000D02*
X20355100Y-11120000D01*
X20743000Y-11076900D02*
X20743000Y-11153100D01*
X20704900Y-11115000D02*
X20781100Y-11115000D01*
X20997000Y-11076900D02*
X20997000Y-11153100D01*
X20958900Y-11115000D02*
X21035100Y-11115000D01*
X13115052Y-13015052D02*
X13115052Y-12954948D01*
X13054948Y-12954948D01*
X13054948Y-13015052D01*
X13115052Y-13015052D01*
X13115052Y-13435052D02*
X13115052Y-13374948D01*
X13054948Y-13374948D01*
X13054948Y-13435052D01*
X13115052Y-13435052D01*
X13115052Y-13855052D02*
X13115052Y-13794948D01*
X13054948Y-13794948D01*
X13054948Y-13855052D01*
X13115052Y-13855052D01*
X13115052Y-14275052D02*
X13115052Y-14214948D01*
X13054948Y-14214948D01*
X13054948Y-14275052D01*
X13115052Y-14275052D01*
X13386000Y-9287500D02*
X13436000Y-9237500D01*
X13386000Y-9187500D01*
X13336000Y-9237500D01*
X13386000Y-9287500D01*
X13640000Y-9287500D02*
X13690000Y-9237500D01*
X13640000Y-9187500D01*
X13590000Y-9237500D01*
X13640000Y-9287500D01*
X13894000Y-9287500D02*
X13944000Y-9237500D01*
X13894000Y-9187500D01*
X13844000Y-9237500D01*
X13894000Y-9287500D01*
X14148000Y-9287500D02*
X14198000Y-9237500D01*
X14148000Y-9187500D01*
X14098000Y-9237500D01*
X14148000Y-9287500D01*
X14402000Y-9287500D02*
X14452000Y-9237500D01*
X14402000Y-9187500D01*
X14352000Y-9237500D01*
X14402000Y-9287500D01*
X14656000Y-9287500D02*
X14706000Y-9237500D01*
X14656000Y-9187500D01*
X14606000Y-9237500D01*
X14656000Y-9287500D01*
X17792500Y-13532500D02*
X17842500Y-13482500D01*
X17792500Y-13432500D01*
X17742500Y-13482500D01*
X17792500Y-13532500D01*
X17792500Y-13786500D02*
X17842500Y-13736500D01*
X17792500Y-13686500D01*
X17742500Y-13736500D01*
X17792500Y-13786500D01*
D12*
X10531428Y-15770714D02*
X10531428Y-15470714D01*
X10602857Y-15470714D01*
X10645714Y-15485000D01*
X10674286Y-15513571D01*
X10688571Y-15542143D01*
X10702857Y-15599286D01*
X10702857Y-15642143D01*
X10688571Y-15699286D01*
X10674286Y-15727857D01*
X10645714Y-15756429D01*
X10602857Y-15770714D01*
X10531428Y-15770714D01*
X10831428Y-15770714D02*
X10831428Y-15570714D01*
X10831428Y-15627857D02*
X10845714Y-15599286D01*
X10860000Y-15585000D01*
X10888571Y-15570714D01*
X10917143Y-15570714D01*
X11017143Y-15770714D02*
X11017143Y-15570714D01*
X11017143Y-15470714D02*
X11002857Y-15485000D01*
X11017143Y-15499286D01*
X11031428Y-15485000D01*
X11017143Y-15470714D01*
X11017143Y-15499286D01*
X11202857Y-15770714D02*
X11174286Y-15756429D01*
X11160000Y-15727857D01*
X11160000Y-15470714D01*
X11360000Y-15770714D02*
X11331428Y-15756429D01*
X11317143Y-15727857D01*
X11317143Y-15470714D01*
X11702857Y-15770714D02*
X11702857Y-15470714D01*
X11802857Y-15685000D01*
X11902857Y-15470714D01*
X11902857Y-15770714D01*
X12174286Y-15770714D02*
X12174286Y-15613571D01*
X12160000Y-15585000D01*
X12131428Y-15570714D01*
X12074286Y-15570714D01*
X12045714Y-15585000D01*
X12174286Y-15756429D02*
X12145714Y-15770714D01*
X12074286Y-15770714D01*
X12045714Y-15756429D01*
X12031428Y-15727857D01*
X12031428Y-15699286D01*
X12045714Y-15670714D01*
X12074286Y-15656429D01*
X12145714Y-15656429D01*
X12174286Y-15642143D01*
X12317143Y-15570714D02*
X12317143Y-15870714D01*
X12317143Y-15585000D02*
X12345714Y-15570714D01*
X12402857Y-15570714D01*
X12431428Y-15585000D01*
X12445714Y-15599286D01*
X12460000Y-15627857D01*
X12460000Y-15713571D01*
X12445714Y-15742143D01*
X12431428Y-15756429D01*
X12402857Y-15770714D01*
X12345714Y-15770714D01*
X12317143Y-15756429D01*
X12588571Y-15742143D02*
X12602857Y-15756429D01*
X12588571Y-15770714D01*
X12574286Y-15756429D01*
X12588571Y-15742143D01*
X12588571Y-15770714D01*
X12588571Y-15585000D02*
X12602857Y-15599286D01*
X12588571Y-15613571D01*
X12574286Y-15599286D01*
X12588571Y-15585000D01*
X12588571Y-15613571D01*
X10205000Y-16245000D02*
X10245000Y-16285000D01*
X10245000Y-16245000D02*
X10205000Y-16285000D01*
X10588571Y-16100714D02*
X10617143Y-16100714D01*
X10645714Y-16115000D01*
X10660000Y-16129286D01*
X10674286Y-16157857D01*
X10688571Y-16215000D01*
X10688571Y-16286429D01*
X10674286Y-16343571D01*
X10660000Y-16372143D01*
X10645714Y-16386429D01*
X10617143Y-16400714D01*
X10588571Y-16400714D01*
X10560000Y-16386429D01*
X10545714Y-16372143D01*
X10531428Y-16343571D01*
X10517143Y-16286429D01*
X10517143Y-16215000D01*
X10531428Y-16157857D01*
X10545714Y-16129286D01*
X10560000Y-16115000D01*
X10588571Y-16100714D01*
X10817143Y-16372143D02*
X10831428Y-16386429D01*
X10817143Y-16400714D01*
X10802857Y-16386429D01*
X10817143Y-16372143D01*
X10817143Y-16400714D01*
X11088571Y-16200714D02*
X11088571Y-16400714D01*
X11017143Y-16086429D02*
X10945714Y-16300714D01*
X11131428Y-16300714D01*
X11302857Y-16100714D02*
X11331428Y-16100714D01*
X11360000Y-16115000D01*
X11374286Y-16129286D01*
X11388571Y-16157857D01*
X11402857Y-16215000D01*
X11402857Y-16286429D01*
X11388571Y-16343571D01*
X11374286Y-16372143D01*
X11360000Y-16386429D01*
X11331428Y-16400714D01*
X11302857Y-16400714D01*
X11274286Y-16386429D01*
X11260000Y-16372143D01*
X11245714Y-16343571D01*
X11231428Y-16286429D01*
X11231428Y-16215000D01*
X11245714Y-16157857D01*
X11260000Y-16129286D01*
X11274286Y-16115000D01*
X11302857Y-16100714D01*
X11588571Y-16100714D02*
X11617143Y-16100714D01*
X11645714Y-16115000D01*
X11660000Y-16129286D01*
X11674286Y-16157857D01*
X11688571Y-16215000D01*
X11688571Y-16286429D01*
X11674286Y-16343571D01*
X11660000Y-16372143D01*
X11645714Y-16386429D01*
X11617143Y-16400714D01*
X11588571Y-16400714D01*
X11560000Y-16386429D01*
X11545714Y-16372143D01*
X11531428Y-16343571D01*
X11517143Y-16286429D01*
X11517143Y-16215000D01*
X11531428Y-16157857D01*
X11545714Y-16129286D01*
X11560000Y-16115000D01*
X11588571Y-16100714D01*
X11817143Y-16400714D02*
X11817143Y-16200714D01*
X11817143Y-16229286D02*
X11831428Y-16215000D01*
X11860000Y-16200714D01*
X11902857Y-16200714D01*
X11931428Y-16215000D01*
X11945714Y-16243571D01*
X11945714Y-16400714D01*
X11945714Y-16243571D02*
X11960000Y-16215000D01*
X11988571Y-16200714D01*
X12031428Y-16200714D01*
X12060000Y-16215000D01*
X12074286Y-16243571D01*
X12074286Y-16400714D01*
X12217143Y-16400714D02*
X12217143Y-16200714D01*
X12217143Y-16229286D02*
X12231428Y-16215000D01*
X12260000Y-16200714D01*
X12302857Y-16200714D01*
X12331428Y-16215000D01*
X12345714Y-16243571D01*
X12345714Y-16400714D01*
X12345714Y-16243571D02*
X12360000Y-16215000D01*
X12388571Y-16200714D01*
X12431428Y-16200714D01*
X12460000Y-16215000D01*
X12474286Y-16243571D01*
X12474286Y-16400714D01*
X13060000Y-16086429D02*
X12802857Y-16472143D01*
X13445714Y-16100714D02*
X13474286Y-16100714D01*
X13502857Y-16115000D01*
X13517143Y-16129286D01*
X13531428Y-16157857D01*
X13545714Y-16215000D01*
X13545714Y-16286429D01*
X13531428Y-16343571D01*
X13517143Y-16372143D01*
X13502857Y-16386429D01*
X13474286Y-16400714D01*
X13445714Y-16400714D01*
X13417143Y-16386429D01*
X13402857Y-16372143D01*
X13388571Y-16343571D01*
X13374286Y-16286429D01*
X13374286Y-16215000D01*
X13388571Y-16157857D01*
X13402857Y-16129286D01*
X13417143Y-16115000D01*
X13445714Y-16100714D01*
X13674286Y-16372143D02*
X13688571Y-16386429D01*
X13674286Y-16400714D01*
X13660000Y-16386429D01*
X13674286Y-16372143D01*
X13674286Y-16400714D01*
X13874286Y-16100714D02*
X13902857Y-16100714D01*
X13931428Y-16115000D01*
X13945714Y-16129286D01*
X13960000Y-16157857D01*
X13974286Y-16215000D01*
X13974286Y-16286429D01*
X13960000Y-16343571D01*
X13945714Y-16372143D01*
X13931428Y-16386429D01*
X13902857Y-16400714D01*
X13874286Y-16400714D01*
X13845714Y-16386429D01*
X13831428Y-16372143D01*
X13817143Y-16343571D01*
X13802857Y-16286429D01*
X13802857Y-16215000D01*
X13817143Y-16157857D01*
X13831428Y-16129286D01*
X13845714Y-16115000D01*
X13874286Y-16100714D01*
X14260000Y-16400714D02*
X14088571Y-16400714D01*
X14174286Y-16400714D02*
X14174286Y-16100714D01*
X14145714Y-16143571D01*
X14117143Y-16172143D01*
X14088571Y-16186429D01*
X14531428Y-16100714D02*
X14388571Y-16100714D01*
X14374286Y-16243571D01*
X14388571Y-16229286D01*
X14417143Y-16215000D01*
X14488571Y-16215000D01*
X14517143Y-16229286D01*
X14531428Y-16243571D01*
X14545714Y-16272143D01*
X14545714Y-16343571D01*
X14531428Y-16372143D01*
X14517143Y-16386429D01*
X14488571Y-16400714D01*
X14417143Y-16400714D01*
X14388571Y-16386429D01*
X14374286Y-16372143D01*
X14645714Y-16100714D02*
X14845714Y-16100714D01*
X14717143Y-16400714D01*
X14945714Y-16100714D02*
X14945714Y-16157857D01*
X15060000Y-16100714D02*
X15060000Y-16157857D01*
X15502857Y-16515000D02*
X15488571Y-16500714D01*
X15460000Y-16457857D01*
X15445714Y-16429286D01*
X15431428Y-16386429D01*
X15417143Y-16315000D01*
X15417143Y-16257857D01*
X15431428Y-16186429D01*
X15445714Y-16143571D01*
X15460000Y-16115000D01*
X15488571Y-16072143D01*
X15502857Y-16057857D01*
X15631428Y-16400714D02*
X15688571Y-16400714D01*
X15717143Y-16386429D01*
X15731428Y-16372143D01*
X15760000Y-16329286D01*
X15774286Y-16272143D01*
X15774286Y-16157857D01*
X15760000Y-16129286D01*
X15745714Y-16115000D01*
X15717143Y-16100714D01*
X15660000Y-16100714D01*
X15631428Y-16115000D01*
X15617143Y-16129286D01*
X15602857Y-16157857D01*
X15602857Y-16229286D01*
X15617143Y-16257857D01*
X15631428Y-16272143D01*
X15660000Y-16286429D01*
X15717143Y-16286429D01*
X15745714Y-16272143D01*
X15760000Y-16257857D01*
X15774286Y-16229286D01*
X16060000Y-16400714D02*
X15888571Y-16400714D01*
X15974286Y-16400714D02*
X15974286Y-16100714D01*
X15945714Y-16143571D01*
X15917143Y-16172143D01*
X15888571Y-16186429D01*
X16417143Y-16400714D02*
X16417143Y-16100714D01*
X16545714Y-16400714D02*
X16545714Y-16243571D01*
X16531428Y-16215000D01*
X16502857Y-16200714D01*
X16460000Y-16200714D01*
X16431428Y-16215000D01*
X16417143Y-16229286D01*
X16731428Y-16400714D02*
X16702857Y-16386429D01*
X16688571Y-16372143D01*
X16674286Y-16343571D01*
X16674286Y-16257857D01*
X16688571Y-16229286D01*
X16702857Y-16215000D01*
X16731428Y-16200714D01*
X16774286Y-16200714D01*
X16802857Y-16215000D01*
X16817143Y-16229286D01*
X16831428Y-16257857D01*
X16831428Y-16343571D01*
X16817143Y-16372143D01*
X16802857Y-16386429D01*
X16774286Y-16400714D01*
X16731428Y-16400714D01*
X17002857Y-16400714D02*
X16974286Y-16386429D01*
X16960000Y-16357857D01*
X16960000Y-16100714D01*
X17231428Y-16386429D02*
X17202857Y-16400714D01*
X17145714Y-16400714D01*
X17117143Y-16386429D01*
X17102857Y-16357857D01*
X17102857Y-16243571D01*
X17117143Y-16215000D01*
X17145714Y-16200714D01*
X17202857Y-16200714D01*
X17231428Y-16215000D01*
X17245714Y-16243571D01*
X17245714Y-16272143D01*
X17102857Y-16300714D01*
X17360000Y-16386429D02*
X17388571Y-16400714D01*
X17445714Y-16400714D01*
X17474286Y-16386429D01*
X17488571Y-16357857D01*
X17488571Y-16343571D01*
X17474286Y-16315000D01*
X17445714Y-16300714D01*
X17402857Y-16300714D01*
X17374286Y-16286429D01*
X17360000Y-16257857D01*
X17360000Y-16243571D01*
X17374286Y-16215000D01*
X17402857Y-16200714D01*
X17445714Y-16200714D01*
X17474286Y-16215000D01*
X17588571Y-16515000D02*
X17602857Y-16500714D01*
X17631428Y-16457857D01*
X17645714Y-16429286D01*
X17660000Y-16386429D01*
X17674286Y-16315000D01*
X17674286Y-16257857D01*
X17660000Y-16186429D01*
X17645714Y-16143571D01*
X17631428Y-16115000D01*
X17602857Y-16072143D01*
X17588571Y-16057857D01*
X10245000Y-16661000D02*
G75*
G03*
X10245000Y-16661000I-25000J0D01*
G01*
X10588571Y-16496714D02*
X10617143Y-16496714D01*
X10645714Y-16511000D01*
X10660000Y-16525286D01*
X10674286Y-16553857D01*
X10688571Y-16611000D01*
X10688571Y-16682429D01*
X10674286Y-16739571D01*
X10660000Y-16768143D01*
X10645714Y-16782429D01*
X10617143Y-16796714D01*
X10588571Y-16796714D01*
X10560000Y-16782429D01*
X10545714Y-16768143D01*
X10531428Y-16739571D01*
X10517143Y-16682429D01*
X10517143Y-16611000D01*
X10531428Y-16553857D01*
X10545714Y-16525286D01*
X10560000Y-16511000D01*
X10588571Y-16496714D01*
X10817143Y-16768143D02*
X10831428Y-16782429D01*
X10817143Y-16796714D01*
X10802857Y-16782429D01*
X10817143Y-16768143D01*
X10817143Y-16796714D01*
X11102857Y-16496714D02*
X10960000Y-16496714D01*
X10945714Y-16639571D01*
X10960000Y-16625286D01*
X10988571Y-16611000D01*
X11060000Y-16611000D01*
X11088571Y-16625286D01*
X11102857Y-16639571D01*
X11117143Y-16668143D01*
X11117143Y-16739571D01*
X11102857Y-16768143D01*
X11088571Y-16782429D01*
X11060000Y-16796714D01*
X10988571Y-16796714D01*
X10960000Y-16782429D01*
X10945714Y-16768143D01*
X11302857Y-16496714D02*
X11331428Y-16496714D01*
X11360000Y-16511000D01*
X11374286Y-16525286D01*
X11388571Y-16553857D01*
X11402857Y-16611000D01*
X11402857Y-16682429D01*
X11388571Y-16739571D01*
X11374286Y-16768143D01*
X11360000Y-16782429D01*
X11331428Y-16796714D01*
X11302857Y-16796714D01*
X11274286Y-16782429D01*
X11260000Y-16768143D01*
X11245714Y-16739571D01*
X11231428Y-16682429D01*
X11231428Y-16611000D01*
X11245714Y-16553857D01*
X11260000Y-16525286D01*
X11274286Y-16511000D01*
X11302857Y-16496714D01*
X11588571Y-16496714D02*
X11617143Y-16496714D01*
X11645714Y-16511000D01*
X11660000Y-16525286D01*
X11674286Y-16553857D01*
X11688571Y-16611000D01*
X11688571Y-16682429D01*
X11674286Y-16739571D01*
X11660000Y-16768143D01*
X11645714Y-16782429D01*
X11617143Y-16796714D01*
X11588571Y-16796714D01*
X11560000Y-16782429D01*
X11545714Y-16768143D01*
X11531428Y-16739571D01*
X11517143Y-16682429D01*
X11517143Y-16611000D01*
X11531428Y-16553857D01*
X11545714Y-16525286D01*
X11560000Y-16511000D01*
X11588571Y-16496714D01*
X11817143Y-16796714D02*
X11817143Y-16596714D01*
X11817143Y-16625286D02*
X11831428Y-16611000D01*
X11860000Y-16596714D01*
X11902857Y-16596714D01*
X11931428Y-16611000D01*
X11945714Y-16639571D01*
X11945714Y-16796714D01*
X11945714Y-16639571D02*
X11960000Y-16611000D01*
X11988571Y-16596714D01*
X12031428Y-16596714D01*
X12060000Y-16611000D01*
X12074286Y-16639571D01*
X12074286Y-16796714D01*
X12217143Y-16796714D02*
X12217143Y-16596714D01*
X12217143Y-16625286D02*
X12231428Y-16611000D01*
X12260000Y-16596714D01*
X12302857Y-16596714D01*
X12331428Y-16611000D01*
X12345714Y-16639571D01*
X12345714Y-16796714D01*
X12345714Y-16639571D02*
X12360000Y-16611000D01*
X12388571Y-16596714D01*
X12431428Y-16596714D01*
X12460000Y-16611000D01*
X12474286Y-16639571D01*
X12474286Y-16796714D01*
X13060000Y-16482429D02*
X12802857Y-16868143D01*
X13445714Y-16496714D02*
X13474286Y-16496714D01*
X13502857Y-16511000D01*
X13517143Y-16525286D01*
X13531428Y-16553857D01*
X13545714Y-16611000D01*
X13545714Y-16682429D01*
X13531428Y-16739571D01*
X13517143Y-16768143D01*
X13502857Y-16782429D01*
X13474286Y-16796714D01*
X13445714Y-16796714D01*
X13417143Y-16782429D01*
X13402857Y-16768143D01*
X13388571Y-16739571D01*
X13374286Y-16682429D01*
X13374286Y-16611000D01*
X13388571Y-16553857D01*
X13402857Y-16525286D01*
X13417143Y-16511000D01*
X13445714Y-16496714D01*
X13674286Y-16768143D02*
X13688571Y-16782429D01*
X13674286Y-16796714D01*
X13660000Y-16782429D01*
X13674286Y-16768143D01*
X13674286Y-16796714D01*
X13874286Y-16496714D02*
X13902857Y-16496714D01*
X13931428Y-16511000D01*
X13945714Y-16525286D01*
X13960000Y-16553857D01*
X13974286Y-16611000D01*
X13974286Y-16682429D01*
X13960000Y-16739571D01*
X13945714Y-16768143D01*
X13931428Y-16782429D01*
X13902857Y-16796714D01*
X13874286Y-16796714D01*
X13845714Y-16782429D01*
X13831428Y-16768143D01*
X13817143Y-16739571D01*
X13802857Y-16682429D01*
X13802857Y-16611000D01*
X13817143Y-16553857D01*
X13831428Y-16525286D01*
X13845714Y-16511000D01*
X13874286Y-16496714D01*
X14260000Y-16796714D02*
X14088571Y-16796714D01*
X14174286Y-16796714D02*
X14174286Y-16496714D01*
X14145714Y-16539571D01*
X14117143Y-16568143D01*
X14088571Y-16582429D01*
X14402857Y-16796714D02*
X14460000Y-16796714D01*
X14488571Y-16782429D01*
X14502857Y-16768143D01*
X14531428Y-16725286D01*
X14545714Y-16668143D01*
X14545714Y-16553857D01*
X14531428Y-16525286D01*
X14517143Y-16511000D01*
X14488571Y-16496714D01*
X14431428Y-16496714D01*
X14402857Y-16511000D01*
X14388571Y-16525286D01*
X14374286Y-16553857D01*
X14374286Y-16625286D01*
X14388571Y-16653857D01*
X14402857Y-16668143D01*
X14431428Y-16682429D01*
X14488571Y-16682429D01*
X14517143Y-16668143D01*
X14531428Y-16653857D01*
X14545714Y-16625286D01*
X14645714Y-16496714D02*
X14845714Y-16496714D01*
X14717143Y-16796714D01*
X14945714Y-16496714D02*
X14945714Y-16553857D01*
X15060000Y-16496714D02*
X15060000Y-16553857D01*
X15502857Y-16911000D02*
X15488571Y-16896714D01*
X15460000Y-16853857D01*
X15445714Y-16825286D01*
X15431428Y-16782429D01*
X15417143Y-16711000D01*
X15417143Y-16653857D01*
X15431428Y-16582429D01*
X15445714Y-16539571D01*
X15460000Y-16511000D01*
X15488571Y-16468143D01*
X15502857Y-16453857D01*
X15674286Y-16496714D02*
X15702857Y-16496714D01*
X15731428Y-16511000D01*
X15745714Y-16525286D01*
X15760000Y-16553857D01*
X15774286Y-16611000D01*
X15774286Y-16682429D01*
X15760000Y-16739571D01*
X15745714Y-16768143D01*
X15731428Y-16782429D01*
X15702857Y-16796714D01*
X15674286Y-16796714D01*
X15645714Y-16782429D01*
X15631428Y-16768143D01*
X15617143Y-16739571D01*
X15602857Y-16682429D01*
X15602857Y-16611000D01*
X15617143Y-16553857D01*
X15631428Y-16525286D01*
X15645714Y-16511000D01*
X15674286Y-16496714D01*
X16131428Y-16796714D02*
X16131428Y-16496714D01*
X16260000Y-16796714D02*
X16260000Y-16639571D01*
X16245714Y-16611000D01*
X16217143Y-16596714D01*
X16174286Y-16596714D01*
X16145714Y-16611000D01*
X16131428Y-16625286D01*
X16445714Y-16796714D02*
X16417143Y-16782429D01*
X16402857Y-16768143D01*
X16388571Y-16739571D01*
X16388571Y-16653857D01*
X16402857Y-16625286D01*
X16417143Y-16611000D01*
X16445714Y-16596714D01*
X16488571Y-16596714D01*
X16517143Y-16611000D01*
X16531428Y-16625286D01*
X16545714Y-16653857D01*
X16545714Y-16739571D01*
X16531428Y-16768143D01*
X16517143Y-16782429D01*
X16488571Y-16796714D01*
X16445714Y-16796714D01*
X16717143Y-16796714D02*
X16688571Y-16782429D01*
X16674286Y-16753857D01*
X16674286Y-16496714D01*
X16945714Y-16782429D02*
X16917143Y-16796714D01*
X16860000Y-16796714D01*
X16831428Y-16782429D01*
X16817143Y-16753857D01*
X16817143Y-16639571D01*
X16831428Y-16611000D01*
X16860000Y-16596714D01*
X16917143Y-16596714D01*
X16945714Y-16611000D01*
X16960000Y-16639571D01*
X16960000Y-16668143D01*
X16817143Y-16696714D01*
X17074286Y-16782429D02*
X17102857Y-16796714D01*
X17160000Y-16796714D01*
X17188571Y-16782429D01*
X17202857Y-16753857D01*
X17202857Y-16739571D01*
X17188571Y-16711000D01*
X17160000Y-16696714D01*
X17117143Y-16696714D01*
X17088571Y-16682429D01*
X17074286Y-16653857D01*
X17074286Y-16639571D01*
X17088571Y-16611000D01*
X17117143Y-16596714D01*
X17160000Y-16596714D01*
X17188571Y-16611000D01*
X17560000Y-16682429D02*
X17788571Y-16682429D01*
X17674286Y-16796714D02*
X17674286Y-16568143D01*
X18145714Y-16525286D02*
X18160000Y-16511000D01*
X18188571Y-16496714D01*
X18260000Y-16496714D01*
X18288571Y-16511000D01*
X18302857Y-16525286D01*
X18317143Y-16553857D01*
X18317143Y-16582429D01*
X18302857Y-16625286D01*
X18131428Y-16796714D01*
X18317143Y-16796714D01*
X18502857Y-16496714D02*
X18531428Y-16496714D01*
X18560000Y-16511000D01*
X18574286Y-16525286D01*
X18588571Y-16553857D01*
X18602857Y-16611000D01*
X18602857Y-16682429D01*
X18588571Y-16739571D01*
X18574286Y-16768143D01*
X18560000Y-16782429D01*
X18531428Y-16796714D01*
X18502857Y-16796714D01*
X18474286Y-16782429D01*
X18460000Y-16768143D01*
X18445714Y-16739571D01*
X18431428Y-16682429D01*
X18431428Y-16611000D01*
X18445714Y-16553857D01*
X18460000Y-16525286D01*
X18474286Y-16511000D01*
X18502857Y-16496714D01*
X18945714Y-16782429D02*
X18974286Y-16796714D01*
X19031428Y-16796714D01*
X19060000Y-16782429D01*
X19074286Y-16753857D01*
X19074286Y-16739571D01*
X19060000Y-16711000D01*
X19031428Y-16696714D01*
X18988571Y-16696714D01*
X18960000Y-16682429D01*
X18945714Y-16653857D01*
X18945714Y-16639571D01*
X18960000Y-16611000D01*
X18988571Y-16596714D01*
X19031428Y-16596714D01*
X19060000Y-16611000D01*
X19245714Y-16796714D02*
X19217143Y-16782429D01*
X19202857Y-16753857D01*
X19202857Y-16496714D01*
X19402857Y-16796714D02*
X19374286Y-16782429D01*
X19360000Y-16768143D01*
X19345714Y-16739571D01*
X19345714Y-16653857D01*
X19360000Y-16625286D01*
X19374286Y-16611000D01*
X19402857Y-16596714D01*
X19445714Y-16596714D01*
X19474286Y-16611000D01*
X19488571Y-16625286D01*
X19502857Y-16653857D01*
X19502857Y-16739571D01*
X19488571Y-16768143D01*
X19474286Y-16782429D01*
X19445714Y-16796714D01*
X19402857Y-16796714D01*
X19588571Y-16596714D02*
X19702857Y-16596714D01*
X19631428Y-16496714D02*
X19631428Y-16753857D01*
X19645714Y-16782429D01*
X19674286Y-16796714D01*
X19702857Y-16796714D01*
X19788571Y-16782429D02*
X19817143Y-16796714D01*
X19874286Y-16796714D01*
X19902857Y-16782429D01*
X19917143Y-16753857D01*
X19917143Y-16739571D01*
X19902857Y-16711000D01*
X19874286Y-16696714D01*
X19831428Y-16696714D01*
X19802857Y-16682429D01*
X19788571Y-16653857D01*
X19788571Y-16639571D01*
X19802857Y-16611000D01*
X19831428Y-16596714D01*
X19874286Y-16596714D01*
X19902857Y-16611000D01*
X20017143Y-16911000D02*
X20031428Y-16896714D01*
X20060000Y-16853857D01*
X20074286Y-16825286D01*
X20088571Y-16782429D01*
X20102857Y-16711000D01*
X20102857Y-16653857D01*
X20088571Y-16582429D01*
X20074286Y-16539571D01*
X20060000Y-16511000D01*
X20031428Y-16468143D01*
X20017143Y-16453857D01*
X10206900Y-17018900D02*
X10206900Y-17095100D01*
X10168800Y-17057000D02*
X10245000Y-17057000D01*
X10588571Y-16892714D02*
X10617143Y-16892714D01*
X10645714Y-16907000D01*
X10660000Y-16921286D01*
X10674286Y-16949857D01*
X10688571Y-17007000D01*
X10688571Y-17078429D01*
X10674286Y-17135572D01*
X10660000Y-17164143D01*
X10645714Y-17178429D01*
X10617143Y-17192714D01*
X10588571Y-17192714D01*
X10560000Y-17178429D01*
X10545714Y-17164143D01*
X10531428Y-17135572D01*
X10517143Y-17078429D01*
X10517143Y-17007000D01*
X10531428Y-16949857D01*
X10545714Y-16921286D01*
X10560000Y-16907000D01*
X10588571Y-16892714D01*
X10817143Y-17164143D02*
X10831428Y-17178429D01*
X10817143Y-17192714D01*
X10802857Y-17178429D01*
X10817143Y-17164143D01*
X10817143Y-17192714D01*
X10931428Y-16892714D02*
X11131428Y-16892714D01*
X11002857Y-17192714D01*
X11374286Y-16892714D02*
X11317143Y-16892714D01*
X11288571Y-16907000D01*
X11274286Y-16921286D01*
X11245714Y-16964143D01*
X11231428Y-17021286D01*
X11231428Y-17135572D01*
X11245714Y-17164143D01*
X11260000Y-17178429D01*
X11288571Y-17192714D01*
X11345714Y-17192714D01*
X11374286Y-17178429D01*
X11388571Y-17164143D01*
X11402857Y-17135572D01*
X11402857Y-17064143D01*
X11388571Y-17035572D01*
X11374286Y-17021286D01*
X11345714Y-17007000D01*
X11288571Y-17007000D01*
X11260000Y-17021286D01*
X11245714Y-17035572D01*
X11231428Y-17064143D01*
X11517143Y-16921286D02*
X11531428Y-16907000D01*
X11560000Y-16892714D01*
X11631428Y-16892714D01*
X11660000Y-16907000D01*
X11674286Y-16921286D01*
X11688571Y-16949857D01*
X11688571Y-16978429D01*
X11674286Y-17021286D01*
X11502857Y-17192714D01*
X11688571Y-17192714D01*
X11817143Y-17192714D02*
X11817143Y-16992714D01*
X11817143Y-17021286D02*
X11831428Y-17007000D01*
X11860000Y-16992714D01*
X11902857Y-16992714D01*
X11931428Y-17007000D01*
X11945714Y-17035572D01*
X11945714Y-17192714D01*
X11945714Y-17035572D02*
X11960000Y-17007000D01*
X11988571Y-16992714D01*
X12031428Y-16992714D01*
X12060000Y-17007000D01*
X12074286Y-17035572D01*
X12074286Y-17192714D01*
X12217143Y-17192714D02*
X12217143Y-16992714D01*
X12217143Y-17021286D02*
X12231428Y-17007000D01*
X12260000Y-16992714D01*
X12302857Y-16992714D01*
X12331428Y-17007000D01*
X12345714Y-17035572D01*
X12345714Y-17192714D01*
X12345714Y-17035572D02*
X12360000Y-17007000D01*
X12388571Y-16992714D01*
X12431428Y-16992714D01*
X12460000Y-17007000D01*
X12474286Y-17035572D01*
X12474286Y-17192714D01*
X13060000Y-16878429D02*
X12802857Y-17264143D01*
X13445714Y-16892714D02*
X13474286Y-16892714D01*
X13502857Y-16907000D01*
X13517143Y-16921286D01*
X13531428Y-16949857D01*
X13545714Y-17007000D01*
X13545714Y-17078429D01*
X13531428Y-17135572D01*
X13517143Y-17164143D01*
X13502857Y-17178429D01*
X13474286Y-17192714D01*
X13445714Y-17192714D01*
X13417143Y-17178429D01*
X13402857Y-17164143D01*
X13388571Y-17135572D01*
X13374286Y-17078429D01*
X13374286Y-17007000D01*
X13388571Y-16949857D01*
X13402857Y-16921286D01*
X13417143Y-16907000D01*
X13445714Y-16892714D01*
X13674286Y-17164143D02*
X13688571Y-17178429D01*
X13674286Y-17192714D01*
X13660000Y-17178429D01*
X13674286Y-17164143D01*
X13674286Y-17192714D01*
X13874286Y-16892714D02*
X13902857Y-16892714D01*
X13931428Y-16907000D01*
X13945714Y-16921286D01*
X13960000Y-16949857D01*
X13974286Y-17007000D01*
X13974286Y-17078429D01*
X13960000Y-17135572D01*
X13945714Y-17164143D01*
X13931428Y-17178429D01*
X13902857Y-17192714D01*
X13874286Y-17192714D01*
X13845714Y-17178429D01*
X13831428Y-17164143D01*
X13817143Y-17135572D01*
X13802857Y-17078429D01*
X13802857Y-17007000D01*
X13817143Y-16949857D01*
X13831428Y-16921286D01*
X13845714Y-16907000D01*
X13874286Y-16892714D01*
X14074286Y-16892714D02*
X14260000Y-16892714D01*
X14160000Y-17007000D01*
X14202857Y-17007000D01*
X14231428Y-17021286D01*
X14245714Y-17035572D01*
X14260000Y-17064143D01*
X14260000Y-17135572D01*
X14245714Y-17164143D01*
X14231428Y-17178429D01*
X14202857Y-17192714D01*
X14117143Y-17192714D01*
X14088571Y-17178429D01*
X14074286Y-17164143D01*
X14445714Y-16892714D02*
X14474286Y-16892714D01*
X14502857Y-16907000D01*
X14517143Y-16921286D01*
X14531428Y-16949857D01*
X14545714Y-17007000D01*
X14545714Y-17078429D01*
X14531428Y-17135572D01*
X14517143Y-17164143D01*
X14502857Y-17178429D01*
X14474286Y-17192714D01*
X14445714Y-17192714D01*
X14417143Y-17178429D01*
X14402857Y-17164143D01*
X14388571Y-17135572D01*
X14374286Y-17078429D01*
X14374286Y-17007000D01*
X14388571Y-16949857D01*
X14402857Y-16921286D01*
X14417143Y-16907000D01*
X14445714Y-16892714D01*
X14731428Y-16892714D02*
X14760000Y-16892714D01*
X14788571Y-16907000D01*
X14802857Y-16921286D01*
X14817143Y-16949857D01*
X14831428Y-17007000D01*
X14831428Y-17078429D01*
X14817143Y-17135572D01*
X14802857Y-17164143D01*
X14788571Y-17178429D01*
X14760000Y-17192714D01*
X14731428Y-17192714D01*
X14702857Y-17178429D01*
X14688571Y-17164143D01*
X14674286Y-17135572D01*
X14660000Y-17078429D01*
X14660000Y-17007000D01*
X14674286Y-16949857D01*
X14688571Y-16921286D01*
X14702857Y-16907000D01*
X14731428Y-16892714D01*
X14945714Y-16892714D02*
X14945714Y-16949857D01*
X15060000Y-16892714D02*
X15060000Y-16949857D01*
X15502857Y-17307000D02*
X15488571Y-17292714D01*
X15460000Y-17249857D01*
X15445714Y-17221286D01*
X15431428Y-17178429D01*
X15417143Y-17107000D01*
X15417143Y-17049857D01*
X15431428Y-16978429D01*
X15445714Y-16935572D01*
X15460000Y-16907000D01*
X15488571Y-16864143D01*
X15502857Y-16849857D01*
X15660000Y-17021286D02*
X15631428Y-17007000D01*
X15617143Y-16992714D01*
X15602857Y-16964143D01*
X15602857Y-16949857D01*
X15617143Y-16921286D01*
X15631428Y-16907000D01*
X15660000Y-16892714D01*
X15717143Y-16892714D01*
X15745714Y-16907000D01*
X15760000Y-16921286D01*
X15774286Y-16949857D01*
X15774286Y-16964143D01*
X15760000Y-16992714D01*
X15745714Y-17007000D01*
X15717143Y-17021286D01*
X15660000Y-17021286D01*
X15631428Y-17035572D01*
X15617143Y-17049857D01*
X15602857Y-17078429D01*
X15602857Y-17135572D01*
X15617143Y-17164143D01*
X15631428Y-17178429D01*
X15660000Y-17192714D01*
X15717143Y-17192714D01*
X15745714Y-17178429D01*
X15760000Y-17164143D01*
X15774286Y-17135572D01*
X15774286Y-17078429D01*
X15760000Y-17049857D01*
X15745714Y-17035572D01*
X15717143Y-17021286D01*
X16131428Y-17192714D02*
X16131428Y-16892714D01*
X16260000Y-17192714D02*
X16260000Y-17035572D01*
X16245714Y-17007000D01*
X16217143Y-16992714D01*
X16174286Y-16992714D01*
X16145714Y-17007000D01*
X16131428Y-17021286D01*
X16445714Y-17192714D02*
X16417143Y-17178429D01*
X16402857Y-17164143D01*
X16388571Y-17135572D01*
X16388571Y-17049857D01*
X16402857Y-17021286D01*
X16417143Y-17007000D01*
X16445714Y-16992714D01*
X16488571Y-16992714D01*
X16517143Y-17007000D01*
X16531428Y-17021286D01*
X16545714Y-17049857D01*
X16545714Y-17135572D01*
X16531428Y-17164143D01*
X16517143Y-17178429D01*
X16488571Y-17192714D01*
X16445714Y-17192714D01*
X16717143Y-17192714D02*
X16688571Y-17178429D01*
X16674286Y-17149857D01*
X16674286Y-16892714D01*
X16945714Y-17178429D02*
X16917143Y-17192714D01*
X16860000Y-17192714D01*
X16831428Y-17178429D01*
X16817143Y-17149857D01*
X16817143Y-17035572D01*
X16831428Y-17007000D01*
X16860000Y-16992714D01*
X16917143Y-16992714D01*
X16945714Y-17007000D01*
X16960000Y-17035572D01*
X16960000Y-17064143D01*
X16817143Y-17092714D01*
X17074286Y-17178429D02*
X17102857Y-17192714D01*
X17160000Y-17192714D01*
X17188571Y-17178429D01*
X17202857Y-17149857D01*
X17202857Y-17135572D01*
X17188571Y-17107000D01*
X17160000Y-17092714D01*
X17117143Y-17092714D01*
X17088571Y-17078429D01*
X17074286Y-17049857D01*
X17074286Y-17035572D01*
X17088571Y-17007000D01*
X17117143Y-16992714D01*
X17160000Y-16992714D01*
X17188571Y-17007000D01*
X17302857Y-17307000D02*
X17317143Y-17292714D01*
X17345714Y-17249857D01*
X17360000Y-17221286D01*
X17374286Y-17178429D01*
X17388571Y-17107000D01*
X17388571Y-17049857D01*
X17374286Y-16978429D01*
X17360000Y-16935572D01*
X17345714Y-16907000D01*
X17317143Y-16864143D01*
X17302857Y-16849857D01*
X10232552Y-17483052D02*
X10232552Y-17422948D01*
X10172448Y-17422948D01*
X10172448Y-17483052D01*
X10232552Y-17483052D01*
X10588571Y-17288714D02*
X10617143Y-17288714D01*
X10645714Y-17303000D01*
X10660000Y-17317286D01*
X10674286Y-17345857D01*
X10688571Y-17403000D01*
X10688571Y-17474429D01*
X10674286Y-17531572D01*
X10660000Y-17560143D01*
X10645714Y-17574429D01*
X10617143Y-17588714D01*
X10588571Y-17588714D01*
X10560000Y-17574429D01*
X10545714Y-17560143D01*
X10531428Y-17531572D01*
X10517143Y-17474429D01*
X10517143Y-17403000D01*
X10531428Y-17345857D01*
X10545714Y-17317286D01*
X10560000Y-17303000D01*
X10588571Y-17288714D01*
X10817143Y-17560143D02*
X10831428Y-17574429D01*
X10817143Y-17588714D01*
X10802857Y-17574429D01*
X10817143Y-17560143D01*
X10817143Y-17588714D01*
X11002857Y-17417286D02*
X10974286Y-17403000D01*
X10960000Y-17388714D01*
X10945714Y-17360143D01*
X10945714Y-17345857D01*
X10960000Y-17317286D01*
X10974286Y-17303000D01*
X11002857Y-17288714D01*
X11060000Y-17288714D01*
X11088571Y-17303000D01*
X11102857Y-17317286D01*
X11117143Y-17345857D01*
X11117143Y-17360143D01*
X11102857Y-17388714D01*
X11088571Y-17403000D01*
X11060000Y-17417286D01*
X11002857Y-17417286D01*
X10974286Y-17431572D01*
X10960000Y-17445857D01*
X10945714Y-17474429D01*
X10945714Y-17531572D01*
X10960000Y-17560143D01*
X10974286Y-17574429D01*
X11002857Y-17588714D01*
X11060000Y-17588714D01*
X11088571Y-17574429D01*
X11102857Y-17560143D01*
X11117143Y-17531572D01*
X11117143Y-17474429D01*
X11102857Y-17445857D01*
X11088571Y-17431572D01*
X11060000Y-17417286D01*
X11388571Y-17288714D02*
X11245714Y-17288714D01*
X11231428Y-17431572D01*
X11245714Y-17417286D01*
X11274286Y-17403000D01*
X11345714Y-17403000D01*
X11374286Y-17417286D01*
X11388571Y-17431572D01*
X11402857Y-17460143D01*
X11402857Y-17531572D01*
X11388571Y-17560143D01*
X11374286Y-17574429D01*
X11345714Y-17588714D01*
X11274286Y-17588714D01*
X11245714Y-17574429D01*
X11231428Y-17560143D01*
X11588571Y-17288714D02*
X11617143Y-17288714D01*
X11645714Y-17303000D01*
X11660000Y-17317286D01*
X11674286Y-17345857D01*
X11688571Y-17403000D01*
X11688571Y-17474429D01*
X11674286Y-17531572D01*
X11660000Y-17560143D01*
X11645714Y-17574429D01*
X11617143Y-17588714D01*
X11588571Y-17588714D01*
X11560000Y-17574429D01*
X11545714Y-17560143D01*
X11531428Y-17531572D01*
X11517143Y-17474429D01*
X11517143Y-17403000D01*
X11531428Y-17345857D01*
X11545714Y-17317286D01*
X11560000Y-17303000D01*
X11588571Y-17288714D01*
X11817143Y-17588714D02*
X11817143Y-17388714D01*
X11817143Y-17417286D02*
X11831428Y-17403000D01*
X11860000Y-17388714D01*
X11902857Y-17388714D01*
X11931428Y-17403000D01*
X11945714Y-17431572D01*
X11945714Y-17588714D01*
X11945714Y-17431572D02*
X11960000Y-17403000D01*
X11988571Y-17388714D01*
X12031428Y-17388714D01*
X12060000Y-17403000D01*
X12074286Y-17431572D01*
X12074286Y-17588714D01*
X12217143Y-17588714D02*
X12217143Y-17388714D01*
X12217143Y-17417286D02*
X12231428Y-17403000D01*
X12260000Y-17388714D01*
X12302857Y-17388714D01*
X12331428Y-17403000D01*
X12345714Y-17431572D01*
X12345714Y-17588714D01*
X12345714Y-17431572D02*
X12360000Y-17403000D01*
X12388571Y-17388714D01*
X12431428Y-17388714D01*
X12460000Y-17403000D01*
X12474286Y-17431572D01*
X12474286Y-17588714D01*
X13060000Y-17274429D02*
X12802857Y-17660143D01*
X13445714Y-17288714D02*
X13474286Y-17288714D01*
X13502857Y-17303000D01*
X13517143Y-17317286D01*
X13531428Y-17345857D01*
X13545714Y-17403000D01*
X13545714Y-17474429D01*
X13531428Y-17531572D01*
X13517143Y-17560143D01*
X13502857Y-17574429D01*
X13474286Y-17588714D01*
X13445714Y-17588714D01*
X13417143Y-17574429D01*
X13402857Y-17560143D01*
X13388571Y-17531572D01*
X13374286Y-17474429D01*
X13374286Y-17403000D01*
X13388571Y-17345857D01*
X13402857Y-17317286D01*
X13417143Y-17303000D01*
X13445714Y-17288714D01*
X13674286Y-17560143D02*
X13688571Y-17574429D01*
X13674286Y-17588714D01*
X13660000Y-17574429D01*
X13674286Y-17560143D01*
X13674286Y-17588714D01*
X13874286Y-17288714D02*
X13902857Y-17288714D01*
X13931428Y-17303000D01*
X13945714Y-17317286D01*
X13960000Y-17345857D01*
X13974286Y-17403000D01*
X13974286Y-17474429D01*
X13960000Y-17531572D01*
X13945714Y-17560143D01*
X13931428Y-17574429D01*
X13902857Y-17588714D01*
X13874286Y-17588714D01*
X13845714Y-17574429D01*
X13831428Y-17560143D01*
X13817143Y-17531572D01*
X13802857Y-17474429D01*
X13802857Y-17403000D01*
X13817143Y-17345857D01*
X13831428Y-17317286D01*
X13845714Y-17303000D01*
X13874286Y-17288714D01*
X14074286Y-17288714D02*
X14260000Y-17288714D01*
X14160000Y-17403000D01*
X14202857Y-17403000D01*
X14231428Y-17417286D01*
X14245714Y-17431572D01*
X14260000Y-17460143D01*
X14260000Y-17531572D01*
X14245714Y-17560143D01*
X14231428Y-17574429D01*
X14202857Y-17588714D01*
X14117143Y-17588714D01*
X14088571Y-17574429D01*
X14074286Y-17560143D01*
X14360000Y-17288714D02*
X14545714Y-17288714D01*
X14445714Y-17403000D01*
X14488571Y-17403000D01*
X14517143Y-17417286D01*
X14531428Y-17431572D01*
X14545714Y-17460143D01*
X14545714Y-17531572D01*
X14531428Y-17560143D01*
X14517143Y-17574429D01*
X14488571Y-17588714D01*
X14402857Y-17588714D01*
X14374286Y-17574429D01*
X14360000Y-17560143D01*
X14817143Y-17288714D02*
X14674286Y-17288714D01*
X14660000Y-17431572D01*
X14674286Y-17417286D01*
X14702857Y-17403000D01*
X14774286Y-17403000D01*
X14802857Y-17417286D01*
X14817143Y-17431572D01*
X14831428Y-17460143D01*
X14831428Y-17531572D01*
X14817143Y-17560143D01*
X14802857Y-17574429D01*
X14774286Y-17588714D01*
X14702857Y-17588714D01*
X14674286Y-17574429D01*
X14660000Y-17560143D01*
X14945714Y-17288714D02*
X14945714Y-17345857D01*
X15060000Y-17288714D02*
X15060000Y-17345857D01*
X15502857Y-17703000D02*
X15488571Y-17688714D01*
X15460000Y-17645857D01*
X15445714Y-17617286D01*
X15431428Y-17574429D01*
X15417143Y-17503000D01*
X15417143Y-17445857D01*
X15431428Y-17374429D01*
X15445714Y-17331572D01*
X15460000Y-17303000D01*
X15488571Y-17260143D01*
X15502857Y-17245857D01*
X15745714Y-17388714D02*
X15745714Y-17588714D01*
X15674286Y-17274429D02*
X15602857Y-17488714D01*
X15788571Y-17488714D01*
X16131428Y-17588714D02*
X16131428Y-17288714D01*
X16260000Y-17588714D02*
X16260000Y-17431572D01*
X16245714Y-17403000D01*
X16217143Y-17388714D01*
X16174286Y-17388714D01*
X16145714Y-17403000D01*
X16131428Y-17417286D01*
X16445714Y-17588714D02*
X16417143Y-17574429D01*
X16402857Y-17560143D01*
X16388571Y-17531572D01*
X16388571Y-17445857D01*
X16402857Y-17417286D01*
X16417143Y-17403000D01*
X16445714Y-17388714D01*
X16488571Y-17388714D01*
X16517143Y-17403000D01*
X16531428Y-17417286D01*
X16545714Y-17445857D01*
X16545714Y-17531572D01*
X16531428Y-17560143D01*
X16517143Y-17574429D01*
X16488571Y-17588714D01*
X16445714Y-17588714D01*
X16717143Y-17588714D02*
X16688571Y-17574429D01*
X16674286Y-17545857D01*
X16674286Y-17288714D01*
X16945714Y-17574429D02*
X16917143Y-17588714D01*
X16860000Y-17588714D01*
X16831428Y-17574429D01*
X16817143Y-17545857D01*
X16817143Y-17431572D01*
X16831428Y-17403000D01*
X16860000Y-17388714D01*
X16917143Y-17388714D01*
X16945714Y-17403000D01*
X16960000Y-17431572D01*
X16960000Y-17460143D01*
X16817143Y-17488714D01*
X17074286Y-17574429D02*
X17102857Y-17588714D01*
X17160000Y-17588714D01*
X17188571Y-17574429D01*
X17202857Y-17545857D01*
X17202857Y-17531572D01*
X17188571Y-17503000D01*
X17160000Y-17488714D01*
X17117143Y-17488714D01*
X17088571Y-17474429D01*
X17074286Y-17445857D01*
X17074286Y-17431572D01*
X17088571Y-17403000D01*
X17117143Y-17388714D01*
X17160000Y-17388714D01*
X17188571Y-17403000D01*
X17302857Y-17703000D02*
X17317143Y-17688714D01*
X17345714Y-17645857D01*
X17360000Y-17617286D01*
X17374286Y-17574429D01*
X17388571Y-17503000D01*
X17388571Y-17445857D01*
X17374286Y-17374429D01*
X17360000Y-17331572D01*
X17345714Y-17303000D01*
X17317143Y-17260143D01*
X17302857Y-17245857D01*
X10195000Y-17899000D02*
X10245000Y-17849000D01*
X10195000Y-17799000D01*
X10145000Y-17849000D01*
X10195000Y-17899000D01*
X10688571Y-17984714D02*
X10517143Y-17984714D01*
X10602857Y-17984714D02*
X10602857Y-17684714D01*
X10574286Y-17727572D01*
X10545714Y-17756143D01*
X10517143Y-17770429D01*
X10817143Y-17956143D02*
X10831428Y-17970429D01*
X10817143Y-17984714D01*
X10802857Y-17970429D01*
X10817143Y-17956143D01*
X10817143Y-17984714D01*
X11017143Y-17684714D02*
X11045714Y-17684714D01*
X11074286Y-17699000D01*
X11088571Y-17713286D01*
X11102857Y-17741857D01*
X11117143Y-17799000D01*
X11117143Y-17870429D01*
X11102857Y-17927572D01*
X11088571Y-17956143D01*
X11074286Y-17970429D01*
X11045714Y-17984714D01*
X11017143Y-17984714D01*
X10988571Y-17970429D01*
X10974286Y-17956143D01*
X10960000Y-17927572D01*
X10945714Y-17870429D01*
X10945714Y-17799000D01*
X10960000Y-17741857D01*
X10974286Y-17713286D01*
X10988571Y-17699000D01*
X11017143Y-17684714D01*
X11302857Y-17684714D02*
X11331428Y-17684714D01*
X11360000Y-17699000D01*
X11374286Y-17713286D01*
X11388571Y-17741857D01*
X11402857Y-17799000D01*
X11402857Y-17870429D01*
X11388571Y-17927572D01*
X11374286Y-17956143D01*
X11360000Y-17970429D01*
X11331428Y-17984714D01*
X11302857Y-17984714D01*
X11274286Y-17970429D01*
X11260000Y-17956143D01*
X11245714Y-17927572D01*
X11231428Y-17870429D01*
X11231428Y-17799000D01*
X11245714Y-17741857D01*
X11260000Y-17713286D01*
X11274286Y-17699000D01*
X11302857Y-17684714D01*
X11588571Y-17684714D02*
X11617143Y-17684714D01*
X11645714Y-17699000D01*
X11660000Y-17713286D01*
X11674286Y-17741857D01*
X11688571Y-17799000D01*
X11688571Y-17870429D01*
X11674286Y-17927572D01*
X11660000Y-17956143D01*
X11645714Y-17970429D01*
X11617143Y-17984714D01*
X11588571Y-17984714D01*
X11560000Y-17970429D01*
X11545714Y-17956143D01*
X11531428Y-17927572D01*
X11517143Y-17870429D01*
X11517143Y-17799000D01*
X11531428Y-17741857D01*
X11545714Y-17713286D01*
X11560000Y-17699000D01*
X11588571Y-17684714D01*
X11817143Y-17984714D02*
X11817143Y-17784714D01*
X11817143Y-17813286D02*
X11831428Y-17799000D01*
X11860000Y-17784714D01*
X11902857Y-17784714D01*
X11931428Y-17799000D01*
X11945714Y-17827572D01*
X11945714Y-17984714D01*
X11945714Y-17827572D02*
X11960000Y-17799000D01*
X11988571Y-17784714D01*
X12031428Y-17784714D01*
X12060000Y-17799000D01*
X12074286Y-17827572D01*
X12074286Y-17984714D01*
X12217143Y-17984714D02*
X12217143Y-17784714D01*
X12217143Y-17813286D02*
X12231428Y-17799000D01*
X12260000Y-17784714D01*
X12302857Y-17784714D01*
X12331428Y-17799000D01*
X12345714Y-17827572D01*
X12345714Y-17984714D01*
X12345714Y-17827572D02*
X12360000Y-17799000D01*
X12388571Y-17784714D01*
X12431428Y-17784714D01*
X12460000Y-17799000D01*
X12474286Y-17827572D01*
X12474286Y-17984714D01*
X13060000Y-17670429D02*
X12802857Y-18056143D01*
X13445714Y-17684714D02*
X13474286Y-17684714D01*
X13502857Y-17699000D01*
X13517143Y-17713286D01*
X13531428Y-17741857D01*
X13545714Y-17799000D01*
X13545714Y-17870429D01*
X13531428Y-17927572D01*
X13517143Y-17956143D01*
X13502857Y-17970429D01*
X13474286Y-17984714D01*
X13445714Y-17984714D01*
X13417143Y-17970429D01*
X13402857Y-17956143D01*
X13388571Y-17927572D01*
X13374286Y-17870429D01*
X13374286Y-17799000D01*
X13388571Y-17741857D01*
X13402857Y-17713286D01*
X13417143Y-17699000D01*
X13445714Y-17684714D01*
X13674286Y-17956143D02*
X13688571Y-17970429D01*
X13674286Y-17984714D01*
X13660000Y-17970429D01*
X13674286Y-17956143D01*
X13674286Y-17984714D01*
X13874286Y-17684714D02*
X13902857Y-17684714D01*
X13931428Y-17699000D01*
X13945714Y-17713286D01*
X13960000Y-17741857D01*
X13974286Y-17799000D01*
X13974286Y-17870429D01*
X13960000Y-17927572D01*
X13945714Y-17956143D01*
X13931428Y-17970429D01*
X13902857Y-17984714D01*
X13874286Y-17984714D01*
X13845714Y-17970429D01*
X13831428Y-17956143D01*
X13817143Y-17927572D01*
X13802857Y-17870429D01*
X13802857Y-17799000D01*
X13817143Y-17741857D01*
X13831428Y-17713286D01*
X13845714Y-17699000D01*
X13874286Y-17684714D01*
X14074286Y-17684714D02*
X14260000Y-17684714D01*
X14160000Y-17799000D01*
X14202857Y-17799000D01*
X14231428Y-17813286D01*
X14245714Y-17827572D01*
X14260000Y-17856143D01*
X14260000Y-17927572D01*
X14245714Y-17956143D01*
X14231428Y-17970429D01*
X14202857Y-17984714D01*
X14117143Y-17984714D01*
X14088571Y-17970429D01*
X14074286Y-17956143D01*
X14402857Y-17984714D02*
X14460000Y-17984714D01*
X14488571Y-17970429D01*
X14502857Y-17956143D01*
X14531428Y-17913286D01*
X14545714Y-17856143D01*
X14545714Y-17741857D01*
X14531428Y-17713286D01*
X14517143Y-17699000D01*
X14488571Y-17684714D01*
X14431428Y-17684714D01*
X14402857Y-17699000D01*
X14388571Y-17713286D01*
X14374286Y-17741857D01*
X14374286Y-17813286D01*
X14388571Y-17841857D01*
X14402857Y-17856143D01*
X14431428Y-17870429D01*
X14488571Y-17870429D01*
X14517143Y-17856143D01*
X14531428Y-17841857D01*
X14545714Y-17813286D01*
X14802857Y-17784714D02*
X14802857Y-17984714D01*
X14731428Y-17670429D02*
X14660000Y-17884714D01*
X14845714Y-17884714D01*
X14945714Y-17684714D02*
X14945714Y-17741857D01*
X15060000Y-17684714D02*
X15060000Y-17741857D01*
X15502857Y-18099000D02*
X15488571Y-18084714D01*
X15460000Y-18041857D01*
X15445714Y-18013286D01*
X15431428Y-17970429D01*
X15417143Y-17899000D01*
X15417143Y-17841857D01*
X15431428Y-17770429D01*
X15445714Y-17727572D01*
X15460000Y-17699000D01*
X15488571Y-17656143D01*
X15502857Y-17641857D01*
X15660000Y-17813286D02*
X15631428Y-17799000D01*
X15617143Y-17784714D01*
X15602857Y-17756143D01*
X15602857Y-17741857D01*
X15617143Y-17713286D01*
X15631428Y-17699000D01*
X15660000Y-17684714D01*
X15717143Y-17684714D01*
X15745714Y-17699000D01*
X15760000Y-17713286D01*
X15774286Y-17741857D01*
X15774286Y-17756143D01*
X15760000Y-17784714D01*
X15745714Y-17799000D01*
X15717143Y-17813286D01*
X15660000Y-17813286D01*
X15631428Y-17827572D01*
X15617143Y-17841857D01*
X15602857Y-17870429D01*
X15602857Y-17927572D01*
X15617143Y-17956143D01*
X15631428Y-17970429D01*
X15660000Y-17984714D01*
X15717143Y-17984714D01*
X15745714Y-17970429D01*
X15760000Y-17956143D01*
X15774286Y-17927572D01*
X15774286Y-17870429D01*
X15760000Y-17841857D01*
X15745714Y-17827572D01*
X15717143Y-17813286D01*
X16131428Y-17984714D02*
X16131428Y-17684714D01*
X16260000Y-17984714D02*
X16260000Y-17827572D01*
X16245714Y-17799000D01*
X16217143Y-17784714D01*
X16174286Y-17784714D01*
X16145714Y-17799000D01*
X16131428Y-17813286D01*
X16445714Y-17984714D02*
X16417143Y-17970429D01*
X16402857Y-17956143D01*
X16388571Y-17927572D01*
X16388571Y-17841857D01*
X16402857Y-17813286D01*
X16417143Y-17799000D01*
X16445714Y-17784714D01*
X16488571Y-17784714D01*
X16517143Y-17799000D01*
X16531428Y-17813286D01*
X16545714Y-17841857D01*
X16545714Y-17927572D01*
X16531428Y-17956143D01*
X16517143Y-17970429D01*
X16488571Y-17984714D01*
X16445714Y-17984714D01*
X16717143Y-17984714D02*
X16688571Y-17970429D01*
X16674286Y-17941857D01*
X16674286Y-17684714D01*
X16945714Y-17970429D02*
X16917143Y-17984714D01*
X16860000Y-17984714D01*
X16831428Y-17970429D01*
X16817143Y-17941857D01*
X16817143Y-17827572D01*
X16831428Y-17799000D01*
X16860000Y-17784714D01*
X16917143Y-17784714D01*
X16945714Y-17799000D01*
X16960000Y-17827572D01*
X16960000Y-17856143D01*
X16817143Y-17884714D01*
X17074286Y-17970429D02*
X17102857Y-17984714D01*
X17160000Y-17984714D01*
X17188571Y-17970429D01*
X17202857Y-17941857D01*
X17202857Y-17927572D01*
X17188571Y-17899000D01*
X17160000Y-17884714D01*
X17117143Y-17884714D01*
X17088571Y-17870429D01*
X17074286Y-17841857D01*
X17074286Y-17827572D01*
X17088571Y-17799000D01*
X17117143Y-17784714D01*
X17160000Y-17784714D01*
X17188571Y-17799000D01*
X17302857Y-18099000D02*
X17317143Y-18084714D01*
X17345714Y-18041857D01*
X17360000Y-18013286D01*
X17374286Y-17970429D01*
X17388571Y-17899000D01*
X17388571Y-17841857D01*
X17374286Y-17770429D01*
X17360000Y-17727572D01*
X17345714Y-17699000D01*
X17317143Y-17656143D01*
X17302857Y-17641857D01*
M02*
